# Alias OBJ Model File
# Exported from SketchUp, (c) 2000-2012 Trimble Navigation Limited
# File units = meters

mtllib ac-unit.mtl

g Mesh1 Component_1_1 NM_AC_Units1 Model

usemtl _1
v 0.918554 2.25164 -6.53082
vt 0.523688 -0.611305
vn 8.97393e-13 -1 -0
v 0.587362 2.25164 -5.53082
vt 0.407071 -0.963418
v 0.587362 2.25164 -6.53082
vt 0.407071 -0.611305
f 1/1/1 2/2/1 3/3/1

v 0.918554 2.25164 -5.53082
vt 0.523688 -0.963418
f 2/2/1 1/1/1 4/4/1

v 0.957457 2.21274 -6.53082
vt 0.54306 -0.611305
vn -0.707107 -0.707107 -0
f 5/5/2 4/4/2 1/1/2

v 1.02664 2.14356 -6.43125
vt 0.57751 -0.646364
f 4/4/2 5/5/2 6/6/2

vt 0.049689 1.4835
vn 0.504356 -0.504356 -0.700892
v 0.922102 2.17738 -6.53082
vt -7.06651e-10 1.43382
vt 0.049689 1.43382
f 6/7/3 7/8/3 5/9/3

v 0.991285 2.1082 -6.43125
vt -1.01058e-09 1.4835
f 7/8/3 6/7/3 8/10/3

v 1.47212 1.69808 -6.43125
vt 0.049689 1.13281
vn 0 0 -1
vt -1.91513e-15 1
vt 0.049689 1
f 9/11/4 8/12/4 6/13/4

v 1.43676 1.66272 -6.43125
vt -8.12324e-10 1.13281
f 8/12/4 9/11/4 10/14/4

v 1.54377 1.62643 -6.53082
vt 0.0496889 1.27399
vn -0.495605 0.495605 -0.713268
vt -8.12315e-10 1.13281
f 11/15/5 10/16/5 9/11/5

v 1.50841 1.59108 -6.53082
vt -1.67581e-09 1.27399
f 10/16/5 11/15/5 12/17/5

v 1.75998 1.33951 -6.53082
vt -2.66836e-09 1.43626
f 11/15/4 13/18/4 12/17/4

v 1.79533 1.37486 -6.53082
vt 0.0496889 1.43626
f 13/18/4 11/15/4 14/19/4

v 1.79533 1.37486 -5.53082
vt 0.96029 -0.963418
vt 0.835019 -0.611305
vt 0.96029 -0.611305
f 15/20/2 11/21/2 14/22/2

vt 0.799341 -0.646364
f 15/20/2 9/23/2 11/21/2

f 15/20/2 6/6/2 9/23/2

f 4/4/2 6/6/2 15/20/2

v 0.887844 2.21164 -5.53082
vt -5.55112e-17 6.93889e-18
vn 0 0 1
vt 0.0496889 0.260016
vt 0.049689 -0.00138475
f 16/24/6 15/25/6 4/26/6

v 1.75998 1.33951 -5.53082
vt -1.59033e-09 0.260016
f 15/25/6 16/24/6 17/27/6

v 0.887844 2.21164 -6.53082
vt 0.526 -0.611305
vn -0.707107 -0.707107 -1.32728e-16
vt 0.526 -0.963418
f 18/28/7 17/20/7 16/29/7

f 17/20/7 18/28/7 8/6/7

f 8/6/7 18/28/7 7/5/7

vt 0.049689 1.4156
vt -7.06649e-10 1.43382
vt -6.08531e-10 1.41777
f 1/30/4 7/31/4 18/32/4

f 7/31/4 1/30/4 5/9/4

vt -6.08535e-10 1.41777
vt 0.0497444 1.31829
vt 0.0497444 1.42794
f 18/33/4 3/34/4 1/35/4

v 0.587362 2.21164 -6.53082
vt -1.02696e-15 1.31829
f 3/34/4 18/33/4 19/36/4

vt 0.512874 -0.611305
vn 8.97338e-13 -1 1.64541e-28
v 0.587362 2.21164 -5.53082
f 18/37/8 20/2/8 19/3/8

vt 0.512874 -0.963418
f 20/2/8 18/37/8 16/38/8

usemtl _2
vt 39.3701 5.95512
vn 0.793185 -0.608981 1.42716e-16
vt 1.32714e-15 7.94054
vt 1.36437e-15 5.95512
f 18/39/9 4/40/9 16/41/9

vt 39.3701 7.94054
f 4/40/9 18/39/9 1/42/9

usemtl _1
f 2/34/6 16/33/6 4/35/6

f 16/33/6 2/34/6 20/36/6

vn -1 -8.97393e-13 -0
vt -5.68989e-16 1
vt 0.0497444 1
f 3/34/10 20/43/10 2/44/10

vt 0 1.31829
f 20/43/10 3/34/10 19/45/10

f 17/20/7 8/6/7 10/23/7

f 17/20/7 10/23/7 12/21/7

f 17/20/7 12/21/7 13/22/7

vn 0.707107 -0.707107 -0
f 13/22/11 15/20/11 17/20/11

f 15/20/11 13/22/11 14/22/11

g Mesh2 NM_AC_Units1 Model

v 2.02872 1.33662 -2.40179
vt 1.04805 -1
vn 0.707107 0.707107 -0
v 1.99048 1.37486 -0.936648
vt 1.029 -0.484107
v 2.02872 1.33662 -0.936648
vt 1.04805 -0.484107
f 21/46/12 22/47/12 23/48/12

v 1.99048 1.37486 -2.40179
vt 1.029 -1
f 22/47/12 21/46/12 24/49/12

vt -0.616799 -1.01443
vn 9.16075e-32 -2.76473e-31 -1
v 0.555381 1.37486 -2.40179
vt -0.0980169 -1.00097
vt -0.603333 -1.00097
f 21/50/13 25/51/13 24/52/13

v 0.279192 1.09867 -2.40179
vt -0.000767284 -1.09822
f 21/50/13 26/53/13 25/51/13

v 0.968476 0.943571 -2.40179
vt -0.243473 -1.15283
f 21/50/13 27/54/13 26/53/13

v 2.02872 0.900057 -2.40179
vt -0.616799 -1.16815
f 28/55/13 27/54/13 21/50/13

v 1.03848 0.873571 -2.40179
vt -0.268121 -1.17748
f 28/55/13 29/56/13 27/54/13

v 1.99048 0.861814 -2.40179
vt -0.603333 -1.18162
f 30/57/13 29/56/13 28/55/13

v 1.37499 0.861814 -2.40179
vt -0.386611 -1.18162
f 31/58/13 29/56/13 30/57/13

v 0.968476 0.803571 -2.40179
vt -0.243473 -1.20213
f 31/58/13 32/59/13 29/56/13

v 1.27953 0.802325 -2.40179
vt -0.352998 -1.20257
f 32/59/13 31/58/13 33/60/13

vt -1.56235 -1.00168
vn 0.528885 -0.848693 -0
v 1.27953 0.802325 -0.936648
vt -1.52274 -0.485783
vt -1.52274 -1.00168
f 31/61/14 34/62/14 33/63/14

v 1.37499 0.861814 -0.936648
vt -1.56235 -0.485783
f 34/62/14 31/61/14 35/64/14

vt -1.77907 -1.00168
vn 0 -1 -0
f 30/65/15 35/64/15 31/61/15

v 1.99048 0.861814 -0.936648
vt -1.77907 -0.485783
f 35/64/15 30/65/15 36/66/15

vt -1.79811 -1.00168
vn 0.707107 -0.707107 7.55016e-19
f 28/67/16 36/66/16 30/65/16

v 2.02872 0.900057 -0.936648
vt -1.79811 -0.485783
f 36/66/16 28/67/16 37/68/16

vn 1 0 -0
v 2.02872 0.950557 -1.31963
vt -1.8159 -0.620635
f 28/67/17 38/69/17 37/68/17

v 2.02872 0.950557 -2.18963
vt -1.8159 -0.926973
f 38/69/17 28/67/17 39/70/17

v 2.02872 1.22056 -2.18963
vt -1.91097 -0.926973
f 39/70/17 28/67/17 40/71/17

vt -1.95183 -1.00168
f 21/72/17 40/71/17 28/67/17

v 2.02872 1.22056 -1.31963
vt -1.91097 -0.620635
f 21/72/17 41/73/17 40/71/17

vt -1.95183 -0.485783
f 23/74/17 41/73/17 21/72/17

f 41/73/17 23/74/17 37/68/17

v 0.968476 0.943571 -0.936648
vt -1.24259 -0.15354
vn -6.08865e-16 -7.97108e-16 1
vt -1.61591 -0.168861
vt -1.61591 -0.015142
f 42/75/18 37/76/18 23/77/18

v 1.03848 0.873571 -0.936648
vt -1.26723 -0.178187
f 43/78/18 37/76/18 42/75/18

vt -1.38573 -0.182327
f 35/79/18 37/76/18 43/78/18

vt -1.60245 -0.182327
f 37/76/18 35/79/18 36/80/18

v 0.968476 0.803571 -0.936648
vt -1.24259 -0.202835
f 44/81/18 35/79/18 43/78/18

vt -1.35211 -0.203274
f 35/79/18 44/81/18 34/82/18

v 0.908201 0.0456789 -0.936648
vt -1.22136 -0.469699
f 44/81/18 45/83/18 34/82/18

v 0.279192 1.09867 -0.936648
vt -0.999881 -0.0989257
f 46/84/18 45/83/18 44/81/18

v 0.279192 1.78962e-15 -0.936648
vt -0.999881 -0.485783
f 47/85/18 45/83/18 46/84/18

v 0.834901 1.78962e-15 -0.936648
vt -1.19555 -0.485783
f 45/83/18 47/85/18 48/86/18

v 0.834901 1.78962e-15 -2.40179
vt -1.19555 -1.00168
f 47/85/15 49/87/15 48/86/15

v 0.279192 1.78962e-15 -2.40179
vt -0.999881 -1.00168
f 49/87/15 47/85/15 50/88/15

vt -0.000701413 -0.484107
vn -1 0 -0
v 0.279192 0.216419 -1.28775
vt 0.0755024 -0.607735
vt -0.000701413 -1
f 47/89/19 51/90/19 50/91/19

v 0.279192 0.976419 -1.28775
vt 0.343108 -0.607735
f 51/90/19 47/89/19 52/92/19

vt 0.386156 -0.484107
f 46/93/19 52/92/19 47/89/19

vt 0.386156 -1
f 52/92/19 46/93/19 26/94/19

vn -0.707107 0.707107 -0
vt 0.523688 -1
f 46/93/20 25/95/20 26/94/20

v 0.555381 1.37486 -0.936648
vt 0.523688 -0.484107
f 25/95/20 46/93/20 53/96/20

vt -1.09713 -0.00167604
f 46/84/18 23/77/18 53/97/18

f 42/75/18 23/77/18 46/84/18

v 0.898476 0.873571 -0.936648
vt -1.21794 -0.178187
f 46/84/18 54/98/18 42/75/18

f 46/84/18 44/81/18 54/98/18

v 0.968476 0.803571 -0.156648
vt 0.999065 -1.98794
vn -0.707107 -0.707107 -9.94173e-16
vt 1.04856 -1.59794
vt 0.999065 -1.59794
f 55/99/21 54/100/21 44/101/21

v 0.898476 0.873571 -0.156648
vt 1.04856 -1.98794
f 54/100/21 55/99/21 56/102/21

vn 6.08865e-16 7.97108e-16 -1
v 0.279192 1.09867 -0.156648
vt -0.218825 -1.17748
f 55/59/22 57/53/22 56/103/22

v 0.908201 0.0456789 -0.156648
vt -0.222249 -1.46899
f 58/104/22 57/53/22 55/59/22

v 0.834901 1.16787e-15 -0.156648
vt -0.19644 -1.48508
f 59/105/22 57/53/22 58/104/22

v 0.279192 1.16787e-15 -0.156648
vt -0.000767284 -1.48508
f 57/53/22 59/105/22 60/106/22

v 0.834901 0 1.30849
vn 4.85332e-31 -1 -7.97108e-16
f 61/86/23 60/88/23 59/87/23

v 0.279192 0 1.30849
f 60/88/23 61/86/23 62/85/23

v 0.908201 0.0456789 1.30849
vn -1.21773e-15 -1.59422e-15 1
f 63/83/24 62/85/24 61/86/24

v 0.279192 1.09867 1.30849
f 62/85/24 63/83/24 64/84/24

v 1.27953 0.802325 1.30849
f 64/84/24 63/83/24 65/82/24

vt -1.22596 -0.485783
vn 0.897723 -0.440561 1.95418e-16
v 1.27953 0.802325 -0.156648
f 63/107/25 66/63/25 65/62/25

vt -1.22596 -1.00168
f 66/63/25 63/107/25 58/108/25

vn 0.528885 -0.848693 -3.54178e-16
f 63/107/26 59/87/26 58/108/26

f 59/87/26 63/107/26 61/86/26

f 58/104/22 55/59/22 66/60/22

v 1.37499 0.861814 -0.156648
f 55/59/22 67/58/22 66/60/22

v 1.03848 0.873571 -0.156648
f 67/58/22 55/59/22 68/56/22

vt 1.04856 -1.53849
vn 0.707107 -0.707107 -1.33108e-16
vt 0.999065 -1.92849
vt 1.04856 -1.92849
f 44/109/27 68/110/27 55/111/27

vt 0.999065 -1.53849
f 68/110/27 44/109/27 43/112/27

vn 0.707107 0.707107 9.94173e-16
v 0.968476 0.943571 -0.156648
f 43/112/28 69/111/28 68/110/28

f 69/111/28 43/112/28 42/109/28

vn -0.707107 0.707107 1.33108e-16
f 42/109/29 56/110/29 69/111/29

f 56/110/29 42/109/29 54/112/29

f 56/103/22 57/53/22 69/54/22

v 2.02872 1.33662 -0.156648
f 70/50/22 69/54/22 57/53/22

v 2.02872 0.900057 -0.156648
f 71/55/22 69/54/22 70/50/22

f 71/55/22 68/56/22 69/54/22

v 1.99048 0.861814 -0.156648
f 72/57/22 68/56/22 71/55/22

f 67/58/22 68/56/22 72/57/22

v 1.99048 0.861814 1.30849
f 73/66/23 67/61/23 72/65/23

v 1.37499 0.861814 1.30849
f 67/61/23 73/66/23 74/64/23

v 2.02872 0.900057 1.30849
f 75/76/24 74/79/24 73/80/24

f 64/84/24 74/79/24 75/76/24

f 64/84/24 65/82/24 74/79/24

vn 0.528885 -0.848693 -3.5448e-16
f 66/63/30 74/64/30 65/62/30

f 74/64/30 66/63/30 67/61/30

v 2.02872 1.33662 1.30849
f 64/84/24 75/76/24 76/77/24

v 2.02872 1.22056 0.920372
vt -1.91097 -0.622444
vn 1 0 6.08865e-16
f 77/113/31 76/74/31 75/68/31

f 76/74/31 77/113/31 70/72/31

v 2.02872 1.22056 0.0503717
vt -1.91097 -0.928782
f 70/72/31 77/113/31 78/114/31

usemtl _3
vt -4.45487 0.388407
v 2.02872 0.950557 0.0503717
vt -4 0
vt -4 0.388407
f 77/115/17 79/116/17 78/117/17

v 2.02872 0.950557 0.920372
vt -4.45487 0
f 79/116/17 77/115/17 80/118/17

usemtl _1
vt -1.8159 -0.622444
f 77/113/31 75/68/31 80/119/31

f 71/67/31 80/119/31 75/68/31

vt -1.8159 -0.928782
f 80/119/31 71/67/31 79/120/31

f 79/120/31 71/67/31 78/114/31

f 78/114/31 71/67/31 70/72/31

vn 0.707107 -0.707107 -1.32353e-16
f 75/68/32 72/65/32 71/67/32

f 72/65/32 75/68/32 73/66/32

v 1.99048 1.37486 1.30849
f 70/46/28 81/47/28 76/48/28

v 1.99048 1.37486 -0.156648
f 81/47/28 70/46/28 82/49/28

v 0.555381 1.37486 -0.156648
f 70/50/22 83/51/22 82/52/22

f 70/50/22 57/53/22 83/51/22

f 64/93/29 83/95/29 57/94/29

v 0.555381 1.37486 1.30849
f 83/95/29 64/93/29 84/96/29

f 64/84/24 76/77/24 84/97/24

vt -1.60245 -0.00167604
f 84/97/24 76/77/24 81/121/24

vn -4.85332e-31 1 7.97108e-16
f 81/47/33 83/95/33 84/96/33

f 83/95/33 81/47/33 82/49/33

vn -1 0 -6.08865e-16
f 57/94/34 62/89/34 64/93/34

f 62/89/34 57/94/34 60/91/34

f 53/97/18 23/77/18 22/121/18

vn 0 1 -0
f 22/47/35 25/95/35 53/96/35

f 25/95/35 22/47/35 24/49/35

v 0.279192 0.976419 -2.30775
vt 0.343108 -0.96689
f 52/92/19 26/94/19 85/122/19

v 0.279192 0.831476 -2.30775
vt 0.292072 -0.96689
f 85/122/19 26/94/19 86/123/19

v 0.279192 0.359317 -2.30775
vt 0.125819 -0.96689
f 86/123/19 26/94/19 87/124/19

v 0.279192 0.216419 -2.30775
vt 0.0755024 -0.96689
f 87/124/19 26/94/19 88/125/19

f 50/91/19 88/125/19 26/94/19

f 50/91/19 51/90/19 88/125/19

v 0.359192 0.216419 -2.30775
vt -2.099 -2.09336
vt -2.45816 -2.06519
vt -2.099 -2.06519
f 89/126/15 51/127/15 88/128/15

v 0.359192 0.216419 -1.28775
vt -2.45816 -2.09336
f 51/127/15 89/126/15 90/129/15

vt 0.0755024 -5.16349
v 0.359192 0.976419 -1.28775
vt 0.343108 -5.52264
vt 0.0755024 -5.52264
f 89/130/17 91/131/17 90/132/17

v 0.359192 0.434063 -2.23389
vt 0.152138 -5.1895
f 91/131/17 89/130/17 92/133/17

v 0.359192 0.359317 -2.30775
vt 0.125819 -5.16349
f 92/133/17 89/130/17 93/134/17

vt 0.0755024 -2.09336
vt 0.125819 -2.06519
vt 0.125819 -2.09336
f 89/135/4 87/136/4 93/137/4

vt 0.0755024 -2.06519
f 87/136/4 89/135/4 88/138/4

v 0.279192 0.434063 -2.23389
vt 1.60115 -2.06519
vn 0 0.702883 -0.711306
vt 1.56415 -2.09336
vt 1.56415 -2.06519
f 94/139/36 93/140/36 87/141/36

vt 1.60115 -2.09336
f 93/140/36 94/139/36 92/142/36

v 0.279192 0.764063 -2.23389
vt 0.268335 -2.06519
vt 0.152138 -2.09336
vt 0.152138 -2.06519
f 95/143/4 92/144/4 94/145/4

v 0.359192 0.764063 -2.23389
vt 0.268335 -2.09336
f 92/144/4 95/143/4 96/146/4

vt -1.38837 -2.06519
vn 0 -0.73861 -0.674133
v 0.359192 0.831476 -2.30775
vt -1.35316 -2.09336
vt -1.38837 -2.09336
f 95/147/37 97/148/37 96/149/37

vt -1.35316 -2.06519
f 97/148/37 95/147/37 86/150/37

vt 0.152138 -0.940883
vt 0.268335 -0.940883
f 86/123/19 94/151/19 95/152/19

f 94/151/19 86/123/19 87/124/19

vt 0.343108 -2.06519
vt 0.292072 -2.09336
vt 0.292072 -2.06519
f 85/153/4 97/154/4 86/155/4

v 0.359192 0.976419 -2.30775
vt 0.343108 -2.09336
f 97/154/4 85/153/4 98/156/4

vt -2.099 -4.06519
vt -2.45816 -4.03702
vt -2.099 -4.03702
f 85/157/35 91/158/35 98/159/35

vt -2.45816 -4.06519
f 91/158/35 85/157/35 52/160/35

vt 0.0755024 -4.06519
vt 0.343108 -4.03702
vt 0.343108 -4.06519
f 51/161/6 91/162/6 52/163/6

vt 0.0755024 -4.03702
f 91/162/6 51/161/6 90/164/6

vt 0.268335 -5.1895
vt 0.343108 -5.16349
f 91/131/17 96/165/17 98/166/17

f 96/165/17 91/131/17 92/133/17

vt 0.292072 -5.16349
f 98/166/17 96/165/17 97/167/17

f 26/53/13 49/105/13 50/106/13

v 0.908201 0.0456789 -2.40179
f 49/105/13 26/53/13 99/104/13

f 99/104/13 26/53/13 32/59/13

v 0.898476 0.873571 -2.40179
f 32/59/13 26/53/13 100/103/13

f 100/103/13 26/53/13 27/54/13

v 0.968476 0.943571 -3.18179
f 101/109/20 100/110/20 27/111/20

v 0.898476 0.873571 -3.18179
f 100/110/20 101/109/20 102/112/20

v 0.279192 1.09867 -3.18179
f 103/53/6 102/103/6 101/54/6

v 0.968476 0.803571 -3.18179
f 103/53/6 104/59/6 102/103/6

v 0.908201 0.0456789 -3.18179
f 103/53/6 105/104/6 104/59/6

v 0.279192 1.78962e-15 -3.18179
f 106/106/6 105/104/6 103/53/6

v 0.834901 1.78962e-15 -3.18179
f 105/104/6 106/106/6 107/105/6

v 0.834901 1.78962e-15 -4.64692
f 106/88/15 108/86/15 107/87/15

v 0.279192 1.78962e-15 -4.64692
f 108/86/15 106/88/15 109/85/15

v 0.279192 1.09867 -4.64692
f 106/91/19 110/93/19 109/89/19

f 110/93/19 106/91/19 103/94/19

vn -0.707107 0.707107 1.74234e-31
v 0.555381 1.37486 -4.64692
f 103/94/38 111/96/38 110/93/38

v 0.555381 1.37486 -3.18179
f 111/96/38 103/94/38 112/95/38

v 2.02872 1.33662 -3.18179
f 103/53/6 113/50/6 112/51/6

f 101/54/6 113/50/6 103/53/6

v 2.02872 0.900057 -3.18179
f 101/54/6 114/55/6 113/50/6

v 1.03848 0.873571 -3.18179
f 115/56/6 114/55/6 101/54/6

v 1.37499 0.861814 -3.18179
f 116/58/6 114/55/6 115/56/6

v 1.99048 0.861814 -3.18179
f 114/55/6 116/58/6 117/57/6

v 1.99048 0.861814 -4.64692
f 116/61/15 118/66/15 117/65/15

v 1.37499 0.861814 -4.64692
f 118/66/15 116/61/15 119/64/15

v 1.27953 0.802325 -3.18179
f 120/63/14 119/64/14 116/61/14

v 1.27953 0.802325 -4.64692
f 119/64/14 120/63/14 121/62/14

vn 0.897723 -0.440561 -0
v 0.908201 0.0456789 -4.64692
f 120/63/39 122/107/39 121/62/39

f 122/107/39 120/63/39 105/108/39

f 104/59/6 105/104/6 120/60/6

f 116/58/6 104/59/6 120/60/6

f 104/59/6 116/58/6 115/56/6

f 29/110/11 104/109/11 115/112/11

f 104/109/11 29/110/11 32/111/11

f 32/99/2 102/100/2 104/101/2

f 102/100/2 32/99/2 100/102/2

f 115/112/12 27/111/12 29/110/12

f 27/111/12 115/112/12 101/109/12

vn 0.528885 -0.848693 -2.62911e-19
f 107/87/40 122/107/40 105/108/40

f 122/107/40 107/87/40 108/86/40

vn -3.04433e-16 -3.98554e-16 -1
f 108/86/41 110/84/41 122/83/41

f 110/84/41 108/86/41 109/85/41

f 122/83/41 110/84/41 121/82/41

f 121/82/41 110/84/41 119/79/41

f 119/79/41 110/84/41 118/80/41

v 2.02872 0.900057 -4.64692
f 118/80/41 110/84/41 123/76/41

v 2.02872 1.33662 -4.64692
f 123/76/41 110/84/41 124/77/41

f 124/77/41 110/84/41 111/97/41

v 1.99048 1.37486 -4.64692
f 124/77/41 111/97/41 125/121/41

v 1.99048 1.37486 -3.18179
f 111/96/35 126/49/35 125/47/35

f 126/49/35 111/96/35 112/95/35

f 112/51/6 113/50/6 126/52/6

f 124/48/12 126/49/12 113/46/12

f 126/49/12 124/48/12 125/47/12

v 2.02872 1.22056 -3.39963
vt -1.91097 -0.924971
f 113/72/17 127/168/17 124/74/17

v 2.02872 0.950557 -3.39963
vt -1.8159 -0.924971
f 127/168/17 113/72/17 128/169/17

f 114/67/17 128/169/17 113/72/17

f 128/169/17 114/67/17 123/68/17

vn 0.707107 -0.707107 -7.55016e-19
f 117/65/42 123/68/42 114/67/42

f 123/68/42 117/65/42 118/66/42

v 2.02872 0.950557 -4.26963
vt -1.8159 -0.618633
f 128/169/17 123/68/17 129/170/17

v 2.02872 1.22056 -4.26963
vt -1.91097 -0.618633
f 129/170/17 123/68/17 130/171/17

f 124/74/17 130/171/17 123/68/17

f 124/74/17 127/168/17 130/171/17

usemtl _3
vn 1 0 6.22337e-16
f 127/117/43 129/118/43 130/115/43

f 129/118/43 127/117/43 128/116/43

usemtl _1
f 99/104/13 32/59/13 33/60/13

f 34/62/39 99/108/39 33/63/39

f 99/108/39 34/62/39 45/107/39

vn 0.528885 -0.848693 3.02579e-19
f 48/86/44 99/108/44 45/107/44

f 99/108/44 48/86/44 49/87/44

f 41/73/17 37/68/17 38/69/17

usemtl _3
vn 1 0 -6.08865e-16
f 39/116/45 41/115/45 38/118/45

f 41/115/45 39/116/45 40/117/45

g Mesh3 NM_AC_Units1 Model

usemtl _1
v 0.610398 1.31985 -6.53082
vt 0.523688 -0.638701
v 0.321193 1.14068 -6.53082
v 0.431227 1.14068 -6.53082
vt 0.434467 -0.638701
f 131/172/6 132/3/6 133/173/6

v 0.555381 1.37486 -6.53082
f 132/3/6 131/172/6 134/1/6

vt 0.54306 -0.630677
v 0.610398 1.37486 -6.53082
f 134/1/6 131/174/6 135/5/6

v 0.708238 1.31985 -6.43125
vt 0.563693 -0.659942
vn -0.713268 0 0.700892
vt 0.529242 -0.624883
f 136/175/46 135/5/46 131/176/46

v 0.708238 1.37486 -6.43125
f 135/5/46 136/175/46 137/6/46

vt 0.57751 -0.665736
v 1.33824 1.37486 -6.43125
f 136/177/6 138/23/6 137/6/6

v 1.33824 1.31985 -6.43125
vt 0.799341 -0.665736
f 138/23/6 136/177/6 139/178/6

usemtl _3
vt -1.40314 -1.64622
v 1.79533 1.31985 -5.53082
vt -1.00573 -1.97538
vt -1.17283 -1.64622
f 136/179/35 140/180/35 139/181/35

v 0.610398 1.31985 -5.53082
vt -1.4389 -1.97538
f 136/179/35 141/182/35 140/180/35

vt -1.4389 -1.60982
f 141/182/35 136/179/35 131/183/35

vt -1.45218 -1.60982
f 133/184/20 141/182/20 131/183/20

v 0.431227 1.14068 -5.53082
vt -1.45218 -1.97538
f 141/182/20 133/184/20 142/185/20

usemtl _1
vt 0.445815 -0.963418
vt 0.445815 -0.611305
f 132/3/35 142/186/35 133/187/35

v 0.321193 1.14068 -5.53082
f 142/186/35 132/3/35 143/2/35

vn -0.707107 0.707107 6.37624e-18
v 0.279192 1.09867 -6.89206
f 132/3/47 144/93/47 143/2/47

v 0.555381 1.37486 -6.89206
f 144/93/47 132/3/47 145/96/47

f 145/96/47 132/3/47 134/1/47

f 135/5/35 145/96/35 134/1/35

v 1.99048 1.37486 -6.89206
f 145/96/35 135/5/35 146/47/35

f 146/47/35 135/5/35 137/6/35

v 1.43956 1.37486 -6.53082
f 146/47/35 137/6/35 147/21/35

f 147/21/35 137/6/35 138/23/35

vt 0.812919 -0.660181
vn 0.700892 0 0.713268
f 139/188/48 147/21/48 138/23/48

v 1.43956 1.31985 -6.53082
vt 0.848597 -0.625122
f 147/21/48 139/188/48 148/189/48

usemtl _3
vt -1.13579 -1.60982
f 139/181/35 140/180/35 148/190/35

v 1.79533 1.31985 -6.53082
vt -1.00573 -1.60982
f 148/190/35 140/180/35 149/191/35

usemtl _1
vt 0.940918 -0.963418
v 1.79533 1.37486 -6.53082
vt 0.940918 -0.611305
f 140/192/19 150/22/19 149/193/19

v 1.79533 1.37486 -5.53082
f 150/22/19 140/192/19 151/20/19

vt 0.96029 -0.944045
v 0.555381 1.37486 -5.53082
f 140/194/4 152/4/4 151/20/4

vt 0.54306 -0.944045
f 152/4/4 140/194/4 141/195/4

vt 0.434467 -0.936021
vt 0.523688 -0.936021
f 142/196/4 152/4/4 141/197/4

f 152/4/4 142/196/4 143/2/4

v 0.555381 1.37486 -5.42692
f 143/2/47 153/95/47 152/4/47

v 0.279192 1.09867 -5.42692
f 143/2/47 154/94/47 153/95/47

f 154/94/47 143/2/47 144/93/47

v 0.279192 1.78962e-15 -5.42692
f 144/93/19 155/91/19 154/94/19

v 0.279192 1.78962e-15 -6.89206
f 155/91/19 144/93/19 156/89/19

vn -1.52216e-16 -1.99277e-16 -1
v 0.834901 1.78962e-15 -6.89206
f 144/84/49 157/86/49 156/85/49

v 0.908201 0.0456789 -6.89206
f 157/86/49 144/84/49 158/83/49

v 1.27953 0.802325 -6.89206
f 158/83/49 144/84/49 159/82/49

v 1.37499 0.861814 -6.89206
f 159/82/49 144/84/49 160/79/49

v 1.99048 0.861814 -6.89206
f 160/79/49 144/84/49 161/80/49

v 2.02872 0.900057 -6.89206
f 161/80/49 144/84/49 162/76/49

v 2.02872 1.33662 -6.89206
f 162/76/49 144/84/49 163/77/49

f 163/77/49 144/84/49 145/97/49

f 163/77/49 145/97/49 146/121/49

v 1.99048 1.37486 -5.42692
f 164/49/12 163/48/12 146/47/12

v 2.02872 1.33662 -5.42692
f 163/48/12 164/49/12 165/46/12

vn -4.58038e-32 1.38236e-31 1
f 153/51/50 165/50/50 164/52/50

f 154/53/50 165/50/50 153/51/50

v 0.968476 0.943571 -5.42692
f 166/54/50 165/50/50 154/53/50

v 2.02872 0.900057 -5.42692
f 166/54/50 167/55/50 165/50/50

v 1.03848 0.873571 -5.42692
f 168/56/50 167/55/50 166/54/50

v 1.37499 0.861814 -5.42692
f 169/58/50 167/55/50 168/56/50

v 1.99048 0.861814 -5.42692
f 167/55/50 169/58/50 170/57/50

f 169/61/15 161/66/15 170/65/15

f 161/66/15 169/61/15 160/64/15

v 1.27953 0.802325 -5.42692
vn 0.528885 -0.848693 -4.57402e-32
f 171/63/51 160/64/51 169/61/51

f 160/64/51 171/63/51 159/62/51

vn 0.897723 -0.440561 -6.68332e-18
f 171/63/52 158/107/52 159/62/52

v 0.908201 0.0456789 -5.42692
f 158/107/52 171/63/52 172/108/52

v 0.968476 0.803571 -5.42692
f 173/59/50 172/104/50 171/60/50

f 154/53/50 172/104/50 173/59/50

f 155/106/50 172/104/50 154/53/50

v 0.834901 1.78962e-15 -5.42692
f 172/104/50 155/106/50 174/105/50

f 155/88/15 157/86/15 174/87/15

f 157/86/15 155/88/15 156/85/15

vn 0.528885 -0.848693 -1.02356e-18
f 158/107/53 174/87/53 157/86/53

f 174/87/53 158/107/53 172/108/53

v 0.898476 0.873571 -5.42692
f 154/53/50 173/59/50 175/103/50

v 0.968476 0.803571 -4.64692
f 176/99/2 175/100/2 173/101/2

v 0.898476 0.873571 -4.64692
f 175/100/2 176/99/2 177/102/2

f 177/110/20 166/109/20 175/112/20

v 0.968476 0.943571 -4.64692
f 166/109/20 177/110/20 178/111/20

f 178/111/12 168/112/12 166/109/12

v 1.03848 0.873571 -4.64692
f 168/112/12 178/111/12 179/110/12

f 179/110/11 173/109/11 168/112/11

f 173/109/11 179/110/11 176/111/11

f 173/59/50 169/58/50 168/56/50

f 169/58/50 173/59/50 171/60/50

f 154/53/50 175/103/50 166/54/50

vn 0.707107 -0.707107 7.56487e-32
f 162/68/54 170/65/54 161/66/54

f 170/65/54 162/68/54 167/67/54

v 2.02872 0.950557 -5.63963
vt -1.8159 -0.926779
f 180/198/17 167/67/17 162/68/17

f 167/67/17 180/198/17 165/72/17

v 2.02872 1.22056 -5.63963
vt -1.91097 -0.926779
f 181/199/17 165/72/17 180/198/17

f 165/72/17 181/199/17 163/74/17

v 2.02872 1.22056 -6.50963
vt -1.91097 -0.620441
f 163/74/17 181/199/17 182/200/17

usemtl _3
v 2.02872 0.950557 -6.50963
f 181/117/43 183/118/43 182/115/43

f 183/118/43 181/117/43 180/116/43

usemtl _1
vt -1.8159 -0.620441
f 180/198/17 162/68/17 183/201/17

f 183/201/17 162/68/17 182/200/17

f 163/74/17 182/200/17 162/68/17

f 164/49/35 152/4/35 153/95/35

f 152/4/35 164/49/35 151/20/35

f 151/20/35 164/49/35 150/22/35

f 146/47/35 150/22/35 164/49/35

f 146/47/35 147/21/35 150/22/35

vt 0.835019 -0.630677
f 148/202/6 150/22/6 147/21/6

vt 0.96029 -0.630677
f 150/22/6 148/202/6 149/203/6

