# Alias OBJ Model File
# Exported from SketchUp, (c) 2000-2012 Trimble Navigation Limited
# File units = meters

mtllib bunker-ramped.mtl

g Mesh1 Bunker__Ramped1 Model

usemtl Color_003
v -1.26905 3 -2.8581
vt 0 118.11
vn 0 0 -1
v 1.73095 3.60956e-16 -2.8581
vt -118.11 1.42109e-14
v -1.26905 3.60956e-16 -2.8581
vt 0 1.42109e-14
f 1/1/1 2/2/1 3/3/1

v 1.73095 2.875 -2.8581
vt -118.11 113.189
f 2/2/1 1/1/1 4/4/1

v 1.73095 3 -2.8581
vt -118.11 118.11
f 4/4/1 1/1/1 5/5/1

vt 0 157.48
vn 0 1 -0
v -1.01905 3 -2.6081
vt 9.84252 147.638
vt 118.11 157.48
f 1/6/2 6/7/2 5/8/2

v -1.01905 3 -0.858102
vt 9.84252 78.7402
f 6/7/2 1/6/2 7/9/2

v -1.26905 3 -0.858102
vt 0 78.7402
f 8/10/2 7/9/2 1/6/2

v -0.769046 3 -0.358102
vt 19.685 59.0551
f 7/9/2 8/10/2 9/11/2

vt -55.6777 118.11
vn -0.707107 2.35848e-29 0.707107
v -0.769046 2.75 -0.358102
vt -27.8388 108.268
vt -27.8388 118.11
f 8/12/3 10/13/3 9/14/3

v -1.26905 2.75 -0.858102
vt -55.6777 108.268
f 10/13/3 8/12/3 11/15/3

vt -157.48 118.11
vn -1 0 -0
vt -78.7402 108.268
vt -78.7402 118.11
f 1/16/4 11/17/4 8/18/4

v -1.26905 2.75 -1.8581
vt -118.11 108.268
f 11/17/4 1/16/4 12/19/4

v -1.26905 1.375 -1.8581
vt -118.11 54.1339
f 12/19/4 1/16/4 13/20/4

vt -157.48 1.42109e-14
f 3/21/4 13/20/4 1/16/4

v -1.26905 1.80478e-16 -0.858102
vt -78.7402 7.10543e-15
f 14/22/4 13/20/4 3/21/4

v -1.26905 1.375 -0.858102
vt -78.7402 54.1339
f 13/20/4 14/22/4 15/23/4

v -0.769046 1.80478e-16 -0.358102
vt -27.8388 7.10543e-15
vn -0.707107 0 0.707107
vt -55.6777 54.1339
vt -55.6777 7.10543e-15
f 16/24/5 15/25/5 14/26/5

v -0.769046 1 -0.358102
vt -27.8388 39.3701
f 17/27/5 15/25/5 16/24/5

v -0.769046 1.375 -0.358102
vt -27.8388 54.1339
f 15/25/5 17/27/5 18/28/5

vt -59.0551 7.10543e-15
vt -59.0551 54.1339
vt -59.0551 39.3701
f 16/29/4 18/30/4 17/31/4

v -0.769046 1.80478e-16 1.1419
vt 0 7.10543e-15
f 19/32/4 18/30/4 16/29/4

v -0.769046 0.875 1.1419
vt 0 34.4488
f 18/30/4 19/32/4 20/33/4

vt 19.685 7.10543e-15
vn 0 0 1
v -0.519046 0.5 1.1419
vt 29.5276 19.685
vt 19.685 34.4488
f 19/34/6 21/35/6 20/36/6

v -0.519046 1.72206e-16 1.1419
vt 29.5276 6.77976e-15
f 21/35/6 19/34/6 22/37/6

v -0.519046 1.72206e-16 -1.6081
vt -29.5276 108.268
vn -3.6245e-17 -1 -4.66536e-17
vt -29.5276 3.6623e-31
vt -19.685 3.6478e-31
f 23/38/7 22/39/7 19/40/7

v -0.519046 9.77588e-17 1.0169
vt -29.5276 4.92126
f 22/39/7 23/38/7 24/41/7

usemtl FrontColor
vt 108.268 6.77976e-15
vn 1 0 -0
v -0.519046 0.75 -0.358102
vt 59.0551 29.5276
vt 4.92126 3.84877e-15
f 23/42/8 25/43/8 24/44/8

v -0.519046 0.875 -0.587269
vt 68.0774 34.4488
f 25/43/8 23/42/8 26/45/8

v -0.519046 0.875 -1.6081
vt 108.268 34.4488
f 26/45/8 23/42/8 27/46/8

usemtl Color_003
v 0.730954 0.875 -1.6081
vt 78.7402 34.4488
vt 29.5276 34.4488
f 23/37/6 28/47/6 27/48/6

v 0.730954 1.72206e-16 -1.6081
vt 78.7402 6.77976e-15
f 28/47/6 23/37/6 29/49/6

vt -118.11 157.48
f 23/38/7 2/50/7 29/17/7

vt 5.15072e-31 157.48
f 23/38/7 3/51/7 2/50/7

vt 2.57536e-31 78.7402
f 3/51/7 23/38/7 14/52/7

vt -19.685 59.0551
f 14/52/7 23/38/7 16/53/7

f 16/53/7 23/38/7 19/40/7

v 1.73095 0 -1.6081
f 29/17/7 2/50/7 30/19/7

vt 157.48 1.42109e-14
v 1.73095 1.875 -1.6081
vt 108.268 73.8189
vt 108.268 0
f 2/54/8 31/55/8 30/56/8

v 1.73095 2 -1.7331
vt 113.189 78.7402
f 31/55/8 2/54/8 32/57/8

v 1.73095 2 -1.8581
vt 118.11 78.7402
f 32/57/8 2/54/8 33/58/8

v 1.73095 2.125 -1.8581
vt 118.11 83.6614
f 33/58/8 2/54/8 34/59/8

v 1.73095 2.875 -2.6081
vt 147.638 113.189
f 34/59/8 2/54/8 35/60/8

vt 157.48 113.189
f 35/60/8 2/54/8 4/61/8

v 1.73095 3 -2.6081
vt 147.638 118.11
f 4/61/8 36/62/8 35/60/8

vt 157.48 118.11
f 36/62/8 4/61/8 5/63/8

v 2.48095 2.875 -2.8581
vt -147.638 113.189
f 5/5/1 37/64/1 4/4/1

v 2.48095 3 -2.8581
vt -147.638 118.11
f 37/64/1 5/5/1 38/65/1

v 2.48095 3 -2.6081
vt 147.638 147.638
vt 147.638 157.48
f 5/8/2 39/66/2 38/67/2

vt 118.11 147.638
f 39/66/2 5/8/2 36/68/2

v 1.48095 3 -2.6081
vt 108.268 147.638
f 5/8/2 40/69/2 36/68/2

f 5/8/2 6/7/2 40/69/2

usemtl Color_006
v 0.480954 3 -1.8581
vt 68.8976 118.11
f 6/7/2 41/70/2 40/69/2

v -0.519046 3 -0.358102
vt 29.5276 59.0551
f 6/7/2 42/71/2 41/70/2

f 42/71/2 6/7/2 7/9/2

usemtl Color_003
f 7/9/2 9/11/2 42/71/2

v -0.519046 3 0.891898
vt 29.5276 9.84252
f 42/71/2 9/11/2 43/72/2

v -0.769046 3 1.1419
vt 19.685 0
f 44/73/2 43/72/2 9/11/2

v 2.23095 3 1.1419
vt 137.795 0
f 43/72/2 44/73/2 45/74/2

v -0.769046 2.75 1.1419
vt 19.685 108.268
vt 137.795 118.11
vt 19.685 118.11
f 46/75/6 45/76/6 44/77/6

v 0.480954 2.75 1.1419
vt 68.8976 108.268
f 47/78/6 45/76/6 46/75/6

v 0.480954 0.875 1.1419
vt 68.8976 34.4488
f 48/79/6 45/76/6 47/78/6

v 0.480954 0.5 1.1419
vt 68.8976 19.685
f 49/80/6 45/76/6 48/79/6

v 0.480954 9.77588e-17 1.1419
vt 68.8976 3.84877e-15
f 50/81/6 45/76/6 49/80/6

v 2.23095 0 1.1419
f 45/76/6 50/81/6 51/74/6

vt -68.8976 4.37596e-31
vn -2.44102e-17 -1 -7.91229e-17
v 0.480954 0 -0.608102
vt -68.8976 68.8976
vt -137.795 2.66139e-31
f 50/82/9 52/83/9 51/84/9

v 0.480954 9.77588e-17 1.0169
vt -68.8976 4.92126
f 52/83/9 50/82/9 53/85/9

vt -29.5276 -2.34624e-30
vn -3.72236e-17 -1 2.97788e-16
vt -68.8976 -1.90983e-30
f 22/86/10 53/85/10 50/87/10

f 53/85/10 22/86/10 24/41/10

usemtl FrontColor
vt 0 19.685
vt 0 6.77976e-15
f 24/44/8 21/88/8 22/89/8

v -0.519046 0.875 0.0168978
vt 44.2913 34.4488
f 21/88/8 24/44/8 54/90/8

f 54/90/8 24/44/8 25/43/8

usemtl Color_003
vt -29.5276 65.9836
vn 2.14634e-17 -0.877896 -0.478852
v 0.480954 0.875 -0.587269
vt -68.8976 76.2608
vt -29.5276 4.32035
f 25/91/11 55/92/11 24/93/11

vt -29.5276 76.2608
f 55/92/11 25/91/11 26/94/11

usemtl FrontColor
v -0.519046 0.875 -0.358102
vt 59.0551 34.4488
f 26/45/8 56/95/8 25/43/8

v 0.480954 0.875 -0.358102
vt 68.8976 59.0551
vt 29.5276 68.0774
f 57/96/2 26/97/2 56/71/2

vt 68.8976 68.0774
f 26/97/2 57/96/2 55/98/2

vt -59.0551 34.4488
vn -1 -2.66478e-14 -1.49535e-14
v 0.480954 1 -0.608102
vt -68.8976 39.3701
vt -68.0774 34.4488
f 57/99/12 58/100/12 55/101/12

v 0.480954 1 -0.358102
f 58/100/12 57/99/12 59/31/12

v 0.480954 0.875 0.0168978
vt -44.2913 34.4488
f 57/99/4 60/102/4 59/31/4

v 0.480954 0.75 -0.358102
vt -59.0551 29.5276
f 61/103/4 60/102/4 57/99/4

vt -4.92126 3.84877e-15
f 53/104/4 60/102/4 61/103/4

vt 0 3.84877e-15
f 50/105/4 60/102/4 53/104/4

f 60/102/4 50/105/4 49/88/4

usemtl Color_003
f 49/80/6 22/37/6 50/81/6

f 22/37/6 49/80/6 21/35/6

vt 68.8976 6.22496
vn 5.79853e-18 0.948683 0.316228
vt 29.5276 52.9121
vt 29.5276 6.22496
f 49/106/13 54/107/13 21/108/13

v -0.519046 1 -0.358102
vt 29.5276 68.4745
f 54/107/13 49/106/13 62/109/13

vt 68.8976 68.4745
f 62/109/13 49/106/13 59/110/13

vt 68.8976 52.9121
f 59/110/13 49/106/13 60/111/13

vn -1 3.08016e-14 1.02672e-14
vt 7.07385e-13 19.685
vt 7.07385e-13 34.4488
f 60/102/14 49/112/14 48/113/14

vt 2.56582e-13 34.4488
vn -1 -2.08709e-15 3.72411e-15
v 0.480954 2.75 -0.608102
vt -68.8976 108.268
f 48/114/15 63/115/15 60/102/15

vt 2.56582e-13 108.268
f 63/115/15 48/114/15 47/116/15

vt -68.8976 -3.02071e-15
vn -4.98305e-17 -1 2.79004e-17
v 0.230954 2.75 -1.8581
vt -59.0551 118.11
f 47/117/16 64/118/16 63/83/16

vt -19.685 -3.02071e-15
f 46/119/16 64/118/16 47/117/16

v 0.230954 2.75 -2.3581
vt -59.0551 137.795
f 46/119/16 65/120/16 64/118/16

f 10/53/16 65/120/16 46/119/16

v -0.769046 2.75 -1.8581
vt -19.685 118.11
f 66/121/16 65/120/16 10/53/16

v -0.769046 2.75 -2.3581
vt -19.685 137.795
f 65/120/16 66/121/16 67/122/16

vt 118.11 108.268
vn 1 -1.65008e-15 -0
v -0.769046 1 -2.3581
vt 137.795 39.3701
vt 137.795 108.268
f 66/123/17 68/124/17 67/125/17

v -0.769046 1 -1.8581
vt 118.11 39.3701
f 68/124/17 66/123/17 69/126/17

v -1.01905 1 -1.8581
vt 9.84252 39.3701
vt 19.685 39.3701
f 66/75/6 70/127/6 69/128/6

v -1.01905 1.375 -1.8581
vt 9.84252 54.1339
f 70/127/6 66/75/6 71/129/6

vt 0 54.1339
f 71/129/6 66/75/6 13/130/6

vt 0 108.268
f 13/130/6 66/75/6 12/131/6

vt 5.39504e-15 78.7402
vt 5.39504e-15 118.11
f 66/121/16 11/132/16 12/133/16

f 11/132/16 66/121/16 10/53/16

v -1.01905 1.375 -0.858102
vt 9.84252 118.11
f 13/1/2 72/9/2 71/134/2

f 72/9/2 13/1/2 15/10/2

f 18/11/2 72/9/2 15/10/2

v -0.519046 1.375 -0.358102
f 72/9/2 18/11/2 73/71/2

vt 29.5276 54.1339
vt 19.685 54.1339
f 17/128/6 73/135/6 18/136/6

vt 29.5276 39.3701
f 73/135/6 17/128/6 62/137/6

v -1.01905 1 -0.858102
vt 48.718 39.3701
vn 0.707107 0 -0.707107
vt 20.8791 54.1339
vt 20.8791 39.3701
f 74/138/18 73/139/18 62/140/18

vt 48.718 54.1339
f 73/139/18 74/138/18 72/141/18

vt 78.7402 54.1339
vt 78.7402 39.3701
f 70/126/8 72/142/8 74/143/8

vt 118.11 54.1339
f 72/142/8 70/126/8 71/144/8

vn -2.40539e-17 1 4.00569e-17
f 62/71/19 70/134/19 74/9/19

f 70/134/19 62/71/19 69/77/19

vt 19.685 137.795
f 69/77/19 62/71/19 68/145/19

v 0.230954 1 -2.3581
vt 59.0551 137.795
f 68/145/19 62/71/19 75/146/19

v 0.230954 1 -1.8581
vt 59.0551 118.11
f 75/146/19 62/71/19 76/147/19

f 59/96/19 76/147/19 62/71/19

vt 68.8976 68.8976
f 76/147/19 59/96/19 58/148/19

f 59/31/15 63/115/15 58/100/15

f 60/102/15 63/115/15 59/31/15

usemtl Color_006
v 1.73095 2 -0.608102
vt -118.11 78.7402
f 77/149/1 58/100/1 63/115/1

v 0.730954 1 -0.608102
vt -78.7402 39.3701
f 58/100/1 77/149/1 78/150/1

v 1.73095 2 -1.6081
vt -108.268 139.194
vn -0.707107 0.707107 3.00212e-16
vt -68.8976 83.5165
vt -68.8976 139.194
f 79/151/20 78/152/20 77/153/20

v 0.730954 1 -1.6081
vt -108.268 83.5165
f 78/152/20 79/151/20 80/154/20

v 1.60595 1.875 -1.6081
vt -108.268 132.235
f 80/154/20 79/151/20 81/155/20

v 0.480954 2.75 -1.6081
vt 113.189 73.8189
f 82/78/6 81/156/6 79/58/6

v 0.480954 1 -1.6081
vt 68.8976 39.3701
f 83/157/6 81/156/6 82/78/6

f 81/156/6 83/157/6 80/143/6

usemtl Color_003
vt 78.7402 68.8976
vt 78.7402 108.268
f 83/78/19 78/158/19 80/159/19

f 78/158/19 83/78/19 58/148/19

v 0.480954 1 -1.8581
f 84/70/19 58/148/19 83/78/19

f 76/147/19 58/148/19 84/70/19

v 0.480954 2.75 -1.8581
vt 59.0551 39.3701
f 85/78/6 76/160/6 84/157/6

vt 59.0551 108.268
f 76/160/6 85/78/6 64/161/6

vt -68.8976 118.11
f 85/162/16 63/83/16 64/118/16

f 63/83/16 85/162/16 82/115/16

vt -108.268 39.3701
vt -108.268 108.268
f 85/19/4 83/163/4 82/164/4

vt -118.11 39.3701
f 83/163/4 85/19/4 84/165/4

v 0.730954 2.75 -0.608102
vt -78.7402 68.8976
f 63/83/16 82/115/16 86/166/16

v 0.730954 2.75 -1.6081
f 86/166/16 82/115/16 87/17/16

usemtl Color_006
f 82/78/6 79/58/6 87/159/6

v 1.73095 3.25 -1.6081
vt 118.11 127.953
f 87/159/6 79/58/6 88/167/6

v 1.73095 2.25 -1.8581
vt 118.11 88.5827
vt 108.268 127.953
vt 108.268 78.7402
f 89/168/8 88/169/8 79/170/8

v 1.73095 3.25 -2.3581
vt 137.795 127.953
f 88/169/8 89/168/8 90/171/8

f 90/171/8 89/168/8 36/62/8

vt 118.11 146.154
vn 7.30952e-17 0.707107 0.707107
v 2.48095 2 -1.6081
vt 147.638 132.235
vt 118.11 187.912
f 89/172/21 91/173/21 36/174/21

vt 118.11 132.235
f 91/173/21 89/172/21 79/175/21

usemtl Color_003
f 32/57/8 89/168/8 79/170/8

f 89/168/8 32/57/8 34/59/8

f 34/59/8 32/57/8 33/58/8

vt -118.11 142.674
vn 3.7037e-17 -0.707107 -0.707107
v 2.48095 2.875 -2.6081
vt -147.638 184.432
vt -118.11 135.714
f 34/176/22 92/177/22 32/178/22

vt -118.11 184.432
f 92/177/22 34/176/22 35/179/22

usemtl FrontColor
f 35/60/8 89/168/8 34/59/8

f 89/168/8 35/60/8 36/62/8

usemtl Color_003
f 36/5/1 92/64/1 35/4/1

f 92/64/1 36/5/1 39/65/1

usemtl Color_006
vt 147.638 187.912
f 36/174/21 91/173/21 39/180/21

vt -108.268 78.7402
v 2.48095 3.25 -2.3581
vt -137.795 127.953
f 91/181/4 93/182/4 39/65/4

v 2.48095 2 -0.858102
vt -78.7402 78.7402
f 94/183/4 93/182/4 91/181/4

v 2.48095 3.25 -0.858102
vt -78.7402 127.953
f 93/182/4 94/183/4 95/184/4

v 2.23095 2 -0.608102
vt -146.154 78.7402
vn -0.707107 0 -0.707107
vt -160.073 127.953
vt -160.073 78.7402
f 96/185/23 95/186/23 94/187/23

v 2.23095 3.25 -0.608102
vt -146.154 127.953
f 95/186/23 96/185/23 97/188/23

vt -137.795 78.7402
f 96/189/1 86/17/1 97/182/1

f 96/189/1 63/115/1 86/17/1

f 77/149/1 63/115/1 96/189/1

v 2.23095 1.875 -0.608102
vt -137.795 73.8189
f 98/190/1 77/149/1 96/189/1

v 1.73095 1.875 -0.608102
vt -118.11 73.8189
f 77/149/1 98/190/1 99/191/1

usemtl Color_003
vt -118.11 68.8976
vn 0 -1 -0
v 2.48095 1.875 -1.6081
vt -147.638 108.268
vt -137.795 68.8976
f 99/192/24 100/193/24 98/194/24

f 100/193/24 99/192/24 31/19/24

usemtl Color_006
vt 68.8976 78.7402
vt 68.8976 73.8189
f 31/55/8 77/195/8 99/196/8

f 77/195/8 31/55/8 79/170/8

vt 118.11 73.8189
vt 147.638 78.7402
f 31/197/6 91/198/6 79/58/6

vt 147.638 73.8189
f 91/198/6 31/197/6 100/199/6

usemtl Color_003
vt -118.11 128.755
vt -147.638 128.755
f 31/200/22 92/177/22 100/201/22

f 32/178/22 92/177/22 31/200/22

usemtl FrontColor
f 32/57/8 79/170/8 31/55/8

f 79/58/6 81/156/6 31/197/6

f 80/143/6 31/197/6 81/156/6

f 31/197/6 80/143/6 28/47/6

vt 108.268 39.3701
f 78/157/8 28/46/8 80/202/8

v 0.730954 0.875 -0.608102
f 28/46/8 78/157/8 101/79/8

vt -78.7402 34.4488
f 78/150/1 99/191/1 101/203/1

f 99/191/1 78/150/1 77/149/1

usemtl Color_003
vt 108.268 80.0367
vn 0.707107 -0.707107 -0
vt 68.8976 135.714
vt 68.8976 80.0367
f 28/204/25 99/205/25 101/206/25

vt 108.268 135.714
f 99/205/25 28/204/25 31/207/25

f 29/49/6 31/197/6 28/47/6

vt 118.11 0
f 31/197/6 29/49/6 30/208/6

f 98/190/1 101/203/1 99/191/1

v 2.23095 0 -0.608102
vt -137.795 0
f 102/209/1 101/203/1 98/190/1

v 0.480954 0.875 -0.608102
vt -68.8976 34.4488
f 102/209/1 103/210/1 101/203/1

vt -68.8976 0
f 103/210/1 102/209/1 52/211/1

f 51/84/9 52/83/9 102/194/9

v 2.23095 0 -0.358102
vt -137.795 59.0551
f 51/84/9 102/194/9 104/212/9

v 2.48095 0 -0.858102
vt -147.638 78.7402
f 105/213/9 104/212/9 102/194/9

v 2.73095 0 -0.858102
vt -157.48 78.7402
f 104/212/9 105/213/9 106/214/9

v 2.73095 3.60956e-16 -2.8581
vt -157.48 157.48
f 106/214/9 105/213/9 107/215/9

v 2.48095 3.60956e-16 -2.8581
vt -147.638 157.48
f 107/215/9 105/213/9 108/216/9

vt -78.7402 0
vt -108.268 73.8189
f 105/217/4 100/218/4 108/21/4

v 2.48095 1.875 -0.858102
vt -78.7402 73.8189
f 100/218/4 105/217/4 109/219/4

vt -146.154 0
vt -160.073 73.8189
vt -160.073 0
f 102/220/23 109/221/23 105/222/23

vt -146.154 73.8189
f 109/221/23 102/220/23 98/223/23

f 98/194/24 100/193/24 109/213/24

usemtl Color_006
f 109/219/4 91/181/4 100/218/4

f 91/181/4 109/219/4 94/183/4

vn -0.707107 -3.77357e-28 -0.707107
f 98/223/26 94/187/26 109/221/26

f 94/187/26 98/223/26 96/185/26

vt 147.638 108.268
vt 137.795 68.8976
f 91/224/2 96/225/2 94/198/2

f 79/123/2 96/225/2 91/224/2

vt 118.11 68.8976
f 96/225/2 79/123/2 77/226/2

usemtl FrontColor
v 2.48095 2 -1.7331
vt -113.189 78.7402
f 110/227/4 100/218/4 91/181/4

usemtl Color_003
f 108/21/4 100/218/4 110/227/4

vt -147.638 135.714
f 100/201/22 92/177/22 110/228/22

f 108/21/4 110/227/4 92/64/4

usemtl FrontColor
f 110/227/4 39/65/4 92/64/4

f 39/65/4 110/227/4 91/181/4

usemtl Color_003
f 38/16/4 92/64/4 39/65/4

vt -157.48 113.189
f 92/64/4 38/16/4 37/229/4

v 2.73095 3 -2.8581
f 111/16/1 37/64/1 38/65/1

f 107/21/1 37/64/1 111/16/1

vt -147.638 1.42109e-14
f 37/64/1 107/21/1 108/230/1

f 108/21/4 92/64/4 37/229/4

vt -118.11 147.638
vt -147.638 147.638
f 35/231/24 37/216/24 92/232/24

f 37/216/24 35/231/24 4/50/24

usemtl Color_006
v 2.73095 3 -2.6081
f 112/62/8 107/54/8 111/63/8

v 2.73095 3.25 -2.3581
f 113/171/8 107/54/8 112/62/8

v 2.73095 3.25 -0.858102
vt 78.7402 127.953
f 114/233/8 107/54/8 113/171/8

v 2.73095 1.875 -0.858102
vt 78.7402 73.8189
f 115/234/8 107/54/8 114/233/8

vt 78.7402 0
f 107/54/8 115/234/8 106/235/8

vt 167.033 127.953
vn 0.707107 0 0.707107
vt 167.033 0
vt 167.033 73.8189
f 114/236/27 106/237/27 115/238/27

v 2.23095 3.25 -0.358102
vt 139.194 127.953
f 116/239/27 106/237/27 114/236/27

v 2.23095 3 -0.358102
vt 139.194 118.11
f 117/240/27 106/237/27 116/239/27

v 2.23095 1.875 -0.358102
vt 139.194 73.8189
f 118/241/27 106/237/27 117/240/27

vt 139.194 0
f 106/237/27 118/241/27 104/242/27

usemtl Color_003
vt 59.0551 0
vt 59.0551 73.8189
f 117/147/8 104/243/8 118/244/8

f 45/1/8 104/243/8 117/147/8

vt 0 0
f 104/243/8 45/1/8 51/245/8

v 1.98095 3 -0.358102
vt 127.953 59.0551
vt 137.795 59.0551
f 119/246/2 45/74/2 117/247/2

v 1.98095 3 0.891898
vt 127.953 9.84252
f 120/248/2 45/74/2 119/246/2

f 43/72/2 45/74/2 120/248/2

usemtl Color_006
f 120/248/2 42/71/2 43/72/2

v 0.480954 3 -0.358102
f 42/71/2 120/248/2 121/96/2

f 121/96/2 120/248/2 119/246/2

vt 127.953 118.11
f 119/249/6 116/171/6 121/70/6

f 116/171/6 119/249/6 117/76/6

v 0.480954 3.25 -0.358102
vt 68.8976 127.953
f 121/70/6 116/171/6 122/250/6

v 0.730954 3.25 -0.608102
f 123/158/2 122/96/2 116/247/2

v 0.480954 3.25 -1.8581
f 122/96/2 123/158/2 124/70/2

v 0.730954 3.25 -1.6081
f 125/159/2 124/70/2 123/158/2

v 1.48095 3.25 -1.8581
vt 108.268 118.11
f 124/70/2 125/159/2 126/251/2

f 126/251/2 125/159/2 88/123/2

f 87/159/6 88/167/6 125/233/6

vn 1 1.15506e-14 -2.06579e-31
vt 108.268 108.268
f 123/250/28 87/252/28 125/169/28

f 87/252/28 123/250/28 86/78/28

f 97/182/1 86/17/1 123/184/1

f 123/158/2 116/247/2 97/225/2

vt 157.48 78.7402
f 97/225/2 116/247/2 114/253/2

f 97/225/2 114/253/2 95/198/2

vt 147.638 137.795
f 95/198/2 114/253/2 93/254/2

vt 157.48 137.795
f 93/254/2 114/253/2 113/255/2

usemtl Color_003
vt -157.48 -6.95971
vn 0 0.707107 -0.707107
vt -147.638 -20.8791
vt -147.638 -6.95971
f 113/256/29 39/257/29 93/258/29

vt -157.48 -20.8791
f 39/257/29 113/256/29 112/259/29

vt 157.48 147.638
f 112/260/2 38/67/2 39/66/2

vt 157.48 157.48
f 38/67/2 112/260/2 111/261/2

usemtl Color_006
v 1.48095 3.25 -2.3581
vt 108.268 137.795
f 126/251/2 88/123/2 127/262/2

vt 118.11 137.795
f 127/262/2 88/123/2 90/263/2

usemtl Color_003
vt -118.11 -6.95971
vt -108.268 -20.8791
vt -108.268 -6.95971
f 90/264/29 40/265/29 127/266/29

vt -118.11 -20.8791
f 40/265/29 90/264/29 36/267/29

usemtl Color_006
v 1.48095 3 -2.3581
vt -137.795 118.11
f 128/268/4 127/182/4 40/65/4

v 1.48095 3 -1.8581
f 129/5/4 127/182/4 128/268/4

vt -118.11 127.953
f 127/182/4 129/5/4 126/269/4

vt -108.268 118.11
vt -68.8976 127.953
vt -108.268 127.953
f 129/270/1 124/271/1 126/272/1

f 124/271/1 129/270/1 41/162/1

f 40/69/2 41/70/2 129/251/2

f 40/69/2 129/251/2 128/262/2

f 121/118/4 124/269/4 41/5/4

vt -59.0551 127.953
f 124/269/4 121/118/4 122/273/4

f 41/70/2 42/71/2 121/96/2

usemtl Color_003
vt -68.8976 -5.74259e-13
vn -1 -8.33496e-15 -7.53017e-15
f 52/274/30 55/101/30 103/210/30

f 52/274/30 61/103/30 55/101/30

vt -4.92126 -5.7041e-13
f 61/103/30 52/274/30 53/275/30

vt -68.8976 4.32035
vt -68.8976 65.9836
f 53/276/11 55/92/11 61/277/11

f 24/93/11 55/92/11 53/276/11

usemtl FrontColor
f 55/101/4 61/103/4 57/99/4

usemtl Color_003
vt -68.8976 68.0774
v 0.480954 0.875 -1.6081
f 55/278/24 130/115/24 103/83/24

vt -29.5276 68.0774
f 26/279/24 130/115/24 55/278/24

f 130/115/24 26/279/24 27/38/24

f 27/48/6 28/47/6 130/79/6

usemtl FrontColor
f 80/143/6 130/79/6 28/47/6

f 130/79/6 80/143/6 83/157/6

usemtl Color_003
f 103/83/24 130/115/24 28/17/24

f 103/83/24 28/17/24 101/166/24

usemtl FrontColor
f 58/100/1 101/203/1 103/210/1

f 101/203/1 58/100/1 78/150/1

f 55/101/12 58/100/12 103/210/12

usemtl Color_003
vt -137.795 108.268
vn -1 -1.65008e-15 -0
f 65/280/31 76/165/31 64/19/31

vt -137.795 39.3701
f 76/165/31 65/280/31 75/281/31

f 65/161/6 68/128/6 75/160/6

f 68/128/6 65/161/6 67/75/6

usemtl FrontColor
f 56/48/6 59/157/6 62/137/6

f 59/157/6 56/48/6 57/79/6

f 62/160/8 54/90/8 56/95/8

usemtl Color_003
vt 59.0551 54.1339
f 73/282/8 54/90/8 62/160/8

v -0.519046 0.875 1.1419
f 54/90/8 73/282/8 131/33/8

vt 19.685 73.1432
vn 0 0.948683 0.316228
vt 29.5276 10.8937
vt 29.5276 73.1432
f 18/283/32 131/284/32 73/285/32

vt 19.685 10.8937
f 131/284/32 18/283/32 20/286/32

f 20/36/6 21/35/6 131/48/6

f 54/90/8 131/33/8 21/88/8

usemtl FrontColor
f 54/90/8 25/43/8 56/95/8

usemtl Color_003
vt -59.0551 108.268
f 46/131/4 9/118/4 10/287/4

f 9/118/4 46/131/4 44/1/4

