# Alias OBJ Model File
# Exported from SketchUp, (c) 2000-2012 Trimble Navigation Limited
# File units = meters

mtllib bunker-box.mtl

g Mesh1 Bunker__Box1 Model

usemtl Color_003
v -0.0142624 2 -0.00386624
vt 55.6777 78.7402
vn -0.707107 0 0.707107
v -0.226394 1.7 -0.215998
vt 43.8667 66.9291
v -0.0142624 0 -0.00386624
vt 55.6777 0
f 1/1/1 2/2/1 3/3/1

v -2.01426 2 -2.00387
vt -55.6777 78.7402
f 2/2/1 1/1/1 4/4/1

vt 78.7402 0
vn 0 1 -0
v -1.40588 2 -2.10259
vt 23.952 82.627
vt 0 78.7402
f 1/5/2 5/6/2 4/7/2

v 0.192844 2 -0.503866
vt 86.894 19.685
f 5/6/2 1/5/2 6/8/2

v 1.98574 2 -0.00386624
vt 157.48 0
f 6/8/2 1/5/2 7/9/2

vt 78.7402 78.7402
vn 0 0 1
v 0.285738 1.8 -0.00386624
vt 90.5512 70.8661
vt 157.48 78.7402
f 1/10/3 8/11/3 7/12/3

v 0.285738 0.2 -0.00386624
vt 90.5512 7.87402
f 1/10/3 9/13/3 8/11/3

f 3/5/3 9/13/3 1/10/3

v 1.68574 0.2 -0.00386624
vt 145.669 7.87402
f 9/13/3 3/5/3 10/14/3

v 1.98574 0 -0.00386624
f 11/9/3 10/14/3 3/5/3

f 10/14/3 11/9/3 7/12/3

vt 111.355 0
vn 0.707107 0 0.707107
v 2.19787 0.3 -0.215998
vt 123.166 11.811
vt 111.355 78.7402
f 11/15/4 12/16/4 7/17/4

v 3.98574 0 -2.00387
vt 222.711 0
f 12/16/4 11/15/4 13/18/4

vt -157.48 1.13136e-47
vn 2.99952e-33 -1 2.39508e-17
v 2.98574 0 -4.00387
vt -196.85 157.48
vt -236.22 78.7402
f 11/19/5 14/20/5 13/21/5

vt -78.7402 5.65678e-48
f 3/22/5 14/20/5 11/19/5

v -1.01426 0 -4.00387
vt -39.3701 157.48
f 3/22/5 15/23/5 14/20/5

v -2.01426 0 -2.00387
f 15/23/5 3/22/5 16/7/5

v -0.226394 0.3 -0.215998
vt 43.8667 11.811
vt -55.6777 0
f 3/3/1 17/24/1 16/25/1

f 17/24/1 3/3/1 2/2/1

usemtl Translucent_Glass_Tinted
v -1.80213 1.7 -1.79173
vt 118.962 2.78871
vt 122.617 0.492126
vt 122.617 2.78871
f 18/26/1 17/27/1 2/28/1

v -1.80213 0.3 -1.79173
vt 118.962 0.492126
f 17/27/1 18/26/1 19/29/1

usemtl Color_003
vt -43.8667 66.9291
vt -43.8667 11.811
f 18/30/1 4/4/1 19/31/1

f 2/2/1 4/4/1 18/30/1

vt -43.8667 -19.868
vn 0.316228 0.894427 -0.316228
v -1.63903 1.6 -1.91148
vt 42.6598 -28.6714
vt 43.8667 -19.868
f 2/32/6 20/33/6 18/34/6

v -0.063297 1.6 -0.335744
vt -45.0735 -28.6714
f 20/33/6 2/32/6 21/35/6

vt 61.681 66.9291
vn 0.591815 7.99817e-19 0.806074
v -0.063297 0.325 -0.335744
vt 69.6469 12.7953
vt 69.6469 62.9921
f 2/36/7 22/37/7 21/38/7

vt 61.681 11.811
f 22/37/7 2/36/7 17/39/7

vt -43.8667 56.7127
vn 0.0877058 -0.992278 -0.0877058
v -1.63903 0.325 -1.91148
vt 42.6598 64.648
vt -45.0735 64.648
f 17/40/8 23/41/8 22/42/8

vt 43.8667 56.7127
f 23/41/8 17/40/8 19/43/8

f 16/25/1 17/24/1 19/31/1

v -1.63903 0.2 -1.91148
vt -42.6598 -53.321
vn -0.316228 -0.894427 0.316228
vt 43.8667 -44.5176
vt -43.8667 -44.5176
f 24/44/9 17/45/9 19/46/9

v -0.063297 0.2 -0.335744
vt 45.0735 -53.321
f 17/45/9 24/44/9 25/47/9

vt 42.6598 7.87402
vn 0.707107 -5.01972e-16 -0.707107
vt -45.0735 12.7953
vt -45.0735 7.87402
f 24/48/10 22/49/10 25/50/10

vt 42.6598 12.7953
f 22/49/10 24/48/10 23/51/10

v -1.77091 0.2 -2.04336
vt 50.0024 7.87402
f 23/51/10 24/48/10 26/52/10

v -1.70121 0.2 -2.18275
vt -12.3248 85.7829
vn 1.0027e-32 -1 3.03278e-17
vt -14.7728 75.1029
vt -9.58079 80.2949
f 27/53/11 24/54/11 26/55/11

v -0.969541 0.2 -3.6461
vt -41.1308 143.395
f 24/54/11 27/53/11 28/56/11

v -1.70121 1.8 -2.18275
vt 82.2384 70.8661
vn 0.894427 1.36281e-30 0.447214
vt 82.2384 7.87402
vt 146.65 7.87402
f 29/57/12 27/58/12 28/59/12

v -1.77091 1.8 -2.04336
vt 76.1026 70.8661
f 30/60/12 27/58/12 29/57/12

vt 76.1026 7.87402
f 27/58/12 30/60/12 26/61/12

vt 50.0024 70.8661
vt 42.6598 62.9921
f 30/62/10 20/63/10 26/52/10

vt -45.0735 62.9921
f 30/62/10 21/64/10 20/63/10

v 0.0685803 1.8 -0.203866
vt -52.4162 70.8661
f 31/65/10 21/64/10 30/62/10

f 31/65/10 25/50/10 21/64/10

v 0.0685803 0.2 -0.203866
vt -52.4162 7.87402
f 25/50/10 31/65/10 32/66/10

vt -82.0017 70.8661
vn 0 0 -1
v 0.285738 0.2 -0.203866
vt -90.5512 7.87402
vt -82.0017 7.87402
f 31/67/13 33/68/13 32/69/13

v 0.285738 1.8 -0.203866
vt -90.5512 70.8661
f 33/68/13 31/67/13 34/70/13

vn 0 -1 -0
v 0.192844 1.8 -0.503866
vt -86.894 19.685
f 31/69/14 35/71/14 34/68/14

v -1.40588 1.8 -2.10259
vt -23.952 82.627
f 31/69/14 36/72/14 35/71/14

f 31/69/14 29/53/14 36/72/14

f 29/53/14 31/69/14 30/55/14

v -0.969541 1.8 -3.6461
f 37/56/14 36/72/14 29/53/14

v -0.705245 1.8 -3.50387
vt -51.5361 137.795
f 36/72/14 37/56/14 38/73/14

v -0.890656 1.8 -3.80387
vt -44.2365 149.606
f 38/73/14 37/56/14 39/74/14

vt 146.65 70.8661
v -0.890656 0.2 -3.80387
vt 153.595 7.87402
vt 153.595 70.8661
f 37/75/12 40/76/12 39/77/12

f 37/75/12 28/59/12 40/76/12

f 29/57/12 28/59/12 37/75/12

vt -76.8097 13.066
f 25/78/11 28/56/11 40/74/11

f 24/54/11 28/56/11 25/78/11

v 2.86213 0.2 -3.80387
vt -191.984 149.606
f 25/78/11 40/74/11 41/79/11

vt 191.984 7.87402
v 2.46074 0.5 -3.80387
vt 176.181 19.685
vt 44.2365 7.87402
f 41/80/3 42/81/3 40/82/3

v 2.86213 1.8 -3.80387
vt 191.984 70.8661
f 42/81/3 41/80/3 43/83/3

v 2.94102 0.2 -3.6461
vt -41.0095 7.87402
vn -0.894427 9.32448e-32 0.447214
vt -47.9541 70.8661
vt -47.9541 7.87402
f 44/84/15 43/85/15 41/86/15

v 2.94102 1.8 -3.6461
vt -41.0095 70.8661
f 44/84/15 45/87/15 43/85/15

v 3.67269 0.2 -2.18275
vt 23.4026 7.87402
f 46/88/15 45/87/15 44/84/15

v 3.67269 1.8 -2.18275
vt 23.4026 70.8661
f 46/88/15 47/89/15 45/87/15

v 3.74239 0.2 -2.04336
vt 29.5384 7.87402
f 48/90/15 47/89/15 46/88/15

v 3.74239 1.8 -2.04336
vt 29.5384 70.8661
f 47/89/15 48/90/15 49/91/15

v 3.61051 0.2 -1.91148
vt -209.693 7.87402
vn -0.707107 -2.28474e-17 -0.707107
vt -217.036 70.8661
vt -217.036 7.87402
f 50/92/16 49/93/16 48/94/16

v 3.61051 1.6 -1.91148
vt -209.693 62.9921
f 51/95/16 49/93/16 50/92/16

v 2.03477 1.6 -0.335744
vt -121.96 62.9921
f 52/96/16 49/93/16 51/95/16

v 1.90289 1.8 -0.203866
vt -114.617 70.8661
f 52/96/16 53/97/16 49/93/16

v 1.90289 0.2 -0.203866
vt -114.617 7.87402
f 53/97/16 52/96/16 54/98/16

v 2.03477 0.2 -0.335744
vt -121.96 7.87402
f 55/99/16 54/98/16 52/96/16

vt -154.219 7.87402
vt -159.411 13.066
f 54/100/11 41/79/11 55/101/11

v 1.68574 0.2 -0.203866
vt -145.669 7.87402
f 56/102/11 41/79/11 54/100/11

vt -90.5512 -2.38801e-16
f 9/103/11 41/79/11 56/102/11

f 33/68/11 41/79/11 9/103/11

f 32/69/11 41/79/11 33/68/11

f 25/78/11 41/79/11 32/69/11

vt 7.87402 7.87402
vn 1 0 -0
vt 0 70.8661
vt 0 7.87402
f 33/104/17 8/105/17 9/106/17

vt 7.87402 70.8661
f 8/105/17 33/104/17 34/107/17

v 1.77863 1.8 -0.503866
vt -149.327 19.685
vt -90.5512 0
f 34/68/14 57/108/14 8/109/14

f 34/68/14 35/71/14 57/108/14

usemtl Translucent_Glass_Tinted
vt -36.6747 -136.948
v 2.67672 1.8 -3.50387
vt -40.7493 -132.027
vt -39.2761 -136.948
f 35/110/14 58/111/14 57/112/14

vt -35.2015 -132.027
f 35/110/14 38/113/14 58/111/14

vt -34.0522 -134.325
f 38/113/14 35/110/14 36/114/14

usemtl Color_003
vt 41.4895 70.8661
vn 0.707107 0 -0.707107
vt -47.5239 78.7402
vt -47.5239 70.8661
f 36/115/18 6/116/18 35/117/18

vt 41.4895 78.7402
f 6/116/18 36/115/18 5/118/18

vt 146.295 70.8661
vn 0.894427 0 0.447214
vt 84.6155 78.7402
vt 84.6155 70.8661
f 38/119/19 5/120/19 36/121/19

v -0.705245 2 -3.50387
vt 146.295 78.7402
f 5/120/19 38/119/19 59/122/19

vt 51.5361 70.8661
v 2.67672 2 -3.50387
vt 184.684 78.7402
vt 51.5361 78.7402
f 38/123/3 60/124/3 59/125/3

vt 184.684 70.8661
f 60/124/3 38/123/3 58/126/3

vt -184.684 137.795
f 38/73/14 43/79/14 58/127/14

f 38/73/14 39/74/14 43/79/14

vt 44.2365 70.8661
v -0.264262 1.5 -3.80387
vt 68.8976 59.0551
f 39/128/3 61/129/3 43/83/3

v -0.264262 0.5 -3.80387
vt 68.8976 19.685
f 39/128/3 62/130/3 61/129/3

f 40/82/3 62/130/3 39/128/3

f 62/130/3 40/82/3 42/81/3

vt 176.181 149.606
vn -8.25643e-18 1 1.34745e-16
v -0.264262 0.5 -4.00387
vt 68.8976 157.48
vt 68.8976 149.606
f 42/131/20 63/132/20 62/133/20

v 2.23574 0.5 -4.00387
vt 167.323 157.48
f 63/132/20 42/131/20 64/134/20

v 2.46074 0.5 -4.00387
vt 176.181 157.48
f 64/134/20 42/131/20 65/135/20

vt -149.606 19.685
vn -1 0 -0
v 2.46074 1.5 -4.00387
vt -157.48 59.0551
vt -157.48 19.685
f 42/136/21 66/137/21 65/138/21

v 2.46074 1.5 -3.80387
vt -149.606 59.0551
f 66/137/21 42/136/21 67/139/21

vt 176.181 59.0551
f 42/81/3 43/83/3 67/140/3

f 67/140/3 43/83/3 61/129/3

vt -68.8976 149.606
vt -176.181 157.48
vt -176.181 149.606
f 61/141/14 66/142/14 67/143/14

v -0.264262 1.5 -4.00387
vt -68.8976 157.48
f 66/142/14 61/141/14 68/144/14

f 68/137/21 62/136/21 61/139/21

f 62/136/21 68/137/21 63/138/21

vt -68.8976 19.685
v -1.01426 2 -4.00387
vt -39.3701 78.7402
vt -68.8976 59.0551
f 63/145/13 69/146/13 68/147/13

vt -39.3701 0
f 63/145/13 15/148/13 69/146/13

vt -196.85 0
f 15/148/13 63/145/13 14/149/13

vt -176.181 19.685
f 65/150/13 14/149/13 63/145/13

v 2.98574 2 -4.00387
vt -196.85 78.7402
f 14/149/13 65/150/13 70/151/13

vt -176.181 59.0551
f 70/151/13 65/150/13 66/152/13

f 70/151/13 66/152/13 69/146/13

f 68/147/13 69/146/13 66/152/13

vt 39.3701 157.48
vt 51.5361 137.795
vt 196.85 157.48
f 69/153/2 59/154/2 70/155/2

f 69/153/2 5/6/2 59/154/2

f 5/6/2 69/153/2 4/7/2

vt -158.462 78.7402
vn -0.894427 0 -0.447214
vt -70.4273 0
vt -70.4273 78.7402
f 69/156/22 16/157/22 4/158/22

vt -158.462 0
f 16/157/22 69/156/22 15/159/22

f 16/25/1 19/31/1 4/4/1

usemtl Translucent_Glass_Tinted
vt 36.6747 -136.948
vt 35.2015 -132.027
vt 34.0522 -134.325
f 6/160/2 59/161/2 5/162/2

vt 40.7493 -132.027
f 59/161/2 6/160/2 60/163/2

v 1.77863 2 -0.503866
vt 39.2761 -136.948
f 60/163/2 6/160/2 71/164/2

usemtl Color_003
vt 149.327 19.685
f 6/8/2 7/9/2 71/165/2

v 3.37736 2 -2.10259
vt 212.268 82.627
f 71/165/2 7/9/2 72/166/2

v 3.98574 2 -2.00387
vt 236.22 78.7402
f 72/166/2 7/9/2 73/167/2

v 2.19787 1.7 -0.215998
vt 123.166 66.9291
vt 222.711 78.7402
f 7/17/4 74/168/4 73/169/4

f 74/168/4 7/17/4 12/16/4

vt -128.73 11.811
vn 0.591815 1.46319e-18 -0.806074
vt -120.764 62.9921
vt -128.73 66.9291
f 12/170/23 52/171/23 74/172/23

vt -120.764 7.87402
f 52/171/23 12/170/23 55/173/23

vt -123.166 104.881
vn -0.316228 0.894427 -0.316228
vt -209.693 96.0779
vt -121.96 96.0779
f 12/174/24 50/175/24 55/176/24

v 3.77361 0.3 -1.79173
vt -210.9 104.881
f 50/175/24 12/174/24 75/177/24

vt 210.9 11.811
f 12/16/4 13/18/4 75/178/4

v 3.77361 1.7 -1.79173
vt 210.9 66.9291
f 75/178/4 13/18/4 76/179/4

f 73/169/4 76/179/4 13/18/4

f 73/169/4 74/168/4 76/179/4

vt 123.166 129.531
vn 0.316228 -0.894427 0.316228
vt 209.693 120.727
vt 210.9 129.531
f 74/180/25 51/181/25 76/182/25

vt 121.96 120.727
f 51/181/25 74/180/25 52/183/25

usemtl Translucent_Glass_Tinted
vt 65.3067 2.62467
vn -0.707107 0 -0.707107
vt 68.9623 0.328084
vt 68.9623 2.62467
f 51/184/26 55/185/26 52/186/26

vt 65.3067 0.328084
f 55/185/26 51/184/26 50/187/26

usemtl Color_003
vt 142.022 11.811
vn -0.591815 -1.46319e-18 0.806074
vt 134.056 62.9921
vt 134.056 7.87402
f 75/188/27 51/189/27 50/190/27

vt 142.022 66.9291
f 51/189/27 75/188/27 76/191/27

usemtl Translucent_Glass_Tinted
vt -68.912 2.78871
vt -65.2565 0.492126
vt -65.2565 2.78871
f 74/192/4 75/193/4 76/194/4

vt -68.912 0.492126
f 75/193/4 74/192/4 12/195/4

usemtl Color_003
vt -221.448 75.1029
f 55/101/11 41/79/11 50/196/11

vt -195.09 143.395
f 50/196/11 41/79/11 44/197/11

vt -223.896 85.7829
f 50/196/11 44/197/11 46/198/11

vt -226.64 80.2949
f 50/196/11 46/198/11 48/199/11

vt 52.8205 0
vn 0.894427 0 -0.447214
vt -35.2137 78.7402
vt -35.2137 0
f 14/200/28 73/201/28 13/202/28

vt 52.8205 78.7402
f 73/201/28 14/200/28 70/203/28

f 70/155/2 72/166/2 73/167/2

vt 184.684 137.795
f 70/155/2 60/204/2 72/166/2

f 70/155/2 59/154/2 60/204/2

usemtl Translucent_Glass_Tinted
vt 41.8987 -134.325
f 60/163/2 71/164/2 72/205/2

usemtl Color_003
vt -208.523 78.7402
vt -119.509 70.8661
vt -119.509 78.7402
f 72/206/26 57/207/26 71/208/26

v 3.37736 1.8 -2.10259
vt -208.523 70.8661
f 57/207/26 72/206/26 77/209/26

vt -40.6545 78.7402
vn -0.894427 0 0.447214
vt 21.0255 70.8661
vt 21.0255 78.7402
f 60/210/29 77/211/29 72/212/29

vt -40.6545 70.8661
f 77/211/29 60/210/29 58/213/29

usemtl Translucent_Glass_Tinted
vt -41.8987 -134.325
f 57/112/14 58/111/14 77/214/14

usemtl Color_003
vt -212.268 82.627
f 58/127/14 43/79/14 77/215/14

f 77/215/14 43/79/14 45/197/14

f 77/215/14 45/197/14 47/198/14

f 49/199/14 77/215/14 47/198/14

f 53/100/14 77/215/14 49/199/14

f 53/100/14 57/108/14 77/215/14

v 1.68574 1.8 -0.203866
f 78/102/14 57/108/14 53/100/14

f 8/109/14 57/108/14 78/102/14

v 1.68574 1.8 -0.00386624
vt -145.669 0
f 79/216/14 8/109/14 78/102/14

vt 145.669 70.8661
f 79/217/3 7/12/3 8/11/3

f 10/14/3 7/12/3 79/217/3

vt -7.87402 70.8661
f 78/218/21 10/106/21 79/105/21

vt -7.87402 7.87402
f 10/106/21 78/218/21 56/219/21

vt -154.219 70.8661
vt -145.669 70.8661
f 53/220/13 56/102/13 78/221/13

f 56/102/13 53/220/13 54/100/13

vt -145.669 -2.38801e-16
f 10/222/11 9/103/11 56/102/11

vt -149.327 70.8661
vt -86.894 78.7402
vt -149.327 78.7402
f 57/223/13 6/224/13 71/225/13

vt -86.894 70.8661
f 6/224/13 57/223/13 35/226/13

vt -167.323 19.685
f 64/227/13 65/150/13 63/145/13

f 21/64/10 25/50/10 22/49/10

usemtl Translucent_Glass_Tinted
vt -119.012 0.533136
vt -122.668 2.62467
vt -122.668 0.533136
f 23/228/18 21/229/18 22/230/18

vt -119.012 2.62467
f 21/229/18 23/228/18 20/231/18

usemtl Color_003
f 23/51/10 26/52/10 20/63/10

vt -56.355 12.7953
vn -0.591815 3.99909e-19 -0.806074
vt -48.389 66.9291
vt -56.355 62.9921
f 23/232/30 18/233/30 20/234/30

vt -48.389 11.811
f 18/233/30 23/232/30 19/235/30

