# Alias OBJ Model File
# Exported from SketchUp, (c) 2000-2012 Trimble Navigation Limited
# File units = meters

mtllib bunker-small-covered.mtl

g Mesh1 Bunker__Small__Covered1 Model

usemtl Color_006
v 1.53601 2.01884 -1.45227
vt 88.5827 59.0551
vn 0 1 -0
v 1.22351 2.01884 -2.70227
vt 76.2795 108.268
v 1.00476 2.01884 -2.70227
vt 67.6673 108.268
f 1/1/1 2/2/1 3/3/1

v 1.66101 2.01884 -1.70227
vt 93.5039 68.8976
f 2/2/1 1/1/1 4/4/1

v 1.66101 2.01884 -1.45227
vt 93.5039 59.0551
f 4/4/1 1/1/1 5/5/1

usemtl Color_003
v 2.28601 2.01884 -1.20227
vt 118.11 49.2126
f 1/1/1 6/6/1 5/5/1

v 1.22351 2.01884 -1.45227
vt 76.2795 59.0551
f 7/7/1 6/6/1 1/1/1

v 1.00476 2.01884 -1.45227
vt 67.6673 59.0551
f 8/8/1 6/6/1 7/7/1

v 0.567263 2.01884 -1.45227
vt 50.4429 59.0551
f 9/9/1 6/6/1 8/8/1

v 0.348513 2.01884 -1.45227
vt 41.8307 59.0551
f 10/10/1 6/6/1 9/9/1

v 0.0360133 2.01884 -1.45227
vt 29.5276 59.0551
f 11/11/1 6/6/1 10/10/1

v -0.0889867 2.01884 -1.45227
vt 24.6063 59.0551
f 12/12/1 6/6/1 11/11/1

v -0.713987 2.01884 -1.45227
vt 0 59.0551
f 13/13/1 6/6/1 12/12/1

v -0.713987 2.01884 -1.20227
vt 0 49.2126
f 6/6/1 13/13/1 14/14/1

vt -59.0551 79.4817
vn -1 0 -0
v -0.713987 1.89384 -1.20227
vt -49.2126 74.5605
vt -49.2126 79.4817
f 13/15/2 15/16/2 14/17/2

v -0.713987 1.89384 -1.45227
vt -59.0551 74.5605
f 15/16/2 13/15/2 16/18/2

v 0.0360133 2.01884 -2.95227
vt -118.846 79.4817
vn -0.894427 0 -0.447214
vt -52.8205 74.5605
vt -52.8205 79.4817
f 17/19/3 16/20/3 13/21/3

v 0.0360133 1.89384 -2.95227
vt -118.846 74.5605
f 16/20/3 17/19/3 18/22/3

vt -29.5276 79.4817
vn 0 0 -1
v 0.161013 1.89384 -2.95227
vt -34.4488 74.5605
vt -29.5276 74.5605
f 17/23/4 19/24/4 18/25/4

v 0.411013 1.89384 -2.95227
vt -44.2913 74.5605
f 19/24/4 17/23/4 20/26/4

v 1.16101 1.89384 -2.95227
vt -73.8189 74.5605
f 20/26/4 17/23/4 21/27/4

v 1.41101 1.89384 -2.95227
vt -83.6614 74.5605
f 21/27/4 17/23/4 22/28/4

v 1.53601 1.89384 -2.95227
vt -88.5827 74.5605
f 22/28/4 17/23/4 23/29/4

v 1.53601 2.01884 -2.95227
vt -88.5827 79.4817
f 23/29/4 17/23/4 24/30/4

vt 29.5276 118.11
v 0.348513 2.01884 -2.70227
vt 41.8307 108.268
vt 88.5827 118.11
f 17/31/1 25/32/1 24/33/1

v -0.0889867 2.01884 -1.70227
vt 24.6063 68.8976
f 17/31/1 26/34/1 25/32/1

f 13/13/1 26/34/1 17/31/1

f 26/34/1 13/13/1 12/12/1

usemtl Color_006
f 11/11/1 26/34/1 12/12/1

f 26/34/1 11/11/1 25/32/1

v 0.567263 2.01884 -2.70227
vt 50.4429 108.268
f 25/32/1 11/11/1 27/35/1

vt 65.8997 79.4817
vn 0.920331 0 0.391141
v 0.567263 1.98634 -2.70227
vt 119.372 78.2022
vt 119.372 79.4817
f 11/36/5 28/37/5 27/38/5

v 0.0360133 1.98634 -1.45227
vt 65.8997 78.2022
f 28/37/5 11/36/5 29/39/5

v 0.348513 1.98634 -1.45227
vt -41.8307 78.2022
vt -29.5276 78.2022
f 11/23/4 30/40/4 29/41/4

vt -41.8307 79.4817
f 30/40/4 11/23/4 10/42/4

usemtl Translucent_Glass_Tinted
vt 1.74295 2.46063
vt 2.10179 4.51115
vt 1.23031 2.46063
f 10/43/1 27/44/1 11/45/1

vt 2.10179 2.46063
f 27/44/1 10/43/1 9/46/1

usemtl Color_006
v 0.567263 1.98634 -1.45227
vt -50.4429 78.2022
vt -50.4429 79.4817
f 31/47/4 10/42/4 9/48/4

f 10/42/4 31/47/4 30/40/4

f 28/35/1 30/10/1 31/9/1

f 30/10/1 28/35/1 29/11/1

v 0.676638 1.98634 -1.57727
vt 54.749 63.9764
f 28/35/1 31/9/1 32/49/1

vt -77.6604 78.2022
vn -0.752577 0 -0.658505
v 0.676638 2.01884 -1.57727
vt -84.1996 79.4817
vt -84.1996 78.2022
f 31/50/6 33/51/6 32/52/6

vt -77.6604 79.4817
f 33/51/6 31/50/6 9/53/6

f 8/8/1 33/49/1 9/9/1

v 0.895388 2.01884 -1.57727
vt 63.3612 63.9764
f 33/49/1 8/8/1 34/54/1

vt -0.115738 79.4817
vn 0.752577 0 -0.658505
v 0.895388 1.98634 -1.57727
vt 6.42348 78.2022
vt 6.42348 79.4817
f 8/55/7 35/56/7 34/57/7

v 1.00476 1.98634 -1.45227
vt -0.115738 78.2022
f 35/56/7 8/55/7 36/58/7

vt -67.6673 79.4817
v 1.22351 1.98634 -1.45227
vt -76.2795 78.2022
vt -67.6673 78.2022
f 8/59/4 37/60/4 36/61/4

vt -76.2795 79.4817
f 37/60/4 8/59/4 7/62/4

usemtl Translucent_Glass_Tinted
vt 2.81947 4.51115
vt 2.81947 2.46063
vt 3.17831 2.46063
f 3/63/1 8/64/1 7/65/1

vt 2.64005 2.66568
f 3/63/1 34/66/1 8/64/1

vt 2.28121 2.66568
f 3/63/1 33/67/1 34/66/1

f 27/44/1 33/67/1 3/63/1

f 27/44/1 9/46/1 33/67/1

usemtl Color_003
f 24/33/1 27/35/1 3/3/1

f 24/33/1 25/32/1 27/35/1

usemtl Color_006
vt 50.4429 78.2022
vn 0 0 1
vt 67.6673 79.4817
vt 50.4429 79.4817
f 28/68/8 3/69/8 27/70/8

v 1.00476 1.98634 -2.70227
vt 67.6673 78.2022
f 3/69/8 28/68/8 38/71/8

f 28/35/1 32/49/1 38/3/1

f 38/3/1 32/49/1 35/54/1

vt -54.749 79.4817
vt -63.3612 78.2022
vt -54.749 78.2022
f 33/72/4 35/73/4 32/74/4

vt -63.3612 79.4817
f 35/73/4 33/72/4 34/75/4

f 38/3/1 35/54/1 36/8/1

f 38/3/1 36/8/1 37/7/1

v 1.53601 1.98634 -1.45227
f 38/3/1 37/7/1 39/1/1

vt -88.5827 78.2022
f 7/62/4 39/76/4 37/60/4

f 39/76/4 7/62/4 1/30/4

usemtl Translucent_Glass_Tinted
vt 3.69094 2.46063
f 3/63/1 7/65/1 1/77/1

usemtl Color_006
vt -73.1747 79.4817
vn -0.920331 0 0.391141
vt -19.702 78.2022
vt -19.702 79.4817
f 3/78/9 39/79/9 1/80/9

vt -73.1747 78.2022
f 39/79/9 3/78/9 38/81/9

usemtl Color_003
f 24/33/1 3/3/1 2/2/1

f 24/33/1 2/2/1 4/4/1

v 2.28601 2.01884 -1.45227
vt 118.11 59.0551
f 24/33/1 4/4/1 40/82/1

f 40/82/1 4/4/1 6/6/1

f 5/5/1 6/6/1 4/4/1

vt 49.2126 79.4817
vn 1 0 -0
v 2.28601 1.89384 -1.45227
vt 59.0551 74.5605
vt 59.0551 79.4817
f 6/83/10 41/84/10 40/85/10

v 2.28601 1.89384 -1.20227
vt 49.2126 74.5605
f 41/84/10 6/83/10 42/86/10

vt 118.11 79.4817
v 2.03601 1.89384 -1.20227
vt 108.268 74.5605
vt 118.11 74.5605
f 6/87/8 43/88/8 42/89/8

v -0.463987 1.89384 -1.20227
vt 9.84252 74.5605
f 43/88/8 6/87/8 44/90/8

vt 0 74.5605
f 44/90/8 6/87/8 15/91/8

vt 0 79.4817
f 15/91/8 6/87/8 14/92/8

usemtl Color_006
v -0.713987 1.76884 -1.20227
vt 0 69.6392
f 45/93/8 44/90/8 15/91/8

v -0.463987 1.76884 -1.20227
vt 9.84252 69.6392
f 44/90/8 45/93/8 46/94/8

usemtl Color_003
v -0.463987 1.51884 -1.20227
vt 9.84252 59.7967
f 45/93/8 47/95/8 46/94/8

v -0.713987 0.0188361 -1.20227
vt 0 0.74158
f 48/96/8 47/95/8 45/93/8

v -0.463987 0.0188361 -1.20227
vt 9.84252 0.74158
f 47/95/8 48/96/8 49/97/8

vt -9.71509e-18 49.2126
vn 1.31005e-17 -1 9.76396e-18
v 0.0360133 0.0188361 -2.95227
vt -29.5276 118.11
vt -9.84252 49.2126
f 48/98/11 50/99/11 49/100/11

v -0.713987 0.0188361 -1.45227
vt -9.71509e-18 59.0551
f 50/99/11 48/98/11 51/101/11

vt -49.2126 0.74158
v -0.713987 1.76884 -1.45227
vt -59.0551 69.6392
vt -59.0551 0.74158
f 48/102/2 52/103/2 51/104/2

vt -49.2126 69.6392
f 52/103/2 48/102/2 45/105/2

usemtl Color_006
f 45/105/2 16/18/2 52/103/2

f 16/18/2 45/105/2 15/16/2

usemtl FrontColor
vt 9.84252 49.2126
f 44/106/1 16/13/1 15/14/1

v -0.463987 1.89384 -1.45227
vt 9.84252 59.0551
f 16/13/1 44/106/1 53/107/1

usemtl Color_006
v -0.463987 1.76884 -1.45227
vt 59.0551 69.6392
f 44/86/10 54/108/10 53/84/10

vt 49.2126 69.6392
f 54/108/10 44/86/10 46/109/10

usemtl Color_003
f 52/13/1 46/106/1 54/107/1

f 46/106/1 52/13/1 45/14/1

v -0.463987 1.51884 -1.45227
vt 59.0551 59.7967
f 46/109/10 55/110/10 54/108/10

vt 49.2126 59.7967
f 55/110/10 46/109/10 47/111/10

v 0.0360133 1.51884 -0.70227
vt 29.5276 29.5276
f 56/112/1 55/107/1 47/106/1

v 0.0360133 1.51884 -0.95227
vt 29.5276 39.3701
f 55/107/1 56/112/1 57/113/1

v 0.286013 1.51884 0.0477297
vt 39.3701 0
f 56/112/1 58/114/1 57/113/1

v 0.0360133 1.51884 0.0477297
vt 29.5276 0
f 58/114/1 56/112/1 59/115/1

vt -29.5276 59.7967
v 0.0360133 0.0188361 0.0477297
vt 0 59.7967
f 56/116/2 60/96/2 59/117/2

v 0.0360133 0.0188361 -0.70227
vt -29.5276 0.74158
f 60/96/2 56/116/2 61/118/2

v 0.0360133 0.518836 -0.70227
vt -29.5276 20.4266
f 61/118/2 56/116/2 62/119/2

vt -27.8388 59.7967
vn -0.707107 0 0.707107
vt 2.80664e-13 20.4266
vt 2.80664e-13 59.7967
f 47/120/12 62/121/12 56/122/12

vt -27.8388 0.74158
f 49/123/12 62/121/12 47/120/12

vt 2.80664e-13 0.74158
f 62/121/12 49/123/12 61/124/12

vt -29.5276 29.5276
f 49/100/11 50/99/11 61/125/11

v 0.411013 0.0188361 -2.95227
vt -44.2913 118.11
f 61/125/11 50/99/11 63/126/11

v 0.0360133 1.76884 -2.95227
vt -29.5276 69.6392
vt -44.2913 0.74158
f 64/127/4 63/128/4 50/118/4

v 0.411013 1.01884 -2.95227
vt -44.2913 40.1117
f 63/128/4 64/127/4 65/129/4

v 0.411013 1.76884 -2.95227
vt -44.2913 69.6392
f 65/129/4 64/127/4 66/130/4

v 0.161013 1.76884 -2.95227
vt -34.4488 69.6392
f 66/130/4 64/127/4 67/131/4

v 0.161013 1.76884 -2.70227
vt 34.4488 108.268
vt 34.4488 118.11
f 64/31/1 68/132/1 67/133/1

f 64/31/1 54/107/1 68/132/1

f 54/107/1 64/31/1 52/13/1

vt -118.846 69.6392
vt -52.8205 0.74158
vt -52.8205 69.6392
f 64/134/3 51/135/3 52/136/3

vt -118.846 0.74158
f 51/135/3 64/134/3 50/137/3

usemtl Color_006
vt -9.84252 69.6392
f 16/91/4 54/138/4 52/93/4

vt -9.84252 74.5605
f 54/138/4 16/91/4 53/139/4

usemtl FrontColor
f 18/31/1 16/13/1 53/107/1

v 0.161013 1.89384 -2.70227
f 53/107/1 69/132/1 18/31/1

vt 108.268 49.2126
f 53/107/1 43/140/1 69/132/1

f 43/140/1 53/107/1 44/106/1

v 0.411013 1.89384 -2.70227
vt 44.2913 108.268
f 69/132/1 43/140/1 70/141/1

vt 44.2913 118.11
f 70/141/1 43/140/1 20/142/1

v 1.16101 1.89384 -2.70227
vt 73.8189 108.268
f 20/142/1 43/140/1 71/143/1

v 1.41101 1.89384 -2.70227
vt 83.6614 108.268
f 71/143/1 43/140/1 72/144/1

vt 83.6614 118.11
f 72/144/1 43/140/1 22/145/1

f 22/145/1 43/140/1 23/33/1

v 2.03601 1.89384 -1.45227
vt 108.268 59.0551
f 23/33/1 43/140/1 73/146/1

f 42/6/1 73/146/1 43/140/1

f 73/146/1 42/6/1 41/82/1

usemtl Color_006
v 2.28601 1.76884 -1.45227
f 42/86/10 74/108/10 41/84/10

v 2.28601 1.76884 -1.20227
f 74/108/10 42/86/10 75/109/10

v 2.03601 1.76884 -1.20227
vt 108.268 69.6392
vt 118.11 69.6392
f 42/89/8 76/147/8 75/148/8

f 76/147/8 42/89/8 43/88/8

f 73/18/2 76/105/2 43/16/2

v 2.03601 1.76884 -1.45227
f 76/105/2 73/18/2 77/103/2

vt -108.268 74.5605
vt -118.11 69.6392
vt -108.268 69.6392
f 73/149/4 74/150/4 77/151/4

vt -118.11 74.5605
f 74/150/4 73/149/4 41/152/4

usemtl FrontColor
f 23/33/1 73/146/1 41/82/1

usemtl Color_003
vt 66.0256 74.5605
vn 0.894427 -2.62411e-16 -0.447214
vt 1.98952e-13 79.4817
vt 1.98952e-13 74.5605
f 23/153/13 40/154/13 41/155/13

vt 66.0256 79.4817
f 40/154/13 23/153/13 24/156/13

f 77/146/1 75/6/1 74/82/1

f 75/6/1 77/146/1 76/140/1

v 2.03601 1.51884 -1.20227
vt -49.2126 59.7967
f 77/103/2 78/157/2 76/105/2

v 2.03601 1.51884 -1.45227
vt -59.0551 59.7967
f 78/157/2 77/103/2 79/158/2

v 1.41101 1.76884 -2.70227
vt -59.4231 69.6392
vn -0.894427 0 0.447214
vt -4.40171 59.7967
vt -4.40171 69.6392
f 80/159/14 79/160/14 77/161/14

v 2.03601 1.01884 -1.45227
vt -4.40171 40.1117
f 79/160/14 80/159/14 81/162/14

v 1.41101 1.01884 -2.70227
vt -59.4231 40.1117
f 81/162/14 80/159/14 82/163/14

vt 83.6614 69.6392
v 1.16101 1.01884 -2.70227
vt 73.8189 40.1117
vt 83.6614 40.1117
f 80/164/8 83/165/8 82/166/8

v 1.16101 1.76884 -2.70227
vt 73.8189 69.6392
f 83/165/8 80/164/8 84/167/8

usemtl Color_006
vt 83.6614 74.5605
f 72/168/8 84/167/8 80/164/8

vt 73.8189 74.5605
f 84/167/8 72/168/8 71/169/8

usemtl FrontColor
vt 73.8189 118.11
f 72/144/1 21/170/1 71/143/1

f 21/170/1 72/144/1 22/145/1

usemtl Color_006
vn 1 -1.15506e-14 5.77529e-15
v 1.41101 1.76884 -2.95227
f 72/88/15 85/148/15 22/89/15

f 85/148/15 72/88/15 80/147/15

usemtl Color_003
v 1.16101 1.76884 -2.95227
f 86/170/1 80/144/1 85/145/1

f 80/144/1 86/170/1 84/143/1

usemtl Color_006
f 84/151/2 21/152/2 86/150/2

f 21/152/2 84/151/2 71/149/2

usemtl FrontColor
f 21/170/1 20/142/1 71/143/1

usemtl Color_006
vt -83.6614 69.6392
vt -73.8189 69.6392
f 21/27/4 85/171/4 86/172/4

f 85/171/4 21/27/4 22/28/4

usemtl Color_003
v 1.53601 1.76884 -2.95227
vt -88.5827 69.6392
f 87/173/4 86/172/4 85/171/4

v 1.16101 1.01884 -2.95227
vt -73.8189 40.1117
f 87/173/4 88/174/4 86/172/4

v 1.53601 0.0188361 -2.95227
vt -88.5827 0.74158
f 89/175/4 88/174/4 87/173/4

v 1.16101 0.0188361 -2.95227
vt -73.8189 0.74158
f 88/174/4 89/175/4 90/176/4

v 1.53601 0.0188361 0.0477297
vt -88.5827 -7.24076e-18
vt -73.8189 118.11
vt -88.5827 118.11
f 91/177/11 90/178/11 89/179/11

v 1.03601 0.0188361 0.0477297
vt -68.8976 -7.24076e-18
f 92/180/11 90/178/11 91/177/11

v 0.536013 0.0188361 0.0477297
vt -49.2126 -7.24076e-18
f 93/181/11 90/178/11 92/180/11

f 93/181/11 63/126/11 90/178/11

vt -29.5276 -7.24076e-18
f 60/182/11 63/126/11 93/181/11

f 61/125/11 63/126/11 60/182/11

v 0.536013 0.518836 0.0477297
vt 49.2126 20.4266
vt 29.5276 0.74158
vt 49.2126 0.74158
f 94/183/8 60/184/8 93/185/8

v 0.286013 0.518836 0.0477297
vt 39.3701 20.4266
f 60/184/8 94/183/8 95/186/8

vt 49.2126 9.13506
vn -3.93617e-17 0.894427 0.447214
v 0.286013 1.01884 -0.95227
vt 39.3701 53.1521
vt 39.3701 9.13506
f 94/187/16 96/188/16 95/189/16

v 1.28601 1.01884 -0.95227
vt 78.7402 53.1521
f 96/188/16 94/187/16 97/190/16

v 1.03601 0.518836 0.0477297
vt 68.8976 9.13506
f 97/190/16 94/187/16 98/191/16

usemtl Color_006
vt 68.8976 20.4266
f 93/185/8 98/192/8 94/183/8

vt 68.8976 0.74158
f 98/192/8 93/185/8 92/193/8

usemtl Color_003
v 1.28601 0.518836 0.0477297
vt 78.7402 20.4266
f 98/192/8 92/193/8 99/194/8

vt 88.5827 0.74158
f 91/195/8 99/194/8 92/193/8

v 1.53601 1.51884 0.0477297
vt 88.5827 59.7967
f 99/194/8 91/195/8 100/196/8

v 1.53601 0.0188361 -0.70227
f 101/184/10 100/117/10 91/96/10

v 1.53601 1.51884 -0.70227
vt 29.5276 59.7967
f 100/117/10 101/184/10 102/197/10

v 1.53601 0.518836 -0.70227
vt 29.5276 20.4266
f 102/197/10 101/184/10 103/198/10

v 2.03601 0.0188361 -1.20227
vt 111.355 0.74158
vn 0.707107 0 0.707107
vt 83.5165 20.4266
vt 83.5165 0.74158
f 104/199/17 103/200/17 101/201/17

vt 83.5165 59.7967
f 103/200/17 104/199/17 102/202/17

vt 111.355 59.7967
f 102/202/17 104/199/17 78/203/17

vt 108.268 0.74158
vt 108.268 59.7967
f 104/204/8 75/148/8 78/205/8

v 2.28601 0.0188361 -1.20227
vt 118.11 0.74158
f 75/148/8 104/204/8 105/206/8

vt -108.268 49.2126
v 2.28601 0.0188361 -1.45227
vt -118.11 59.0551
vt -118.11 49.2126
f 104/207/11 106/208/11 105/209/11

v 1.66101 0.0188361 -2.70227
vt -93.5039 108.268
f 104/207/11 107/210/11 106/208/11

vt -88.5827 29.5276
f 101/211/11 107/210/11 104/207/11

f 107/210/11 101/211/11 89/179/11

f 91/177/11 89/179/11 101/211/11

vt 66.0256 0.74158
vn 0.894427 0 -0.447214
v 1.66101 1.76884 -2.70227
vt 55.0214 69.6392
vt 55.0214 0.74158
f 89/212/18 108/213/18 107/214/18

vt 66.0256 69.6392
f 108/213/18 89/212/18 87/215/18

vt 93.5039 108.268
f 87/33/1 77/146/1 108/216/1

f 85/145/1 77/146/1 87/33/1

f 77/146/1 85/145/1 80/144/1

f 108/216/1 77/146/1 74/82/1

f 74/93/18 107/214/18 108/213/18

f 107/214/18 74/93/18 106/96/18

vt 59.0551 0.74158
f 75/109/10 106/217/10 74/108/10

f 106/217/10 75/109/10 105/185/10

f 78/205/8 75/148/8 76/147/8

v 1.53601 1.51884 -0.95227
vt 88.5827 39.3701
vt 88.5827 29.5276
f 109/218/1 102/219/1 78/140/1

vt 88.5827 0
f 109/218/1 100/220/1 102/219/1

v 1.28601 1.51884 -0.95227
vt 78.7402 39.3701
f 110/221/1 100/220/1 109/218/1

v 1.28601 1.51884 0.0477297
vt 78.7402 0
f 100/220/1 110/221/1 111/222/1

vt -39.3701 59.7967
vt 0 20.4266
f 110/223/2 99/224/2 111/117/2

vt -39.3701 40.1117
f 99/224/2 110/223/2 97/225/2

vt 78.7402 40.1117
vt 78.7402 59.7967
f 97/226/8 109/196/8 110/227/8

v 1.53601 1.01884 -0.95227
vt 88.5827 40.1117
f 109/196/8 97/226/8 112/228/8

v 1.28601 0.518836 -0.95227
f 113/194/8 112/228/8 97/226/8

v 1.53601 0.518836 -0.95227
vt 88.5827 20.4266
f 112/228/8 113/194/8 114/229/8

f 82/144/1 97/221/1 112/218/1

f 83/143/1 97/221/1 82/144/1

v 0.411013 1.01884 -3.20227
vt 44.2913 127.953
f 115/230/1 97/221/1 83/143/1

f 65/142/1 97/221/1 115/230/1

v 0.411013 1.01884 -2.70227
f 116/141/1 97/221/1 65/142/1

vt 39.3701 39.3701
f 116/141/1 96/231/1 97/221/1

v 0.161013 1.01884 -2.70227
f 117/132/1 96/231/1 116/141/1

v 0.0360133 1.01884 -0.95227
f 117/132/1 118/113/1 96/231/1

v -0.463987 1.01884 -1.45227
f 118/113/1 117/132/1 119/107/1

vt 112.244 40.1117
vn 0.894427 0 0.447214
vt 57.2222 59.7967
vt 57.2222 40.1117
f 117/232/19 55/233/19 119/234/19

vt 57.2222 69.6392
f 55/233/19 117/232/19 54/235/19

vt 112.244 69.6392
f 54/235/19 117/232/19 68/236/19

vt 34.4488 40.1117
v 0.411013 1.76884 -2.70227
vt 44.2913 69.6392
vt 34.4488 69.6392
f 117/237/8 120/238/8 68/239/8

vt 44.2913 40.1117
f 120/238/8 117/237/8 116/240/8

vt 118.11 40.1117
vt 108.268 40.1117
f 65/241/10 120/147/10 116/242/10

f 120/147/10 65/241/10 66/148/10

f 67/133/1 120/141/1 66/142/1

f 120/141/1 67/133/1 68/132/1

usemtl Color_006
f 68/151/2 19/152/2 67/150/2

f 19/152/2 68/151/2 69/149/2

vt 44.2913 74.5605
vt 34.4488 74.5605
f 68/239/8 70/243/8 69/244/8

f 70/243/8 68/239/8 120/238/8

f 66/148/10 70/88/10 120/147/10

f 70/88/10 66/148/10 20/89/10

f 66/130/4 19/24/4 20/26/4

f 19/24/4 66/130/4 67/131/4

usemtl FrontColor
f 19/133/1 70/141/1 20/142/1

f 70/141/1 19/133/1 69/132/1

f 19/133/1 18/31/1 69/132/1

usemtl Color_003
vt 34.7986 59.7967
vn 0.707107 2.9481e-30 -0.707107
vt 6.95971 40.1117
vt 34.7986 40.1117
f 55/245/20 118/246/20 119/247/20

vt 6.95971 59.7967
f 118/246/20 55/245/20 57/248/20

vt 29.5276 40.1117
v 0.286013 1.51884 -0.95227
vt 39.3701 59.7967
f 118/249/8 121/250/8 57/197/8

vt 39.3701 40.1117
f 121/250/8 118/249/8 96/251/8

v 0.0360133 0.518836 -0.95227
f 122/198/8 96/251/8 118/249/8

v 0.286013 0.518836 -0.95227
f 96/251/8 122/198/8 123/186/8

f 123/186/8 97/226/8 96/251/8

f 97/226/8 123/186/8 113/194/8

vn -1.09381e-17 1 1.80478e-17
vt 49.2126 3.68655e-16
f 123/231/21 94/252/21 113/221/21

vt 39.3701 3.68655e-16
f 94/252/21 123/231/21 95/253/21

vt -39.3701 20.4266
f 123/254/2 95/224/2 96/225/2

f 95/224/2 121/223/2 96/225/2

f 121/223/2 95/224/2 58/117/2

f 59/197/8 95/186/8 58/250/8

f 60/184/8 95/186/8 59/197/8

f 57/113/1 58/114/1 121/231/1

vt 68.8976 3.68655e-16
f 113/221/21 94/252/21 98/255/21

vt 78.7402 3.68655e-16
f 113/221/21 98/255/21 99/256/21

vt 78.7402 9.13506
f 97/190/16 98/191/16 99/257/16

f 113/254/2 99/224/2 97/225/2

vt -127.953 40.1117
vt -118.11 0.74158
vt -118.11 40.1117
f 115/258/2 63/259/2 65/260/2

v 0.411013 0.0188361 -3.20227
vt -127.953 0.74158
f 63/259/2 115/258/2 124/261/2

v 1.16101 0.0188361 -3.20227
f 115/129/4 125/176/4 124/128/4

v 1.16101 1.01884 -3.20227
f 125/176/4 115/129/4 126/174/4

vt 73.8189 127.953
f 83/143/1 126/262/1 115/230/1

f 126/262/1 83/143/1 88/170/1

vt -108.268 40.1117
f 83/263/2 86/150/2 88/260/2

f 86/150/2 83/263/2 84/151/2

vt 127.953 0.74158
vt 127.953 40.1117
f 88/241/10 125/264/10 126/265/10

f 125/264/10 88/241/10 90/206/10

vn -1.50398e-17 -1 -4.51195e-17
vt -73.8189 127.953
f 63/126/22 125/266/22 90/178/22

vt -44.2913 127.953
f 125/266/22 63/126/22 124/267/22

f 82/144/1 112/218/1 81/146/1

vt -90.4763 40.1117
vn -0.707107 -5.89621e-30 -0.707107
vt -118.315 59.7967
vt -118.315 40.1117
f 112/268/23 79/269/23 81/270/23

vt -90.4763 59.7967
f 79/269/23 112/268/23 109/271/23

f 109/218/1 78/140/1 79/146/1

f 99/194/8 100/196/8 111/227/8

