# Alias OBJ Model File
# Exported from SketchUp, (c) 2000-2012 Trimble Navigation Limited
# File units = meters

mtllib door-double.mtl

g Mesh1 Door__Double1 Model

usemtl Color_003
v 1.80753 0.394571 -0.125
vt -4.92126 15.5343
vn -1 0 -0
v 1.80753 0 -0
vt 0 0
v 1.80753 0.394571 -0
vt 0 15.5343
f 1/1/1 2/2/1 3/3/1

v 1.80753 4.11986e-17 -0.125
vt -4.92126 1.62199e-15
f 2/2/1 1/1/1 4/4/1

vt -71.1628 15.5343
vn 0 0 -1
v 1.99957 4.11986e-17 -0.125
vt -78.7231 1.62199e-15
vt -71.1628 1.62199e-15
f 1/5/2 5/6/2 4/7/2

v 1.99957 0.942162 -0.125
vt -78.7231 37.093
f 5/6/2 1/5/2 6/8/2

v 1.62975 0.572351 -0.125
vt -64.1636 22.5335
f 6/8/2 1/5/2 7/9/2

v 1.62975 0.572351 -0
vt -1.35302e-14 -29.4369
vn -0.707107 -0.707107 -1.49108e-16
vt -4.92126 -29.4369
vt -4.92126 -39.3353
f 8/10/3 7/11/3 1/12/3

v 1.57088 0.63123 -0
vt -1.30414e-14 -26.1586
f 9/13/3 7/11/3 8/10/3

v 1.57088 0.63123 -0.125
vt -4.92126 -26.1586
f 9/13/3 10/14/3 7/11/3

v 1.3516 0.850508 -0
vt -1.12209e-14 -13.9498
f 11/15/3 10/14/3 9/13/3

v 1.3516 0.850508 -0.125
vt -4.92126 -13.9498
f 10/14/3 11/15/3 12/16/3

v 0.639071 0.850508 -0
vt -25.1603 -2.02339e-14
vn 7.64532e-15 -1 6.04277e-16
vt -53.2125 4.92126
vt -53.2125 -2.02339e-14
f 13/17/4 12/18/4 11/19/4

v 0.639071 0.850508 -0.125
vt -25.1603 4.92126
f 12/18/4 13/17/4 14/20/4

v 0.425702 0.637138 -0
vt -3.68783e-15 29.5883
vn 0.707107 -0.707107 -1.55591e-16
vt 4.92126 41.4682
vt -5.53623e-15 41.4682
f 15/21/5 14/22/5 13/23/5

v 0.425702 0.637138 -0.125
vt 4.92126 29.5883
f 15/21/5 16/24/5 14/22/5

v 0.37245 0.583887 -0
vt -3.22651e-15 26.6233
f 17/25/5 16/24/5 15/21/5

v 0.37245 0.583887 -0.125
vt 4.92126 26.6233
f 17/25/5 18/26/5 16/24/5

v 0.183135 0.394571 -0
vt -1.58648e-15 16.0827
f 19/27/5 18/26/5 17/25/5

v 0.183135 0.394571 -0.125
vt 4.92126 16.0827
f 18/26/5 19/27/5 20/28/5

vn 1 0 -0
v 0.183135 3.50953e-17 -0.125
vt 4.92126 1.38171e-15
vt 4.92126 15.5343
f 19/3/6 21/29/6 20/30/6

v 0.183135 0 -0
f 21/29/6 19/3/6 22/2/6

vt 7.21003 15.5343
vn -2.97327e-15 3.13266e-16 1
v 0.000494883 0 -0
vt 0.0194836 1.81475e-32
vt 7.21003 6.71558e-30
f 19/31/7 23/32/7 22/33/7

v 0.000494883 0.731706 -0
vt 0.0194836 28.8073
f 23/32/7 19/31/7 24/34/7

vt 14.6634 22.9877
f 24/34/7 19/31/7 17/35/7

v 0.000494883 0.955842 -0
vt 0.0194836 37.6316
f 24/34/7 17/35/7 25/36/7

usemtl Color_000
vt 16.7599 25.0842
vn -3.63554e-15 3.20203e-15 1
f 15/37/8 25/36/8 17/35/8

v 0.0570224 1.00582 -0
vt 2.24498 39.5991
f 25/36/8 15/37/8 26/38/8

usemtl Color_003
vt 25.1603 33.4846
vn -4.5208e-16 3.71224e-15 1
f 13/39/9 26/38/9 15/37/9

vt 53.2125 33.4846
f 26/38/9 13/39/9 11/40/9

v 1.94546 1.00582 -0
vt 76.5931 39.5991
f 11/40/9 27/41/9 26/38/9

vt 61.8455 24.8516
f 27/41/9 11/40/9 9/42/9

usemtl Color_000
vn 1.57982e-15 1.82082e-15 1
v 1.99957 0.942162 -0
vt 78.7231 37.093
f 9/42/10 28/43/10 27/41/10

vt 64.1636 22.5335
f 28/43/10 9/42/10 8/44/10

usemtl Color_003
vt 71.1628 15.5343
vn 2.54508e-15 2.80639e-16 1
f 3/45/11 28/43/11 8/44/11

vt 71.1628 -5.08279e-29
f 2/46/11 28/43/11 3/45/11

v 1.99957 0 -0
vt 78.7231 -5.62278e-29
f 28/43/11 2/46/11 29/47/11

usemtl FrontColor
vt -71.1628 -7.01192e-29
vn 2.87163e-15 -1 -3.43128e-16
vt -78.7231 4.92126
vt -78.7231 -7.75686e-29
f 2/48/12 5/49/12 29/50/12

vt -71.1628 4.92126
f 5/49/12 2/48/12 4/51/12

usemtl Color_003
vt 4.92126 1.62199e-15
vt 0 37.093
f 5/52/6 28/53/6 29/2/6

v 1.99957 1.00582 -0
vt 0 39.5991
f 28/53/6 5/52/6 30/54/6

vt 4.92126 37.093
f 30/54/6 5/52/6 6/55/6

v 1.99957 1.00582 -0.125
vt 4.92126 39.5991
f 30/54/6 6/55/6 31/56/6

usemtl Color_000
vn 2.17199e-13 -2.28902e-13 -1
v 1.94546 1.00582 -0.125
vt -76.5931 39.5991
vt -78.7231 39.5991
f 6/8/13 32/57/13 31/58/13

vt -61.8455 24.8516
f 6/8/13 10/59/13 32/57/13

f 10/59/13 6/8/13 7/9/13

usemtl Color_003
vt -53.2125 33.4846
f 12/60/2 32/57/2 10/59/2

v 0.0570224 1.00582 -0.125
vt -2.24498 39.5991
f 32/57/2 12/60/2 33/61/2

vt -25.1603 33.4846
f 14/62/2 33/61/2 12/60/2

vt -16.7599 25.0842
f 33/61/2 14/62/2 16/63/2

usemtl Color_000
vn -1.56635e-13 -1.65633e-13 -1
v 0.000494883 0.955842 -0.125
vt -0.0194836 37.6316
f 16/63/14 34/64/14 33/61/14

vt -14.6634 22.9877
f 34/64/14 16/63/14 18/65/14

usemtl Color_003
vt -7.21003 15.5343
f 20/66/2 34/64/2 18/65/2

vt -7.21003 1.38171e-15
f 21/67/2 34/64/2 20/66/2

v 0.000494883 3.50953e-17 -0.125
vt -0.0194836 1.38171e-15
f 34/64/2 21/67/2 35/68/2

usemtl FrontColor
vt -7.21003 4.92126
vn 2.39457e-32 -1 8.09396e-16
vt -0.0194836 3.77622e-49
vt -0.0194836 4.92126
f 21/69/15 23/70/15 35/71/15

vt -7.21003 1.39742e-46
f 23/70/15 21/69/15 22/72/15

usemtl Color_003
vt -4.92126 1.38171e-15
vt -4.92126 37.6316
f 35/73/1 23/2/1 34/74/1

v 0.000494883 1.00582 -0.125
vt -4.92126 39.5991
f 23/2/1 36/75/1 34/74/1

vt 0 28.8073
f 24/76/1 36/75/1 23/2/1

vt 0 37.6316
f 25/77/1 36/75/1 24/76/1

v 0.000494883 1.00582 -0
f 36/75/1 25/77/1 37/54/1

usemtl Color_000
vt 0.0194836 39.5991
f 25/36/8 26/38/8 37/78/8

usemtl Color_003
vt 2.24498 -1.14348e-13
vn -1.29368e-15 1 -2.88765e-15
vt 0.0194836 4.92126
vt 0.0194836 -1.14348e-13
f 26/79/16 36/80/16 37/81/16

vt 2.24498 4.92126
f 36/80/16 26/79/16 33/82/16

vt 76.5931 -1.14348e-13
f 33/82/16 26/79/16 27/83/16

vt 76.5931 4.92126
f 33/82/16 27/83/16 32/84/16

vt 78.7231 -1.14348e-13
f 32/84/16 27/83/16 30/85/16

usemtl Color_000
vt 78.7231 39.5991
f 27/41/10 28/43/10 30/86/10

usemtl Color_003
vt 78.7231 4.92126
f 32/84/16 30/85/16 31/87/16

usemtl Color_000
vt -0.0194836 39.5991
f 33/61/14 34/64/14 36/88/14

usemtl Color_003
vt -1.50061e-14 -39.3353
f 8/10/3 1/12/3 3/89/3

