# Alias OBJ Model File
# Exported from SketchUp, (c) 2000-2012 Trimble Navigation Limited
# File units = meters

mtllib future-crossing-light.mtl

g Mesh1 NM_Crossing_Light1 Model

usemtl _1
v 0 0.86 -0.2
vt 0.957073 0.884033
vn -1 0 -0
v 0 0 -0
vt 0.909175 0.585301
v 0 0.86 -0
vt 0.909175 0.884033
f 1/1/1 2/2/1 3/3/1

v 0 0 -0.2
vt 0.957073 0.585301
f 2/2/1 1/1/1 4/4/1

vt 0.807719 0.880254
vn 0 0 -1
v 0.2 0 -0.2
vt 0.877192 0.581522
vt 0.807719 0.581522
f 1/5/2 5/6/2 4/7/2

v 0.2 0.86 -0.2
vt 0.877192 0.880254
f 5/6/2 1/5/2 6/8/2

usemtl _2
v 0 1.06 -0.2
vt 13 14
vt 9 10
vt 13 10
f 7/9/2 6/10/2 1/11/2

v 0.2 1.06 -0.2
vt 9 14
f 6/10/2 7/9/2 8/12/2

vt 1 18
vn 0 1 -0
v 0.2 1.06 -0
vt 5 14
vt 5 18
f 7/13/3 9/14/3 8/15/3

v 0 1.06 -0
vt 1 14
f 9/14/3 7/13/3 10/16/3

vt -3 14
vt 1 10
f 7/17/1 3/18/1 10/16/1

vt -3 10
f 3/18/1 7/17/1 1/19/1

vn 0 0 1
f 3/18/4 9/14/4 10/16/4

v 0.2 0.86 -0
vt 5 10
f 9/14/4 3/18/4 11/20/4

usemtl _1
v 0.0269372 0.613648 -0
vt 0.817076 0.794681
f 3/5/4 12/21/4 11/8/4

v 0.0269372 0.343648 -0
vt 0.817076 0.700893
f 3/5/4 13/22/4 12/21/4

f 2/7/4 13/22/4 3/5/4

v 0.156937 0.343648 -0
vt 0.862233 0.700893
f 13/22/4 2/7/4 14/23/4

v 0.2 0 -0
f 15/6/4 14/23/4 2/7/4

f 14/23/4 15/6/4 11/8/4

vn 1 0 -0
f 5/4/5 11/3/5 15/2/5

f 11/3/5 5/4/5 6/1/5

usemtl _2
f 6/10/5 9/14/5 11/20/5

f 9/14/5 6/10/5 8/12/5

usemtl _1
v 0.156937 0.613648 -0
vt 0.862233 0.794681
f 14/23/4 11/8/4 16/24/4

f 16/24/4 11/8/4 12/21/4

usemtl _2
vt 1 5
vt 2 6
vt 1 6
f 13/25/4 16/26/4 12/27/4

vt 2 5
f 16/26/4 13/25/4 14/28/4

