# Alias OBJ Model File
# Exported from SketchUp, (c) 2000-2012 Trimble Navigation Limited
# File units = meters

mtllib future-doorway.mtl

g Mesh1 For_Mousedroid__Your_doorway_with_better_textures1 Model

usemtl oni_interior_elevator_shaft1_dif
v 1.04495 1.21498 0.0421725
vt 1.51389 0.360174
vn 2.98123e-16 -1 -0
v 0.439569 1.21498 0.346972
vt 1.11666 0.310174
v 0.439569 1.21498 0.0421725
vt 1.11666 0.360174
f 1/1/1 2/2/1 3/3/1

v 1.04495 1.21498 0.346972
vt 1.51389 0.310174
f 2/2/1 1/1/1 4/4/1

vn -1 0 -0
v 1.04495 1.12855 0.346972
vt 1.5706 0.310174
f 1/1/2 5/5/2 4/4/2

v 1.04495 1.12855 0.0421725
vt 1.5706 0.360174
f 5/5/2 1/1/2 6/6/2

v 1.20103 1.21866 0.0421725
vt 2.61642 0.632243
vn 0 0 -1
vt 2.514 0.617461
vt 2.514 0.63164
f 7/7/3 6/8/3 1/9/3

v 1.59674 0.990192 0.0421725
vt 2.87607 0.594765
f 8/10/3 6/8/3 7/7/3

v 1.44066 0.900082 0.0421725
vt 2.77366 0.579983
f 8/10/3 9/11/3 6/8/3

v 1.44066 0.623375 0.0421725
vt 2.77366 0.534592
f 8/10/3 10/12/3 9/11/3

v 1.59674 0.533264 0.0421725
vt 2.87607 0.51981
f 11/13/3 10/12/3 8/10/3

v 1.04495 0.39491 0.0421725
vt 2.514 0.497114
f 11/13/3 12/14/3 10/12/3

v 1.20103 0.3048 0.0421725
vt 2.61642 0.482332
f 13/15/3 12/14/3 11/13/3

v 1.20103 0.1524 0.0421725
vt 2.61642 0.457332
f 14/16/3 12/14/3 13/15/3

v 1.04495 0.1524 0.0421725
vt 2.514 0.457332
f 12/14/3 14/16/3 15/17/3

v 1.20103 3.70024e-16 0.0421725
vt 3.03548 0.414014
vt 2.82362 0.359771
vt 2.82362 0.414014
f 16/18/3 15/19/3 14/20/3

v 1.04495 3.70024e-16 0.0421725
vt 3.03548 0.359771
f 15/19/3 16/18/3 17/21/3

usemtl _1
v 1.20103 3.70024e-16 -0.109956
vt 1.00595 0.655441
vn 6.19243e-18 1 4.5277e-18
vt 0.804284 0.723663
vt 0.804934 0.655231
f 18/22/4 17/23/4 16/24/4

v 0.439569 3.79093e-16 -0.109956
vt 1.00278 0.989304
f 19/25/4 17/23/4 18/22/4

v 1.04495 3.70024e-16 0.346972
vt 0.401526 0.723242
f 17/23/4 19/25/4 20/26/4

v 1.20103 3.70024e-16 0.651772
vt -0.000580756 0.654388
f 19/25/4 21/27/4 20/26/4

v 0.439569 3.70024e-16 0.651772
vt -0.00375328 0.988251
f 21/27/4 19/25/4 22/28/4

vn -6.19243e-18 1 4.5277e-18
v -0.165811 3.70024e-16 0.0421725
f 19/25/5 23/23/5 22/28/5

v -0.321887 3.70024e-16 -0.109956
f 24/22/5 23/23/5 19/25/5

v -0.321887 3.70024e-16 0.0421725
f 23/23/5 24/22/5 25/24/5

vt -4 1
vn 1 0 -0
v -0.321887 0.1524 0.0421725
vt -5 0.667769
vt -5 1
f 24/29/6 26/30/6 25/31/6

v -0.321887 0.3048 0.0421725
vt -5 0.335539
f 26/30/6 24/29/6 27/32/6

v -0.321887 0.3048 -0.109956
vt -4 0.335539
f 27/32/6 24/29/6 28/33/6

v -0.321887 3.70024e-16 -0.262084
f 29/31/6 28/33/6 24/29/6

v -0.321887 0.3048 -0.262084
f 28/33/6 29/31/6 30/32/6

v -0.321887 0.1524 -0.262084
f 30/32/6 29/31/6 31/30/6

usemtl oni_interior_elevator_shaft1_dif
vn 0 0 1
v -0.165811 0.1524 -0.262084
f 29/18/7 32/19/7 31/20/7

v -0.165811 3.70024e-16 -0.262084
f 32/19/7 29/18/7 33/21/7

usemtl _1
vn -6.19243e-18 1 -4.5277e-18
f 29/24/8 19/25/8 33/23/8

f 19/25/8 29/24/8 24/22/8

v -0.165811 3.70024e-16 -0.566884
f 33/23/8 19/25/8 34/26/8

v 0.439569 3.70024e-16 -0.871684
f 35/28/8 34/26/8 19/25/8

v -0.321887 3.70024e-16 -0.871684
f 36/27/8 34/26/8 35/28/8

v -0.321887 3.70024e-16 -0.719284
vt 0.200798 0.654599
f 34/26/8 36/27/8 37/34/8

usemtl oni_interior_elevator_shaft1_dif
vt 3.03852 0.00514685
v -0.321887 0.3048 -0.719284
vt 2.60377 0.0594905
vt 3.03852 0.0594905
f 36/35/6 38/36/6 37/37/6

v -0.321887 0.3048 -0.871684
vt 2.60377 0.00514685
f 38/36/6 36/35/6 39/38/6

vt 1.88361 -0.144791
v -0.717599 0.533264 -0.871684
vt 1.59292 -0.0797917
vt 1.71737 -0.144755
f 36/39/3 40/40/3 39/41/3

v -1.08389 3.70024e-16 -0.871684
vt 1.88391 -0.0197461
f 41/42/3 40/40/3 36/39/3

v -1.08389 1.52346 -0.871684
vt 1.053 -0.0195677
f 40/40/3 41/42/3 42/43/3

v -0.717599 0.990192 -0.871684
vt 1.34371 -0.0797382
f 40/40/3 42/43/3 43/44/3

v -0.321887 1.21866 -0.871684
vt 1.21895 -0.144648
f 43/44/3 42/43/3 44/45/3

v -0.321887 1.37106 -0.871684
vt 1.13582 -0.14463
f 44/45/3 42/43/3 45/46/3

v 0.439569 1.52346 -0.871684
vt 1.05241 -0.269568
f 46/47/3 45/46/3 42/43/3

v 0.439569 1.37106 -0.871684
vt 1.13553 -0.269585
f 45/46/3 46/47/3 47/48/3

v 1.20103 1.37106 -0.871684
f 46/47/3 48/46/3 47/48/3

v 1.96303 1.52346 -0.871684
f 49/43/3 48/46/3 46/47/3

v 1.20103 1.21866 -0.871684
f 49/43/3 50/45/3 48/46/3

v 1.59674 0.990192 -0.871684
f 49/43/3 51/44/3 50/45/3

v 1.59674 0.533264 -0.871684
f 49/43/3 52/40/3 51/44/3

v 1.96303 3.70024e-16 -0.871684
f 53/42/3 52/40/3 49/43/3

v 1.20103 0.3048 -0.871684
f 53/42/3 54/41/3 52/40/3

v 1.20103 3.70024e-16 -0.871684
f 54/41/3 53/42/3 55/39/3

v 1.20103 3.70024e-16 -0.719284
f 56/37/2 54/38/2 55/35/2

v 1.20103 0.3048 -0.719284
f 54/38/2 56/37/2 57/36/2

vn -0.698631 2.68079e-16 -0.715482
v 1.04495 0.39491 -0.566884
vt 2.47524 0.137276
vn -0.5592 0.322854 -0.763584
f 56/37/9 58/49/10 57/36/10

v 1.04495 3.70024e-16 -0.566884
vt 3.03852 0.137276
f 58/49/10 56/37/9 59/50/9

usemtl _1
vn 6.19243e-18 1 -4.5277e-18
f 55/27/11 59/26/11 56/34/11

f 35/28/11 59/26/11 55/27/11

v 1.04495 3.70024e-16 -0.262084
f 59/26/11 35/28/11 60/23/11

f 19/25/11 60/23/11 35/28/11

f 60/23/11 19/25/11 18/22/11

v 1.20103 3.70024e-16 -0.262084
f 60/23/11 18/22/11 61/24/11

v 1.20103 0.3048 -0.262084
f 18/29/2 62/32/2 61/31/2

v 1.20103 0.3048 -0.109956
f 62/32/2 18/29/2 63/33/2

f 16/31/2 63/33/2 18/29/2

f 14/30/2 63/33/2 16/31/2

f 63/33/2 14/30/2 13/32/2

vt -5 2
vn -0.5 0.866025 -0
f 11/51/12 63/29/12 13/31/12

v 1.59674 0.533264 -0.109956
vt -4 2
f 63/29/12 11/51/12 64/52/12

v 1.59674 0.990192 -0.109956
vt -3 2
vt -3 1
f 11/29/2 65/53/2 64/54/2

f 65/53/2 11/29/2 8/52/2

usemtl _1_4_
vt 1 1
vn -0.5 -0.866025 -0
vt 0 -8.88178e-16
vt 1 -8.88178e-16
f 7/55/13 65/56/13 8/57/13

v 1.20103 1.21866 -0.109956
vt 0 1
f 65/56/13 7/55/13 66/58/13

usemtl _1
vt -6 2
v 1.20103 1.37106 -0.109956
vt -4.99814 2.33588
vt -5.00035 1.99959
f 7/59/2 67/60/2 66/61/2

v 1.20103 1.37106 0.0421725
vt -5.99779 2.33629
f 67/60/2 7/59/2 68/62/2

usemtl oni_interior_elevator_shaft1_dif
v 0.439569 1.37106 0.0421725
vt 2.11677 0.657243
vt 2.61642 0.657243
f 7/7/3 69/63/3 68/64/3

f 1/9/3 69/63/3 7/7/3

vt 2.11677 0.63164
f 69/63/3 1/9/3 3/65/3

v -0.165811 1.21498 0.0421725
f 70/9/3 69/63/3 3/65/3

v -0.321887 1.21866 0.0421725
f 69/63/3 70/9/3 71/7/3

v -0.165811 1.12855 0.0421725
f 72/8/3 71/7/3 70/9/3

v -0.717599 0.990192 0.0421725
f 72/8/3 73/10/3 71/7/3

v -0.561523 0.900082 0.0421725
f 74/11/3 73/10/3 72/8/3

v -0.561523 0.623375 0.0421725
f 75/12/3 73/10/3 74/11/3

v -0.717599 0.533264 0.0421725
f 75/12/3 76/13/3 73/10/3

v -0.165811 0.39491 0.0421725
f 77/14/3 76/13/3 75/12/3

f 77/14/3 27/15/3 76/13/3

v -0.165811 0.1524 0.0421725
f 78/17/3 27/15/3 77/14/3

f 27/15/3 78/17/3 26/16/3

f 23/21/3 26/20/3 78/19/3

f 26/20/3 23/21/3 25/18/3

vt 2.48649 0.359771
f 77/66/6 23/21/6 78/19/6

v -0.165811 0.39491 0.346972
vt 2.48649 0.309771
f 79/67/6 23/21/6 77/66/6

v -0.165811 3.70024e-16 0.346972
vt 3.03548 0.309771
f 23/21/6 79/67/6 80/68/6

vn 0.5592 0.322854 0.763584
v -0.321887 3.70024e-16 0.499372
vn 0.698631 2.68079e-16 0.715482
f 79/49/14 81/37/15 80/50/15

v -0.321887 0.3048 0.499372
f 81/37/15 79/49/14 82/36/14

vt 2.78192 0.137276
v -0.717599 0.533264 0.499372
vt 2.32074 0.0594905
vt 2.70596 0.0594905
f 79/69/14 83/70/14 82/71/14

v -0.561523 0.623375 0.346972
vt 2.39671 0.137276
f 83/70/14 79/69/14 84/72/14

vt 2.46006 0.309783
vn 0.5 0.866025 3.79541e-32
vt 2.16024 0.359783
vt 2.16024 0.309783
f 79/73/16 75/74/16 84/75/16

vt 2.46006 0.359783
f 75/74/16 79/73/16 77/76/16

vt 2.68298 0.359814
v -0.561523 0.900082 0.346972
vt 2.86455 0.309814
vt 2.68298 0.309814
f 75/77/6 85/78/6 84/79/6

vt 2.86455 0.359814
f 85/78/6 75/77/6 74/80/6

vn 0.5 -0.866025 -0
vt 1.87042 0.310174
vt 1.87042 0.360174
f 72/6/17 85/81/17 74/82/17

v -0.165811 1.12855 0.346972
f 85/81/17 72/6/17 86/5/17

v -0.165811 1.21498 0.346972
f 72/6/6 87/4/6 86/5/6

f 87/4/6 72/6/6 70/1/6

vn -2.98123e-16 -1 -0
f 3/3/18 87/4/18 70/1/18

f 87/4/18 3/3/18 2/2/18

v 0.439569 1.37106 0.499372
vt 1.11681 0.222123
vn -8.51865e-17 -0.698631 0.715482
vt 1.51405 0.257908
vn 0.401763 -0.401763 0.822906
vt 1.11681 0.257908
f 88/83/19 87/84/20 2/85/19

v -0.321887 1.37106 0.499372
vt 1.61646 0.222123
f 87/84/20 88/83/19 89/86/20

vt 1.11627 0.0594905
vn -2.37017e-16 -1 -5.00517e-34
v -0.321887 1.37106 0.651772
vt 1.61591 0.00514685
vt 1.61591 0.0594905
f 88/87/21 90/88/21 89/89/21

v 0.439569 1.37106 0.651772
vt 1.11627 0.00514685
f 90/88/21 88/87/21 91/90/21

v 1.20103 1.37106 0.499372
vn 2.37017e-16 -1 -5.00517e-34
f 92/89/22 91/90/22 88/87/22

v 1.20103 1.37106 0.651772
f 91/90/22 92/89/22 93/88/22

v 1.20103 1.21866 0.651772
vt 1.83329 0.00514685
f 92/89/2 94/91/2 93/88/2

v 1.20103 1.21866 0.499372
vt 1.83329 0.0594905
f 94/91/2 92/89/2 95/92/2

vt 1.61656 0.13521
vn -0.401763 -0.401763 0.822906
vt 1.61132 0.0574239
vn -0.5592 -0.322854 0.763584
vt 1.39394 0.0574239
f 4/93/23 95/94/24 92/95/23

vt 1.73984 0.13521
f 95/94/24 4/93/23 5/96/24

vt 1.23365 0.134761
v 1.59674 0.990192 0.499372
vt 1.68429 0.0569755
vt 1.30788 0.0569755
f 5/97/24 96/98/24 95/99/24

v 1.44066 0.900082 0.346972
vt 1.61006 0.134761
f 96/98/24 5/97/24 97/100/24

f 5/5/13 9/82/13 97/81/13

f 9/82/13 5/5/13 6/6/13

v 1.44066 0.623375 0.346972
f 9/80/2 98/79/2 97/78/2

f 98/79/2 9/80/2 10/77/2

vn -0.5 0.866025 3.79541e-32
f 12/76/25 98/75/25 10/74/25

v 1.04495 0.39491 0.346972
f 98/75/25 12/76/25 99/73/25

f 17/21/2 99/67/2 12/66/2

f 99/67/2 17/21/2 20/68/2

vn -0.698631 2.68079e-16 0.715482
v 1.20103 0.3048 0.499372
vn -0.5592 0.322854 0.763584
f 20/50/26 100/36/27 99/49/27

v 1.20103 3.70024e-16 0.499372
f 100/36/27 20/50/26 101/37/26

usemtl _1
f 20/26/4 21/27/4 101/34/4

usemtl oni_interior_elevator_shaft1_dif
f 21/35/2 100/36/2 101/37/2

v 1.20103 0.3048 0.651772
f 100/36/2 21/35/2 102/38/2

v 1.59674 0.533264 0.651772
f 21/39/7 103/40/7 102/41/7

v 1.96303 3.70024e-16 0.651772
f 104/42/7 103/40/7 21/39/7

v 1.96303 1.52346 0.651772
f 103/40/7 104/42/7 105/43/7

v 1.59674 0.990192 0.651772
f 103/40/7 105/43/7 106/44/7

f 106/44/7 105/43/7 94/45/7

f 94/45/7 105/43/7 93/46/7

v 0.439569 1.52346 0.651772
f 107/47/7 93/46/7 105/43/7

f 93/46/7 107/47/7 91/48/7

f 107/47/7 90/46/7 91/48/7

v -1.08389 1.52346 0.651772
f 108/43/7 90/46/7 107/47/7

v -0.321887 1.21866 0.651772
f 108/43/7 109/45/7 90/46/7

v -0.717599 0.990192 0.651772
f 108/43/7 110/44/7 109/45/7

v -0.717599 0.533264 0.651772
f 108/43/7 111/40/7 110/44/7

v -1.08389 3.70024e-16 0.651772
f 112/42/7 111/40/7 108/43/7

v -0.321887 0.3048 0.651772
f 112/42/7 113/41/7 111/40/7

v -0.321887 3.70024e-16 0.651772
f 113/41/7 112/42/7 114/39/7

f 81/37/6 113/38/6 114/35/6

f 113/38/6 81/37/6 82/36/6

vt 2.16941 0.0594905
vn 0.5 0.866025 -0
vt 2.82115 0.00514685
vt 2.82115 0.0594905
f 83/101/28 113/102/28 82/103/28

vt 2.16941 0.00514685
f 113/102/28 83/101/28 111/104/28

vt 1.8139 0.0594905
vt 1.16217 0.00514685
vt 1.8139 0.00514685
f 83/105/6 110/106/6 111/107/6

v -0.717599 0.990192 0.499372
vt 1.16217 0.0594905
f 110/106/6 83/105/6 115/108/6

vt 1.68538 0.137276
vn 0.5592 -0.322854 0.763584
f 84/109/14 115/108/29 83/105/14

vt 1.2907 0.137276
f 115/108/29 84/109/14 85/110/29

f 86/97/29 115/98/29 85/100/29

v -0.321887 1.21866 0.499372
f 115/98/29 86/97/29 116/99/29

f 87/93/20 116/94/29 86/96/29

f 116/94/29 87/93/20 89/95/20

f 90/88/6 116/92/6 89/89/6

f 116/92/6 90/88/6 109/91/6

vt 1.82769 0.00514685
vt 1.17595 0.0594905
vt 1.17595 0.00514685
f 110/111/17 116/112/17 109/113/17

vt 1.82769 0.0594905
f 116/112/17 110/111/17 115/114/17

usemtl _1
f 22/28/5 81/34/5 114/27/5

f 81/34/5 22/28/5 80/26/5

f 80/26/5 22/28/5 23/23/5

usemtl oni_interior_elevator_shaft1_dif
f 94/113/13 96/114/13 106/111/13

f 96/114/13 94/113/13 95/112/13

f 96/108/2 103/107/2 106/106/2

v 1.59674 0.533264 0.499372
f 103/107/2 96/108/2 117/105/2

f 96/108/24 98/109/27 117/105/27

f 98/109/27 96/108/24 97/110/24

f 99/69/27 117/70/27 98/72/27

f 117/70/27 99/69/27 100/71/27

f 100/103/12 103/104/12 117/101/12

f 103/104/12 100/103/12 102/102/12

f 17/21/2 12/66/2 15/19/2

vn 8.51865e-17 -0.698631 0.715482
f 88/83/30 4/84/23 92/86/23

f 4/84/23 88/83/30 2/85/30

usemtl _1
v -0.717599 0.533264 -0.109956
f 27/31/28 118/52/28 76/51/28

f 118/52/28 27/31/28 28/29/28

v -0.717599 0.533264 -0.262084
f 28/29/28 119/51/28 118/52/28

f 119/51/28 28/29/28 30/31/28

usemtl oni_interior_elevator_shaft1_dif
v -0.165811 0.39491 -0.262084
f 30/15/7 120/14/7 119/13/7

f 31/16/7 120/14/7 30/15/7

f 120/14/7 31/16/7 32/17/7

f 32/19/6 34/68/6 120/66/6

f 34/68/6 32/19/6 33/21/6

v -0.165811 0.39491 -0.566884
f 120/66/6 34/68/6 121/67/6

vn 0.698631 2.68079e-16 -0.715482
vn 0.5592 0.322854 -0.763584
f 34/50/31 38/36/32 121/49/32

f 38/36/32 34/50/31 37/37/31

v -0.717599 0.533264 -0.719284
f 122/70/32 121/69/32 38/71/32

v -0.561523 0.623375 -0.566884
f 121/69/32 122/70/32 123/72/32

v -0.717599 0.990192 -0.719284
vn 0.5592 -0.322854 -0.763584
f 124/108/33 123/109/32 122/105/32

v -0.561523 0.900082 -0.566884
f 123/109/32 124/108/33 125/110/33

v -0.165811 1.12855 -0.566884
f 124/98/33 126/97/33 125/100/33

v -0.321887 1.21866 -0.719284
f 126/97/33 124/98/33 127/99/33

f 124/114/17 44/113/17 127/112/17

f 44/113/17 124/114/17 43/111/17

f 124/108/6 40/107/6 43/106/6

f 40/107/6 124/108/6 122/105/6

f 38/103/28 40/104/28 122/101/28

f 40/104/28 38/103/28 39/102/28

v -0.321887 1.37106 -0.719284
f 44/91/6 128/89/6 127/92/6

f 128/89/6 44/91/6 45/88/6

vn -2.37017e-16 -1 5.00517e-34
f 47/90/34 128/89/34 45/88/34

v 0.439569 1.37106 -0.719284
f 128/89/34 47/90/34 129/87/34

vn 2.37017e-16 -1 5.00517e-34
f 48/88/35 129/87/35 47/90/35

v 1.20103 1.37106 -0.719284
f 129/87/35 48/88/35 130/89/35

v 1.20103 1.21866 -0.719284
f 48/88/2 131/92/2 130/89/2

f 131/92/2 48/88/2 50/91/2

f 51/111/13 131/112/13 50/113/13

v 1.59674 0.990192 -0.719284
f 131/112/13 51/111/13 132/114/13

v 1.59674 0.533264 -0.719284
f 51/106/2 133/105/2 132/108/2

f 133/105/2 51/106/2 52/107/2

f 54/102/12 133/101/12 52/104/12

f 133/101/12 54/102/12 57/103/12

f 58/69/10 133/70/10 57/71/10

v 1.44066 0.623375 -0.566884
f 133/70/10 58/69/10 134/72/10

vn -0.5 0.866025 -3.79541e-32
v 1.44066 0.623375 -0.262084
f 58/73/36 135/74/36 134/75/36

v 1.04495 0.39491 -0.262084
f 135/74/36 58/73/36 136/76/36

v 1.04495 0.1524 -0.262084
f 58/67/2 137/19/2 136/66/2

f 137/19/2 58/67/2 60/21/2

f 60/21/2 58/67/2 59/68/2

v 1.20103 0.1524 -0.262084
f 60/21/7 138/20/7 137/19/7

f 138/20/7 60/21/7 61/18/7

usemtl _1
f 61/31/2 62/32/2 138/30/2

usemtl oni_interior_elevator_shaft1_dif
f 62/15/7 137/17/7 138/16/7

f 137/17/7 62/15/7 136/14/7

v 1.59674 0.533264 -0.262084
f 136/14/7 62/15/7 139/13/7

usemtl _1
f 62/31/12 64/52/12 139/51/12

f 64/52/12 62/31/12 63/29/12

v 1.59674 0.990192 -0.262084
f 64/54/2 140/52/2 139/29/2

f 140/52/2 64/54/2 65/53/2

usemtl _1_3_
f 66/55/13 140/56/13 65/57/13

v 1.20103 1.21866 -0.262084
f 140/56/13 66/55/13 141/58/13

usemtl _1
v 1.20103 1.37106 -0.262084
f 66/61/2 142/62/2 141/59/2

f 142/62/2 66/61/2 67/60/2

v 0.439569 1.37106 -0.109956
vt -4.99382 2.99272
vn 0 -1 -0
f 143/115/37 142/62/37 67/60/37

v 0.439569 1.37106 -0.262084
vt -5.99346 2.99313
f 142/62/37 143/115/37 144/116/37

v -0.321887 1.37106 -0.109956
f 145/60/37 144/116/37 143/115/37

v -0.321887 1.37106 -0.262084
f 144/116/37 145/60/37 146/62/37

v -0.321887 1.21866 -0.262084
f 145/60/6 147/59/6 146/62/6

v -0.321887 1.21866 -0.109956
f 147/59/6 145/60/6 148/61/6

v -0.321887 1.37106 0.0421725
f 149/62/6 148/61/6 145/60/6

f 148/61/6 149/62/6 71/59/6

usemtl oni_interior_elevator_shaft1_dif
f 69/63/3 71/7/3 149/64/3

usemtl _1
f 149/62/37 143/115/37 69/116/37

f 143/115/37 149/62/37 145/60/37

f 67/60/37 69/116/37 143/115/37

f 69/116/37 67/60/37 68/62/37

usemtl _1_1_
vt 0 0
f 73/117/17 148/55/17 71/58/17

v -0.717599 0.990192 -0.109956
vt 1 0
f 148/55/17 73/117/17 150/118/17

usemtl _1
f 73/52/6 118/54/6 150/53/6

f 118/54/6 73/52/6 76/29/6

f 119/29/6 150/53/6 118/54/6

v -0.717599 0.990192 -0.262084
f 150/53/6 119/29/6 151/52/6

usemtl oni_interior_elevator_shaft1_dif
v -0.561523 0.623375 -0.262084
f 119/13/7 152/12/7 151/10/7

f 119/13/7 120/14/7 152/12/7

vn 0.5 0.866025 -3.79541e-32
f 120/76/38 123/75/38 152/74/38

f 123/75/38 120/76/38 121/73/38

v -0.561523 0.900082 -0.262084
f 123/79/6 153/80/6 152/77/6

f 153/80/6 123/79/6 125/78/6

f 126/5/17 153/82/17 125/81/17

v -0.165811 1.12855 -0.262084
f 153/82/17 126/5/17 154/6/17

v -0.165811 1.21498 -0.262084
f 126/5/6 155/1/6 154/6/6

v -0.165811 1.21498 -0.566884
f 155/1/6 126/5/6 156/4/6

vn 0.401763 -0.401763 -0.822906
f 127/94/33 156/93/39 126/96/33

f 156/93/39 127/94/33 128/95/39

vn -7.63741e-17 -0.698631 -0.715482
f 129/83/40 156/84/39 128/86/39

v 0.439569 1.21498 -0.566884
f 156/84/39 129/83/40 157/85/40

vn 7.63741e-17 -0.698631 -0.715482
v 1.04495 1.21498 -0.566884
vn -0.401763 -0.401763 -0.822906
f 129/83/41 158/84/42 157/85/41

f 158/84/42 129/83/41 130/86/42

vn -0.5592 -0.322854 -0.763584
f 131/94/43 158/93/42 130/95/42

v 1.04495 1.12855 -0.566884
f 158/93/42 131/94/43 159/96/43

f 132/98/43 159/97/43 131/99/43

v 1.44066 0.900082 -0.566884
f 159/97/43 132/98/43 160/100/43

f 132/108/43 134/109/10 160/110/43

f 134/109/10 132/108/43 133/105/10

f 135/77/2 160/78/2 134/79/2

v 1.44066 0.900082 -0.262084
f 160/78/2 135/77/2 161/80/2

f 135/12/7 140/10/7 161/11/7

f 135/12/7 139/13/7 140/10/7

f 136/14/7 139/13/7 135/12/7

v 1.04495 1.12855 -0.262084
f 161/11/7 140/10/7 162/8/7

f 162/8/7 140/10/7 141/7/7

v 1.04495 1.21498 -0.262084
f 162/8/7 141/7/7 163/9/7

f 144/63/7 163/9/7 141/7/7

v 0.439569 1.21498 -0.262084
f 163/9/7 144/63/7 164/65/7

f 144/63/7 155/9/7 164/65/7

f 155/9/7 144/63/7 147/7/7

f 147/7/7 144/63/7 146/64/7

f 147/7/7 154/8/7 155/9/7

f 151/10/7 154/8/7 147/7/7

f 151/10/7 153/11/7 154/8/7

f 151/10/7 152/12/7 153/11/7

usemtl _1_2_
vt -2.22045e-16 0
f 147/55/17 150/119/17 151/118/17

vt -2.22045e-16 1
f 150/119/17 147/55/17 148/120/17

usemtl oni_interior_elevator_shaft1_dif
f 155/1/18 157/2/18 164/3/18

f 157/2/18 155/1/18 156/4/18

f 158/4/1 164/3/1 157/2/1

f 164/3/1 158/4/1 163/1/1

f 158/4/2 162/6/2 163/1/2

f 162/6/2 158/4/2 159/5/2

f 160/81/13 162/6/13 159/5/13

f 162/6/13 160/81/13 161/82/13

f 144/63/7 141/7/7 142/64/7

