# Alias OBJ Model File
# Exported from SketchUp, (c) 2000-2012 Trimble Navigation Limited
# File units = meters

mtllib health-pack-holder.mtl

g Mesh1 Object_0_1 skp33D1 OPTICAN_Health_pack_holder1 Model

usemtl _1
v -2.46683 -0.658276 -1.97689
vt 1.73761 -0.257204
vn -2.11238e-07 0 1
v -2.58151 -0.925156 -1.97689
vt 2.35156 -0.257204
v -2.46683 -0.925156 -1.97689
f 1/1/1 2/2/1 3/2/1

v -2.58151 -0.658276 -1.97689
f 2/2/1 1/1/1 4/1/1

v -2.46683 -0.658276 -1.83933
vt -1.51354 -1.23447
vn -7.4249e-08 -1 -1.81529e-08
vt -1.61208 -1.11626
vt -1.51354 -1.11626
f 5/3/2 4/4/2 1/5/2

v -2.31904 -0.658276 -1.52321
vt -1.38655 -1.5061
f 6/6/2 4/4/2 5/3/2

v -2.58151 -0.658276 -1.79934
vt -1.61208 -1.26882
f 4/4/2 6/6/2 7/7/2

usemtl _3
vt 1.30854e-09 0.4933
vn -0.724815 -1.54914e-08 0.688943
v -2.58151 0.0935895 -1.79934
vt 1 1
vt 2.22045e-16 1
f 6/8/3 8/9/3 7/10/3

v -2.31904 0.0935895 -1.52321
vt 1 0.493299
f 8/9/3 6/8/3 9/11/3

vn -0.371069 -4.04006e-08 0.928605
v -2.12959 0.0935894 -1.4475
vt 1 0.221947
f 6/8/4 10/12/4 9/11/4

v -2.12959 -0.658277 -1.4475
vt -1.30402e-07 0.221947
f 10/12/4 6/8/4 11/13/4

usemtl _1
v -2.26571 -0.658276 -1.56869
vt -1.34073 -1.46702
vt -1.22376 -1.57115
f 6/6/2 12/14/2 11/15/2

f 6/6/2 5/3/2 12/14/2

usemtl _4
vt -0.951924 -0.792702
vn -0.802631 -1.08278e-07 0.596476
v -2.26571 -0.925154 -1.56869
vt -0.823456 -0.999999
vt -0.823456 -0.792703
f 5/16/5 13/17/5 12/18/5

v -2.46683 -0.925156 -1.83933
vt -0.951924 -1
f 13/17/5 5/16/5 14/19/5

vt -0.951924 -0.792703
vn -1 0 -0
vt -1 -1
f 5/20/6 3/21/6 14/19/6

vt -1 -0.792703
f 3/21/6 5/20/6 1/22/6

usemtl _1
vn 4.78958e-08 1 -1.13135e-06
v -2.58151 -0.925156 -1.66572
vt -1.61208 -1.38364
f 3/5/7 15/23/7 14/3/7

f 15/23/7 3/5/7 2/4/7

vn -1 7.38273e-08 4.69889e-08
v -2.58151 -1.21584 -1.66572
vt 3.02028 -0.973048
vt 2.35156 -0.973048
f 2/2/8 16/24/8 15/25/8

v -2.58151 -1.21584 -2.0883
vt 3.02028 -0.000890292
f 16/24/8 2/2/8 17/26/8

v -2.58151 1.21584 -2.0883
vt -2.5738 -0.000890244
f 17/26/8 2/2/8 18/27/8

f 4/1/8 18/27/8 2/2/8

v -2.58151 0.0935894 -1.97689
vt 0.00793945 -0.257204
f 19/28/8 18/27/8 4/1/8

v -2.58151 0.963117 -1.97689
vt -1.99241 -0.257204
f 20/29/8 18/27/8 19/28/8

v -2.58151 1.21584 -1.97689
vt -2.5738 -0.257204
f 18/27/8 20/29/8 21/30/8

v -2.51847 0.963117 -1.84965
vt -0.858727 1.08396
vn -0.896071 3.22276e-07 0.443911
vt -1.00072 1.33669
vt -1.00072 1.08396
f 22/31/9 21/32/9 20/33/9

v -2.51847 1.21584 -1.84965
vt -0.858726 1.33669
f 21/32/9 22/31/9 23/34/9

vn -0.513394 2.11069e-07 0.858153
v -2.29671 1.21584 -1.71698
vt -0.600307 1.33669
f 22/31/10 24/35/10 23/34/10

v -2.29671 0.963117 -1.71698
vt -0.600307 1.08396
f 24/35/10 22/31/10 25/36/10

vt -0.822071 0.951293
vn -2.33811e-08 -1 1.85073e-07
v -0.800053 0.963117 -1.97689
vt 0.896351 0.824055
f 22/37/11 26/38/11 25/36/11

vt -0.885104 0.824055
f 26/38/11 22/37/11 20/39/11

vn 7.43966e-08 1.069e-08 1
v -2.34991 0.57198 -1.97689
vt -0.653503 0.549751
f 20/39/12 27/40/12 26/38/12

v -2.34991 0.470156 -1.97689
vt -0.653503 0.478342
f 20/39/12 28/41/12 27/40/12

v -2.46683 0.362266 -1.97689
vt -0.77043 0.402678
f 20/39/12 29/42/12 28/41/12

vt -0.885104 0.214256
f 19/43/12 29/42/12 20/39/12

v -2.46683 0.0935894 -1.97689
vt -0.77043 0.214256
f 29/42/12 19/43/12 30/44/12

vn 2.82049e-07 1 -1.96814e-07
v -2.46683 0.0935895 -1.83933
f 30/5/13 19/4/13 31/3/13

f 19/4/13 9/6/13 31/3/13

f 9/6/13 19/4/13 8/7/13

vt 1.73761 -0.665644
vt 0.00793931 -0.665644
f 19/28/8 7/45/8 8/46/8

f 7/45/8 19/28/8 4/1/8

v -2.26571 0.0935895 -1.56869
f 31/3/13 9/6/13 32/14/13

f 32/14/13 9/6/13 10/15/13

v -2.1124 0.0935894 -1.50407
vt -1.20899 -1.52255
f 32/14/13 10/15/13 33/47/13

usemtl _3
vt 1 -0.532045
vn 0.956805 -3.84958e-08 0.290732
v -2.12466 0.0776554 -1.46372
vt 0.978807 -0.55361
vt 1 -0.607273
f 10/48/14 34/49/14 33/50/14

vt -4.79739e-08 -0.532045
f 34/49/14 10/48/14 11/51/14

v -2.12466 -0.642342 -1.46372
vt 0.0211927 -0.55361
f 11/51/14 35/52/14 34/49/14

v -2.1124 -0.658276 -1.50407
vt 7.50883e-08 -0.607273
f 35/52/14 11/51/14 36/53/14

usemtl _1
f 11/15/2 12/14/2 36/47/2

usemtl _4_1_
vt 1.55267e-07 0.207297
vn -0.38844 -1.64984e-08 0.921474
v -1.9865 -0.858465 -1.45099
vt 1 0.0518006
vt 0.549092 0.207297
f 12/54/15 37/55/15 36/56/15

vt 0 7.52617e-08
f 13/57/15 37/55/15 12/54/15

v -1.9865 -0.925154 -1.45099
vt 1 0
f 37/55/15 13/57/15 38/58/15

usemtl _1
v -2.06798 -0.925156 -1.33929
vt -1.17082 -1.66413
vt -1.10081 -1.56815
f 13/14/7 39/59/7 38/60/7

f 13/14/7 15/23/7 39/59/7

f 15/23/7 13/14/7 14/3/7

vt -1.00142 -1.91443
vn -0.536452 1.39256e-07 0.843931
vt -0.478562 -1.66465
vt -1.00142 -1.66465
f 16/61/16 39/62/16 15/63/16

v -2.06798 -1.21584 -1.33929
vt -0.478562 -1.91443
f 39/62/16 16/61/16 40/64/16

vn 1.60545e-07 1.00339e-14 1
v -1.69078 -0.925156 -1.33929
vt -0.154439 -1.66465
f 40/64/17 41/65/17 39/62/17

v -1.69078 -1.21584 -1.33929
vt -0.154439 -1.91443
f 41/65/17 40/64/17 42/66/17

vt -0.846701 -1.91391
vn 1.60545e-07 3.01017e-14 1
v -1.31358 -0.925156 -1.33929
vt -0.522578 -1.66413
vt -0.8467 -1.66413
f 42/67/18 43/68/18 41/69/18

v -1.31358 -1.21584 -1.33929
vt -0.522578 -1.91391
f 43/68/18 42/67/18 44/70/18

vn 0.536452 3.18922e-08 0.843931
v -0.800053 -0.925156 -1.66572
vt 0.000282677 -1.66413
f 44/70/19 45/71/19 43/68/19

v -0.800053 -1.21584 -1.66572
vt 0.000282562 -1.91391
f 45/71/19 44/70/19 46/72/19

vt 3.02028 -0.973047
vn 1 -5.17208e-08 1.0508e-07
v -0.800053 -0.925156 -1.97689
vt 2.35156 -0.257203
vt 2.35156 -0.973047
f 46/73/20 47/74/20 45/75/20

v -0.800053 -1.21584 -2.0883
vt 3.02028 -0.000889416
f 47/74/20 46/73/20 48/76/20

v -0.800053 1.21584 -2.0883
vt -2.5738 -0.000889534
f 47/74/20 48/76/20 49/77/20

usemtl _7
vt 35.068 -47.8677
vn -8.1585e-08 3.6448e-08 -1
vt -35.068 47.8677
vt -35.068 -47.8677
f 17/78/21 49/79/21 48/80/21

vt 35.068 47.8677
f 49/79/21 17/78/21 18/81/21

usemtl _1
vt -0.885104 1.70801
vn 5.90218e-08 1 -7.67126e-16
vt -0.82207 1.46936
vt 0.896351 1.70801
f 18/82/22 23/83/22 49/84/22

vt -0.885104 1.5966
f 23/83/22 18/82/22 21/85/22

f 49/84/22 23/83/22 24/35/22

v -1.08485 1.21584 -1.71698
vt 0.611555 1.33669
f 49/84/22 24/35/22 50/86/22

vn 9.82235e-08 -6.2038e-08 1
v -2.26847 1.19371 -1.71698
vt -0.572068 1.31456
f 24/35/23 51/87/23 50/86/23

v -2.26847 0.985247 -1.71698
vt -0.572068 1.10609
f 24/35/23 52/88/23 51/87/23

f 25/36/23 52/88/23 24/35/23

v -1.11309 0.985247 -1.71698
vt 0.583316 1.10609
f 52/88/23 25/36/23 53/89/23

v -1.08485 0.963117 -1.71698
vt 0.611555 1.08396
f 54/90/23 53/89/23 25/36/23

f 53/89/23 54/90/23 50/86/23

vn 0.513394 9.84168e-08 0.858153
v -0.863086 1.21584 -1.84965
vt 0.869974 1.33669
f 54/90/24 55/91/24 50/86/24

v -0.863086 0.963117 -1.84965
vt 0.869974 1.08396
f 55/91/24 54/90/24 56/92/24

vt 0.833318 0.951293
f 54/90/11 26/38/11 56/93/11

f 25/36/11 26/38/11 54/90/11

vt 1.00026 1.08396
vn 0.896071 1.50501e-07 0.443912
vt 0.858267 1.33669
vt 0.858267 1.08396
f 26/94/25 55/95/25 56/96/25

v -0.800053 1.21584 -1.97689
vt 1.00026 1.33669
f 55/95/25 26/94/25 57/97/25

vt -1.99241 -0.257203
vt -2.5738 -0.257203
f 26/98/20 49/77/20 57/99/20

f 49/77/20 26/98/20 47/74/20

v -0.800053 0.0935893 -1.97689
vt 0.00793948 -0.257203
f 58/100/20 47/74/20 26/98/20

v -0.800053 -0.658277 -1.97689
vt 1.73761 -0.257203
f 58/100/20 59/101/20 47/74/20

v -0.800053 -0.658277 -1.79934
f 58/100/20 60/45/20 59/101/20

v -0.800053 0.0935894 -1.79934
vt 0.00793934 -0.665644
f 60/45/20 58/100/20 61/102/20

v -0.914726 0.0935894 -1.97689
vt -0.179855 -1.11627
vn -6.05815e-08 1 -8.44496e-08
vt -0.0813193 -1.26882
vt -0.0813193 -1.11627
f 62/103/26 61/104/26 58/105/26

v -0.914726 0.0935894 -1.83933
vt -0.179855 -1.23447
f 63/106/26 61/104/26 62/103/26

v -1.06252 0.0935894 -1.52321
vt -0.306851 -1.5061
f 63/106/26 64/107/26 61/104/26

v -1.11585 0.0935894 -1.56869
vt -0.352675 -1.46702
f 65/108/26 64/107/26 63/106/26

v -1.25197 0.0935893 -1.4475
vt -0.469645 -1.57115
f 65/108/26 66/109/26 64/107/26

v -1.26916 0.0935894 -1.50407
vt -0.484413 -1.52255
f 66/109/26 65/108/26 67/110/26

usemtl _4_2_
v -1.11585 0.362264 -1.56869
vn 0.38844 -8.7564e-08 0.921474
vt 0.450908 0.791307
vt 1 0.791307
f 68/9/27 67/111/27 65/112/27

v -1.39506 0.340218 -1.45099
vt 0 0.982876
f 67/111/27 68/9/27 69/113/27

v -1.39506 0.362265 -1.45099
vt 4.69426e-07 1
f 69/113/27 68/9/27 70/114/27

usemtl _2
v -1.17035 0.470159 -1.64186
vt 1.04624 0.220908
vn 0.300206 0.634588 0.712161
vt 0.763912 0.0835854
vt 1.06691 0.0811307
f 71/115/28 70/116/28 68/117/28

v -1.45204 0.470159 -1.5188
vt 0.738838 0.220908
vn 0.31453 0.618612 0.719993
f 72/118/29 70/116/29 71/115/29

vt 0.734331 0.212039
vn 1.68719e-07 0.532108 0.846677
v -1.9865 0.362265 -1.45099
vt 0.199872 0.0846064
vt 0.791315 0.0846064
f 72/119/30 73/120/30 70/121/30

v -1.92952 0.470159 -1.5188
vt 0.256857 0.212039
f 73/120/30 72/119/30 74/122/30

v -1.45204 0.571982 -1.5188
vt 0.733424 0.335836
vn 2.66345e-07 -2.97371e-07 1
vt 0.25595 0.234013
vt 0.733424 0.234013
f 75/123/31 74/124/31 72/125/31

v -1.92952 0.571982 -1.5188
vt 0.25595 0.335836
f 74/124/31 75/123/31 76/126/31

usemtl _1
v -1.03165 0.57198 -1.97689
vt -0.280328 -1.11627
vn 3.23843e-08 1 -3.28e-06
vt -1.05184 -1.50989
vt -0.64156 -1.50989
f 77/127/32 76/128/32 75/129/32

v -2.21121 0.571982 -1.64186
vt -1.2939 -1.40415
f 77/127/32 78/130/32 76/128/32

v -2.34991 0.57198 -1.83933
vt -1.41307 -1.23447
f 77/127/32 79/131/32 78/130/32

vt -1.41307 -1.11627
f 79/131/32 77/127/32 27/132/32

vt 0.664751 0.549751
f 77/133/12 26/38/12 27/40/12

v -1.03165 0.470156 -1.97689
vt 0.664751 0.478342
f 80/134/12 26/38/12 77/133/12

v -0.914726 0.362266 -1.97689
vt 0.781678 0.402678
f 81/135/12 26/38/12 80/134/12

vt 0.781678 0.214256
f 62/136/12 26/38/12 81/135/12

vt 0.896351 0.214256
f 26/38/12 62/136/12 58/137/12

usemtl _4
v -0.914726 0.362266 -1.83933
vt -0.951924 2.47345e-07
vn 1 0 -0
vt -1 -0.208693
vt -1 2.2009e-07
f 82/138/33 62/139/33 81/140/33

vt -0.951924 -0.208693
f 62/139/33 82/138/33 63/141/33

vt -0.823456 -5.32691e-06
vn 0.802631 3.91866e-07 0.596476
vt -0.951924 -0.208692
vt -0.951924 3.97312e-07
f 68/142/34 63/143/34 82/144/34

vt -0.823456 -0.208696
f 63/143/34 68/142/34 65/145/34

usemtl _2
vt 1.35236 0.0759849
vn 0.62372 0.629381 0.463522
vt 1.04385 0.220194
vt 1.01522 0.0818267
f 82/146/35 71/147/35 68/148/35

vn 0.612241 0.663514 0.430013
v -1.03165 0.470156 -1.83933
vt 1.28515 0.220192
f 82/146/36 83/149/36 71/147/36

vt 1.2873 0.0737789
vn 0.678137 0.734936 4.47072e-08
vt 1.42486 0.232877
vt 1.2873 0.232878
f 82/150/37 80/151/37 83/152/37

vt 1.42486 0.0737789
f 80/151/37 82/150/37 81/153/37

vt 1.42501 0.233722
vn 1 1.25672e-13 7.04358e-07
v -1.03165 0.57198 -1.83933
vt 1.28744 0.335546
vt 1.28744 0.233722
f 80/154/38 84/155/38 83/156/38

vt 1.42501 0.335546
f 84/155/38 80/154/38 77/157/38

usemtl _1
v -1.17035 0.571982 -1.64186
vt -0.399504 -1.40415
vt -0.280328 -1.23447
f 77/127/32 85/158/32 84/159/32

f 77/127/32 75/129/32 85/158/32

usemtl _2
vt 0.738737 0.233725
vn 0.400319 -1.70385e-07 0.916376
vt 1.04614 0.335548
vt 0.738737 0.335548
f 72/160/39 85/161/39 75/162/39

vt 1.04614 0.233725
f 85/161/39 72/160/39 71/163/39

vn 0.818319 3.41842e-08 0.574764
f 71/163/40 84/155/40 85/161/40

f 84/155/40 71/163/40 83/156/40

vt -0.425007 0.335546
vn -1 0 7.04358e-07
v -2.34991 0.470156 -1.83933
vt -0.287445 0.233722
vt -0.287445 0.335546
f 27/164/41 86/165/41 79/166/41

vt -0.425007 0.233722
f 86/165/41 27/164/41 28/167/41

vt -0.425007 0.0746238
vn -0.678137 0.734936 1.74122e-07
f 29/168/42 86/165/42 28/167/42

v -2.46683 0.362266 -1.83933
vt -0.287447 0.0746238
f 86/165/42 29/168/42 87/169/42

usemtl _4
vt -1 2.95743e-08
vn -1 1.80316e-07 -4.76283e-14
vt -0.951924 1.91982e-08
f 29/170/43 31/141/43 87/171/43

f 31/141/43 29/170/43 30/139/43

vn -0.802631 3.06059e-07 0.596477
v -2.26571 0.362264 -1.56869
vt -0.823456 -5.27317e-06
vt -0.951924 4.32236e-07
f 31/143/44 88/172/44 87/173/44

f 88/172/44 31/143/44 32/145/44

usemtl _4_1_
vt 1.8632e-07 0.791307
v -1.9865 0.340218 -1.45099
vt 1 0.982876
vt 1.47333e-07 1
f 32/174/15 89/175/15 88/176/15

vt 0.549092 0.791307
f 33/177/15 89/175/15 32/174/15

v -1.9865 -0.272597 -1.45099
vt 1 0.506872
f 33/177/15 90/178/15 89/175/15

v -1.9865 -0.388618 -1.45099
vt 1 0.416753
f 33/177/15 91/179/15 90/178/15

f 36/56/15 91/179/15 33/177/15

f 91/179/15 36/56/15 37/55/15

usemtl _4
v -1.9865 -0.468817 -1.57922
vt -0.999998 -0.645541
vn 1 -5.15558e-08 2.02455e-05
vt -1 -0.583247
vt -1 -0.948199
f 92/180/45 91/181/45 37/182/45

vn 5.75768e-08 -0.84783 0.530268
v -1.39506 -0.388618 -1.45099
vt -0.535564 -0.583247
f 92/180/46 93/183/46 91/181/46

v -1.39506 -0.468817 -1.57922
vt -0.535566 -0.645541
f 93/183/46 92/180/46 94/184/46

vn -2.23906e-07 0.312595 0.949886
v -1.94094 -0.502881 -1.56801
vt -0.964225 -0.672
f 92/180/47 95/185/47 94/184/47

v -1.94095 -0.824401 -1.4622
vt -0.964227 -0.92174
f 92/180/47 96/186/47 95/185/47

f 37/182/47 96/186/47 92/180/47

v -1.39506 -0.858463 -1.45099
vt -0.535564 -0.948198
f 96/186/47 37/182/47 97/187/47

v -1.43299 -0.874162 -1.45099
vt -0.565352 -0.960392
vn 3.07173e-07 -5.44826e-07 1
f 98/188/48 97/187/48 37/182/48

v -1.43299 -0.909456 -1.45099
vt -0.565352 -0.987807
f 99/189/48 97/187/48 98/188/48

v -1.39506 -0.925154 -1.45099
vt -0.535564 -1
f 99/189/48 100/190/48 97/187/48

f 100/190/48 99/189/48 38/21/48

v -1.56529 -0.909456 -1.45099
vt -0.669238 -0.987807
f 101/191/48 38/21/48 99/189/48

v -1.95536 -0.909456 -1.45099
vt -0.975547 -0.987807
f 102/192/48 38/21/48 101/191/48

f 38/21/48 102/192/48 37/182/48

v -1.95536 -0.874163 -1.45099
vt -0.975547 -0.960393
f 37/182/48 102/192/48 103/193/48

usemtl _6
v -1.95536 -0.909456 -1.43939
vt 10.8036 -35.8054
vt 10.3467 -34.4159
vt 10.3467 -35.8054
f 104/194/6 103/195/6 102/196/6

v -1.95536 -0.874163 -1.43939
vt 10.8036 -34.4159
f 103/195/6 104/194/6 105/197/6

vt -10.4166 -35.8053
vn -2.74485e-07 -1.02951e-06 1
v -1.82299 -0.874163 -1.43939
vt -5.20499 -34.4158
vt -10.4166 -34.4159
f 104/198/49 106/199/49 105/200/49

v -1.82299 -0.909456 -1.43939
vt -5.20499 -35.8053
f 106/199/49 104/198/49 107/201/49

vt 10.4165 -10.8036
vn -7.31966e-07 -1 -0
v -1.82299 -0.909456 -1.45099
vt 5.20496 -10.3467
vt 5.20496 -10.8036
f 104/202/50 108/203/50 107/204/50

vt 10.4165 -10.3467
f 108/203/50 104/202/50 102/205/50

usemtl _4
vt -0.871599 -0.987807
f 102/192/48 101/191/48 108/206/48

v -1.56529 -0.874163 -1.45099
vt -0.669238 -0.960393
f 109/207/48 108/206/48 101/191/48

v -1.82299 -0.874163 -1.45099
vt -0.871599 -0.960393
f 108/206/48 109/207/48 110/208/48

f 110/208/48 109/207/48 98/188/48

usemtl _6
vt 4.94046 -10.3467
vn -5.12682e-06 1 -0
v -1.43299 -0.874162 -1.43939
vt 10.1489 -10.8036
vt 10.1489 -10.3466
f 109/209/51 111/210/51 98/211/51

v -1.56529 -0.874163 -1.43939
vt 4.94046 -10.8036
f 111/210/51 109/209/51 112/212/51

v -1.56529 -0.909456 -1.43939
f 109/195/6 113/194/6 112/197/6

f 113/194/6 109/195/6 101/196/6

vt -10.1491 -10.3466
vn 0 -1 -0
vt -4.94064 -10.8036
vt -4.94064 -10.3467
f 99/213/52 113/214/52 101/215/52

v -1.43299 -0.909456 -1.43939
vt -10.1491 -10.8036
f 113/214/52 99/213/52 114/216/52

vt -10.3466 -35.8054
vt -10.8036 -34.4158
vt -10.8036 -35.8054
f 99/217/33 111/218/33 114/219/33

vt -10.3466 -34.4158
f 111/218/33 99/217/33 98/220/33

vt 10.1491 -34.4158
vn 3.66202e-07 0 1
vt 4.94064 -35.8054
vt 10.1491 -35.8054
f 111/221/53 113/222/53 114/223/53

vt 4.94064 -34.4159
f 113/222/53 111/221/53 112/224/53

usemtl _4
f 37/182/48 110/208/48 98/188/48

f 37/182/48 103/193/48 110/208/48

usemtl _6
vt -10.4167 -10.3467
vn -4.3918e-06 1 -0
vt -5.20514 -10.8036
vt -5.20514 -10.3467
f 103/225/54 106/226/54 110/227/54

vt -10.4167 -10.8036
f 106/226/54 103/225/54 105/228/54

vt -10.8036 -34.4159
vn 1 -6.86342e-07 -0
vt -10.3467 -35.8054
vt -10.3467 -34.4159
f 106/229/55 108/230/55 110/231/55

f 108/230/55 106/229/55 107/219/55

usemtl _1
vt -0.592594 -1.56815
f 38/60/7 41/69/7 100/232/7

f 38/60/7 39/59/7 41/69/7

f 100/232/7 41/69/7 43/68/7

v -1.11585 -0.925154 -1.56869
f 100/232/7 43/68/7 115/108/7

vt -0.0813195 -1.38364
f 115/108/7 43/68/7 45/233/7

v -0.914726 -0.925156 -1.83933
f 115/108/7 45/233/7 116/106/7

v -0.914726 -0.925156 -1.97689
vt -0.179855 -1.11626
f 116/106/7 45/233/7 117/234/7

vt -0.0813192 -1.11626
f 117/234/7 45/233/7 47/235/7

vn 0 -9.07652e-08 1
f 59/101/56 117/74/56 47/74/56

v -0.914726 -0.658277 -1.97689
f 117/74/56 59/101/56 118/101/56

v -0.914726 -0.658277 -1.83933
f 59/235/52 119/106/52 118/234/52

f 60/104/52 119/106/52 59/235/52

v -1.06252 -0.658277 -1.52321
f 120/107/52 119/106/52 60/104/52

v -1.11585 -0.658277 -1.56869
f 120/107/52 121/108/52 119/106/52

v -1.25197 -0.658277 -1.4475
f 122/109/52 121/108/52 120/107/52

v -1.26916 -0.658277 -1.50407
f 121/108/52 122/109/52 123/110/52

usemtl _3
vt 1.23969e-08 -0.532045
vn -0.956805 8.31112e-08 0.290732
v -1.2569 -0.642343 -1.46372
vt 0.0211927 -0.553611
vt 4.22414e-09 -0.607273
f 122/236/57 124/237/57 123/238/57

v -1.2569 0.0776553 -1.46372
vt 0.978807 -0.553611
f 124/237/57 122/236/57 125/239/57

f 66/48/57 125/239/57 122/236/57

f 125/239/57 66/48/57 67/50/57

v -1.26423 0.0776553 -1.48785
vt 0.978807 -0.585707
f 125/239/57 67/50/57 126/240/57

v -1.26423 -0.642343 -1.48785
vt 0.0211927 -0.585707
f 126/240/57 67/50/57 127/241/57

f 123/238/57 127/241/57 67/50/57

f 123/238/57 124/237/57 127/241/57

vn 0 1 -0
v -1.25054 -0.642343 -1.49066
vt 0.0211927 -0.589448
f 124/237/58 128/242/58 127/241/58

v -1.2432 -0.642343 -1.46653
vt 0.0211927 -0.557351
f 128/242/58 124/237/58 129/243/58

vn -0.201106 5.03078e-08 -0.979569
f 125/239/59 129/243/59 124/237/59

v -1.2432 0.0776553 -1.46653
vt 0.978807 -0.557351
f 129/243/59 125/239/59 130/244/59

v -1.25054 0.0776553 -1.49066
vt 0.978807 -0.589448
f 125/239/52 131/245/52 130/244/52

f 131/245/52 125/239/52 126/240/52

vn 0.201105 -5.91466e-08 0.97957
f 127/241/60 131/245/60 126/240/60

f 131/245/60 127/241/60 128/242/60

vn -0.956804 4.48181e-08 0.290732
f 129/243/61 131/245/61 128/242/61

f 131/245/61 129/243/61 130/244/61

usemtl _4_2_
vt 1.8632e-07 0.416753
vt 0.450908 0.207297
f 93/246/27 123/247/27 67/111/27

vt 3.41587e-07 0.0518021
f 97/248/27 123/247/27 93/246/27

vt 1 0.207297
f 97/248/27 121/249/27 123/247/27

vt 1 7.52617e-08
f 97/248/27 115/250/27 121/249/27

vt 4.15254e-07 0
f 115/250/27 97/248/27 100/251/27

usemtl _4
vn 0.802631 -2.21734e-07 0.596476
f 115/17/62 119/16/62 121/18/62

f 119/16/62 115/17/62 116/19/62

f 117/21/33 119/20/33 116/19/33

f 119/20/33 117/21/33 118/22/33

vn -1 -5.35666e-12 2.078e-05
f 94/184/63 97/187/63 93/183/63

v -1.44061 -0.824399 -1.4622
vt -0.571336 -0.921739
f 132/252/47 97/187/47 94/184/47

f 97/187/47 132/252/47 96/186/47

vn -3.40206e-06 0.958052 -0.286595
v -1.94095 -0.827714 -1.47328
vt -0.964227 -0.924314
f 132/252/64 133/253/64 96/186/64

v -1.44061 -0.827712 -1.47328
vt -0.571336 -0.924312
f 133/253/64 132/252/64 134/254/64

v -1.44062 -0.502881 -1.56801
vt -0.571338 -0.672
vn -1 -6.82831e-06 -1.44846e-07
f 135/255/65 134/254/65 132/252/65

v -1.44062 -0.506194 -1.57909
vt -0.571338 -0.674573
f 134/254/65 135/255/65 136/256/65

vn 1.00597e-07 -0.958052 0.286595
f 95/185/66 136/256/66 135/255/66

v -1.94094 -0.506194 -1.57909
vt -0.964225 -0.674573
f 136/256/66 95/185/66 137/257/66

vn 1 -6.24151e-06 1.8671e-06
f 95/185/67 133/253/67 137/257/67

f 133/253/67 95/185/67 96/186/67

usemtl _5
vt 0.223662 -1.7761
vn -2.68903e-07 0.312595 0.949886
vt 0.00853244 -1.2433
vt 0.00853151 -1.77611
f 134/258/68 137/259/68 133/260/68

vt 0.223661 -1.2433
f 137/259/68 134/258/68 136/261/68

usemtl _4
f 135/255/47 94/184/47 95/185/47

f 132/252/47 94/184/47 135/255/47

usemtl _4_2_
v -1.39506 -0.272597 -1.45099
vt 1.8632e-07 0.506872
f 93/246/27 67/111/27 138/262/27

f 138/262/27 67/111/27 69/113/27

usemtl _4
vt 0.00276912 -0.605244
vn -0.697484 -1.46247e-07 0.716601
v -1.45804 -0.207341 -1.51229
vt -0.0248754 -0.364897
vt 0.00276916 -0.336254
f 69/263/69 139/264/69 138/265/69

v -1.45804 0.274962 -1.51229
vt -0.0248754 -0.5766
f 139/264/69 69/263/69 140/266/69

vn -3.25986e-09 -0.684669 0.728854
v -1.92352 0.274962 -1.51229
vt -0.229195 -0.5766
f 69/263/70 141/267/70 140/266/70

vt -0.25684 -0.605244
f 141/267/70 69/263/70 89/268/70

vt -0.535564 9.62345e-06
vn 1.22869e-07 7.69124e-06 1
vt -1 -0.0171147
vt -0.535564 -0.0171148
f 70/269/71 89/270/71 69/271/71

vt -1 9.7001e-06
f 89/270/71 70/269/71 73/272/71

usemtl _4_1_
f 88/176/15 89/175/15 73/9/15

usemtl _2
v -2.21121 0.470159 -1.64186
vt -0.0512176 0.221472
vn -0.300206 0.634588 0.712161
vt -0.0718825 0.0816942
vt 0.231111 0.0841489
f 142/273/72 88/274/72 73/275/72

vt -0.0568602 0.220481
vn -0.62372 0.629381 0.463522
vt -0.365371 0.0762715
vt -0.0282374 0.0821134
f 142/276/73 87/277/73 88/278/73

vn -0.612241 0.663514 0.430013
vt -0.298165 0.220478
f 142/276/74 86/279/74 87/277/74

vt -0.0461403 0.233725
vn -0.818319 0 0.574764
f 142/280/75 79/166/75 86/165/75

vt -0.0461403 0.335548
f 79/166/75 142/280/75 78/281/75

vt -0.0514534 0.234013
vn -0.400319 -2.11119e-07 0.916376
vt -0.0514534 0.335836
f 142/282/76 76/126/76 78/283/76

f 76/126/76 142/282/76 74/124/76

vn -0.314529 0.618612 0.719994
vt 0.256186 0.221472
f 142/273/77 73/275/77 74/284/77

usemtl _4
vn 0.697484 -1.06437e-07 0.7166
v -1.92352 -0.207341 -1.51229
vt -0.229195 -0.364897
f 89/268/78 143/285/78 141/267/78

vt -0.25684 -0.336254
f 143/285/78 89/268/78 90/286/78

vt -0.256963 0.397947
vn 1.15687e-07 0.68467 0.728853
vt -0.0249986 0.42659
vt -0.229318 0.42659
f 90/287/79 139/288/79 143/289/79

vt 0.0026459 0.397947
f 139/288/79 90/287/79 138/290/79

usemtl _2
vt 8.21565e-15 -1.08449
vn 1.84303e-07 -1.04392e-07 1
vt 1 -1
vt 2.22045e-16 -1
f 91/291/80 138/292/80 90/293/80

vt 1 -1.08449
f 138/292/80 91/291/80 93/294/80

usemtl _4
vn 1.30098e-07 -1.00448e-07 1
vt -0.229318 0.993024
f 139/288/81 141/295/81 143/289/81

vt -0.0249986 0.993023
f 141/295/81 139/288/81 140/296/81

usemtl _3
vt 1.50764e-08 -0.221947
vn 0.371069 -5.08236e-08 0.928605
vt 1 -0.4933
vt 1 -0.221948
f 122/297/82 64/298/82 66/299/82

vt 1.18324e-08 -0.4933
f 64/298/82 122/297/82 120/300/82

vn 0.724816 -2.21961e-08 0.688943
f 120/300/83 61/292/83 64/298/83

vt 0 -1
f 61/292/83 120/300/83 60/301/83

v -2.11733 -0.642342 -1.48785
f 144/241/14 36/53/14 33/50/14

f 35/52/14 36/53/14 144/241/14

v -2.13103 -0.642342 -1.49066
f 145/242/58 35/52/58 144/241/58

v -2.13836 -0.642342 -1.46653
f 35/52/58 145/242/58 146/243/58

v -2.13103 0.0776554 -1.49066
vt 0.978807 -0.589447
vn 0.956805 -8.39432e-08 0.29073
f 147/302/84 146/243/84 145/242/84

v -2.13836 0.0776554 -1.46653
f 146/243/84 147/302/84 148/244/84

f 147/302/52 34/49/52 148/244/52

v -2.11733 0.0776554 -1.48785
f 34/49/52 147/302/52 149/240/52

vn -0.201105 -7.85711e-08 0.97957
f 145/242/85 149/240/85 147/302/85

f 149/240/85 145/242/85 144/241/85

f 33/50/14 149/240/14 144/241/14

f 33/50/14 34/49/14 149/240/14

vn 0.201106 3.29563e-08 -0.97957
f 35/52/86 148/244/86 34/49/86

f 148/244/86 35/52/86 146/243/86

usemtl _1
vt 0.833318 1.46936
vt 0.896351 1.5966
f 49/84/22 55/303/22 57/304/22

f 49/84/22 50/86/22 55/303/22

v -1.11309 1.19371 -1.71698
vt 0.583316 1.31456
f 53/89/23 50/86/23 150/305/23

f 150/305/23 50/86/23 51/87/23

v -2.23082 1.1642 -1.79435
vt -0.534416 1.23175
vn 4.04969e-08 -0.934358 0.356336
f 151/306/87 150/305/87 51/87/87

v -1.69078 1.1642 -1.79435
vt 0.00562382 1.23175
f 150/305/87 151/306/87 152/307/87

usemtl _4
v -2.23082 1.01475 -1.79435
vt 0.473042 1.00043
vn 1.0653e-07 -1.21565e-07 1
vt 0.749277 0.468783
vt 0.749277 1.00043
f 153/308/88 152/309/88 151/310/88

v -1.69078 1.01475 -1.79435
vt 0.473042 0.468783
f 152/309/88 153/308/88 154/311/88

usemtl _1
vt -0.534416 1.1889
vn 3.25964e-08 0.934358 0.356336
vt 0.00562382 1.1889
f 153/312/89 53/89/89 154/313/89

f 53/89/89 153/312/89 52/88/89

vt -0.534781 1.28505
vn 0.899184 -1.97266e-07 0.437572
vt -0.620828 1.10609
vt -0.534781 1.1356
f 151/314/90 52/315/90 153/316/90

vt -0.620828 1.31456
f 52/315/90 151/314/90 51/317/90

v -1.15074 1.01475 -1.79435
vt 0.545664 1.1889
f 154/313/89 53/89/89 155/318/89

vn -0.899183 0 0.437572
v -1.15074 1.1642 -1.79435
vt 0.497268 1.28505
vt 0.497268 1.1356
f 53/89/91 156/319/91 155/320/91

f 156/319/91 53/89/91 150/305/91

vt 0.545664 1.23175
f 150/305/87 152/307/87 156/321/87

usemtl _4
vt 0.748994 1.4684
vn 1.0653e-07 -4.05216e-08 1
vt 0.472759 2.00005
vt 0.748994 2.00005
f 152/322/92 155/323/92 156/324/92

vt 0.472759 1.4684
f 155/323/92 152/322/92 154/325/92

