# Alias OBJ Model File
# Exported from SketchUp, (c) 2000-2012 Trimble Navigation Limited
# File units = meters

mtllib light-fixture.mtl

g Mesh1 Component_2_1 Model

usemtl _1
v -0.215131 0.262619 0.066205
vt -13.4173 6.14383
vn -0.34017 -0.193355 0.920271
v -0.235576 0.262619 0.0574984
vt -13.4285 6.14383
vn -0.45636 -0.138645 0.878927
v -0.262477 0.217885 0.029098
vt -13.4432 6.11933
vn -0.287987 -0.646559 0.706417
f 1/1/1 2/2/2 3/3/3

v -0.235576 1.56846 0.0574984
vt -13.4285 6.85901
vn -0.45636 0.138645 0.878927
f 1/1/1 4/4/4 2/2/2

v -0.215131 1.56846 0.066205
vt -13.4173 6.85901
vn -0.34017 0.193355 0.920271
f 4/4/4 1/1/1 5/5/5

v -0.189449 0.262619 0.0742766
vt -13.4032 6.14383
vn -0.258886 -0.24364 0.934675
f 6/6/6 5/5/5 1/1/1

v -0.189449 1.56846 0.0742766
vt -13.4032 6.85901
vn -0.258886 0.24364 0.934675
f 5/5/5 6/6/6 7/7/7

v -0.158969 0.262619 0.0815752
vt -13.3865 6.14383
vn -0.198541 -0.289594 0.936332
f 8/8/8 7/7/7 6/6/6

v -0.158969 1.56846 0.0815752
vt -13.3865 6.85901
vn -0.198541 0.289594 0.936332
f 7/7/7 8/8/8 9/9/9

v -0.124214 0.262619 0.0879759
vt -13.3675 6.14383
vn -0.15132 -0.33147 0.931252
f 10/10/10 9/9/9 8/8/8

v -0.124214 1.56846 0.0879759
vt -13.3675 6.85901
vn -0.15132 0.33147 0.931252
f 9/9/9 10/10/10 11/11/11

v -0.0857775 0.262619 0.0933692
vt -13.3464 6.14383
vn -0.112696 -0.369576 0.922341
f 12/12/12 11/11/11 10/10/10

v -0.0857775 1.56846 0.0933692
vt -13.3464 6.85901
vn -0.112696 0.369576 0.922341
f 11/11/11 12/12/12 13/13/13

v -0.0443178 0.262619 0.0976628
vt -13.3237 6.14383
vn -0.0798702 -0.40425 0.911155
f 14/14/14 13/13/13 12/12/12

v -0.0443178 1.56846 0.0976628
vt -13.3237 6.85901
vn -0.0798702 0.40425 0.911155
f 13/13/13 14/14/14 15/15/15

v -0.00054412 0.262619 0.100783
vt -13.2997 6.14383
vn -0.0509993 -0.435839 0.898578
f 16/16/16 15/15/15 14/14/14

v -0.00054412 1.56846 0.100783
vt -13.2997 6.85901
vn -0.0509993 0.435839 0.898578
f 15/15/15 16/16/16 17/17/17

v 0.0447946 0.262619 0.102677
vt -13.2749 6.14383
vn -0.0247758 -0.464688 0.885128
f 18/18/18 17/17/17 16/16/16

v 0.0447946 1.56846 0.102677
vt -13.2749 6.85901
vn -0.0247758 0.464688 0.885128
f 17/17/17 18/18/18 19/19/19

v 0.0909225 0.262619 0.103312
vt -13.2496 6.14383
vn -0.000196335 -0.491118 0.871093
f 20/20/20 19/19/19 18/18/18

v 0.0909225 1.56846 0.103312
vt -13.2496 6.85901
vn -0.000196335 0.491118 0.871093
f 19/19/19 20/20/20 21/21/21

v 0.13705 0.262619 0.102677
vt -13.2244 6.14383
vn 0.0197638 -0.574448 0.818302
f 22/22/22 21/21/21 20/20/20

v 0.13705 1.56846 0.102677
vt -13.2244 6.85901
vn 0.0197638 0.574448 0.818302
f 21/21/21 22/22/22 23/23/23

v 0.182389 0.262619 0.100783
vt -13.1995 6.14383
vn 0.0509993 -0.435839 0.898578
f 24/24/24 23/23/23 22/22/22

v 0.182389 1.56846 0.100783
vt -13.1995 6.85901
vn 0.0509993 0.435839 0.898578
f 23/23/23 24/24/24 25/25/25

v 0.204276 0.262619 0.099223
vt -13.1876 6.14383
vn 0.0645033 -0.420795 0.904859
f 26/26/26 25/25/25 24/24/24

v 0.204276 1.56846 0.099223
vt -13.1876 6.85901
vn 0.0645033 0.420795 0.904859
f 25/25/25 26/26/26 27/27/27

v 0.226163 0.262619 0.0976628
vt -13.1756 6.14383
vn 0.0798702 -0.40425 0.911155
f 27/27/27 26/26/26 28/28/28

v 0.444323 0.217885 0.029098
vt -13.0561 6.11933
vn 0.339488 -0.592731 0.730355
f 26/26/26 29/29/29 28/28/28

f 29/29/29 26/26/26 24/24/24

f 22/22/22 29/29/29 24/24/24

f 22/22/22 3/3/3 29/29/29

f 20/20/20 3/3/3 22/22/22

f 20/20/20 18/18/18 3/3/3

f 18/18/18 16/16/16 3/3/3

f 16/16/16 14/14/14 3/3/3

f 14/14/14 12/12/12 3/3/3

f 12/12/12 10/10/10 3/3/3

f 10/10/10 8/8/8 3/3/3

f 8/8/8 6/6/6 3/3/3

f 6/6/6 1/1/1 3/3/3

usemtl _2
v 0.484104 0.062628 0.029098
vt -5.68374 0.41862
vn -0.202554 0.202554 -0.958094
vt -0.693423 1.45639
vt -5.41783 1.45639
f 30/30/30 3/31/3 29/32/29

v -0.30359 0.062628 0.029098
vt -0.41862 0.41862
vn 0.202554 0.202554 -0.958094
f 31/33/31 3/31/3 30/30/30

v -0.262477 1.6132 0.029098
vt -0.693423 10.783
vn -0.287987 0.646559 0.706417
f 3/31/3 31/33/31 32/34/32

v -0.30359 1.76327 0.029098
vt -0.41862 11.7861
vn 0.202554 -0.202554 -0.958094
f 33/35/33 32/34/32 31/33/31

v 0.484104 1.76327 0.029098
vt -5.68374 11.7861
vn -0.202554 -0.202554 -0.958094
f 32/34/32 33/35/33 34/36/34

vt 0.41862 -9.64352
v 0.527523 1.80669 -0.000352027
vt 5.97396 -9.9942
vt 5.68374 -9.64352
f 33/37/33 35/38/34 34/39/34

v -0.347008 1.80669 -0.000352027
vt 0.128401 -9.9942
f 35/38/34 33/37/33 36/40/33

vt 11.7861 0.456944
v -0.347008 0.0192096 -0.000352027
vt 0.128401 0.106263
vt 12.0763 0.106263
f 33/41/33 37/42/31 36/43/33

vt 0.41862 0.456944
f 37/42/31 33/41/33 31/44/31

vt -0.41862 0.456944
v 0.527523 0.0192096 -0.000352027
vt -5.97396 0.106263
vt -0.128401 0.106263
f 31/45/31 38/46/30 37/47/31

vt -5.68374 0.456944
f 38/46/30 31/45/31 30/48/30

vt -0.41862 -4.59329
vt -12.0763 -4.94397
vt -0.128401 -4.94397
f 30/49/30 35/50/34 38/51/30

vt -11.7861 -4.59329
f 35/50/34 30/49/30 34/52/34

f 30/30/30 29/32/29 34/36/34

v 0.444323 0.262619 0.029098
vt -5.41783 1.75541
vn 0 -1.09736e-13 -1
f 39/53/35 34/36/34 29/32/29

v 0.444323 1.56846 0.029098
vt -5.41783 10.484
f 40/54/35 34/36/34 39/53/35

v 0.444323 1.6132 0.029098
vt -5.41783 10.783
vn 0.339488 0.592731 0.730355
f 41/55/36 34/36/34 40/54/35

f 32/34/32 34/36/34 41/55/36

usemtl _1
vt -13.0561 6.88351
vt -13.4432 6.88351
f 23/23/23 41/56/36 32/57/32

f 23/23/23 25/25/25 41/56/36

f 27/27/27 41/56/36 25/25/25

v 0.226163 1.56846 0.0976628
vt -13.1756 6.85901
vn 0.0798702 0.40425 0.911155
f 41/56/36 27/27/27 42/58/37

f 27/27/27 28/28/28 42/58/37

v 0.267623 0.262619 0.0933692
vt -13.1529 6.14383
vn 0.112696 -0.369576 0.922341
f 43/59/38 42/58/37 28/28/28

v 0.267623 1.56846 0.0933692
vt -13.1529 6.85901
vn 0.112696 0.369576 0.922341
f 42/58/37 43/59/38 44/60/39

v 0.306059 0.262619 0.0879759
vt -13.1318 6.14383
vn 0.15132 -0.33147 0.931252
f 45/61/40 44/60/39 43/59/38

v 0.306059 1.56846 0.0879759
vt -13.1318 6.85901
vn 0.15132 0.33147 0.931252
f 44/60/39 45/61/40 46/62/41

v 0.340814 0.262619 0.0815752
vt -13.1128 6.14383
vn 0.198541 -0.289594 0.936332
f 47/63/42 46/62/41 45/61/40

v 0.340814 1.56846 0.0815752
vt -13.1128 6.85901
vn 0.198541 0.289594 0.936332
f 46/62/41 47/63/42 48/64/43

v 0.371294 0.262619 0.0742766
vt -13.0961 6.14383
vn 0.258886 -0.24364 0.934675
f 49/65/44 48/64/43 47/63/42

v 0.371294 1.56846 0.0742766
vt -13.0961 6.85901
vn 0.258886 0.24364 0.934675
f 48/64/43 49/65/44 50/66/45

v 0.396976 0.262619 0.066205
vt -13.082 6.14383
vn 0.34017 -0.193355 0.920271
f 51/67/46 50/66/45 49/65/44

v 0.396976 1.56846 0.066205
vt -13.082 6.85901
vn 0.34017 0.193355 0.920271
f 50/66/45 51/67/46 52/68/47

v 0.417422 0.262619 0.0574984
vt -13.0708 6.14383
vn 0.45636 -0.138645 0.878927
f 53/69/48 52/68/47 51/67/46

v 0.417422 1.56846 0.0574984
vt -13.0708 6.85901
vn 0.45636 0.138645 0.878927
f 52/68/47 53/69/48 54/70/49

v 0.432281 0.262619 0.048306
vt -13.0627 6.14383
vn 0.629766 -0.080367 0.772616
f 55/71/50 54/70/49 53/69/48

v 0.432281 1.56846 0.048306
vt -13.0627 6.85901
vn 0.629766 0.080367 0.772616
f 54/70/49 55/71/50 56/72/51

v 0.441299 1.56846 0.0387848
vt -13.0577 6.85901
vn 0.862464 0.0255199 0.505475
f 55/71/50 57/73/52 56/72/51

v 0.441299 0.262619 0.0387848
vt -13.0577 6.14383
vn 0.862464 -0.0255199 0.505475
f 57/73/52 55/71/50 58/74/53

f 55/71/50 29/29/29 58/74/53

f 29/29/29 55/71/50 53/69/48

f 29/29/29 53/69/48 51/67/46

f 29/29/29 51/67/46 49/65/44

f 29/29/29 49/65/44 47/63/42

f 29/29/29 47/63/42 45/61/40

f 29/29/29 45/61/40 43/59/38

f 28/28/28 29/29/29 43/59/38

vt -13.0561 6.14383
vn 0.954585 3.26944e-14 0.297937
f 58/74/53 29/29/29 39/75/54

vt -13.0561 6.85901
vn 0.954585 3.26976e-14 0.297937
f 40/76/55 58/74/53 39/75/54

f 58/74/53 40/76/55 57/73/52

f 41/56/36 57/73/52 40/76/55

f 41/56/36 56/72/51 57/73/52

f 41/56/36 54/70/49 56/72/51

f 41/56/36 52/68/47 54/70/49

f 41/56/36 50/66/45 52/68/47

f 41/56/36 48/64/43 50/66/45

f 41/56/36 46/62/41 48/64/43

f 41/56/36 44/60/39 46/62/41

f 42/58/37 44/60/39 41/56/36

f 21/21/21 23/23/23 32/57/32

f 21/21/21 32/57/32 19/19/19

f 19/19/19 32/57/32 17/17/17

f 17/17/17 32/57/32 15/15/15

f 15/15/15 32/57/32 13/13/13

f 13/13/13 32/57/32 11/11/11

f 11/11/11 32/57/32 9/9/9

f 9/9/9 32/57/32 7/7/7

f 7/7/7 32/57/32 5/5/5

f 5/5/5 32/57/32 4/4/4

v -0.250436 1.56846 0.048306
vt -13.4366 6.85901
vn -0.629766 0.080367 0.772616
f 4/4/4 32/57/32 59/77/56

v -0.259454 1.56846 0.0387848
vt -13.4415 6.85901
vn -0.862464 0.0255199 0.505475
f 32/57/32 60/78/57 59/77/56

v -0.262477 1.56846 0.029098
vt -13.4432 6.85901
vn -0.954585 2.13601e-14 0.297937
f 32/57/32 61/79/58 60/78/57

usemtl _2
vt -0.693423 10.484
f 3/31/3 32/34/32 61/80/35

v -0.262477 0.262619 0.029098
vt -0.693423 1.75541
f 3/31/3 61/80/35 62/81/35

usemtl _1
vt -13.4432 6.14383
vn -0.954585 3.26912e-14 0.297937
f 62/82/59 60/78/57 61/79/58

v -0.259454 0.262619 0.0387848
vt -13.4415 6.14383
vn -0.862464 -0.0255199 0.505475
f 60/78/57 62/82/59 63/83/60

f 62/82/59 3/3/3 63/83/60

v -0.250436 0.262619 0.048306
vt -13.4366 6.14383
vn -0.629766 -0.080367 0.772616
f 63/83/60 3/3/3 64/84/61

f 2/2/2 64/84/61 3/3/3

f 2/2/2 59/77/56 64/84/61

f 59/77/56 2/2/2 4/4/4

f 59/77/56 63/83/60 64/84/61

f 63/83/60 59/77/56 60/78/57

usemtl _2
vt -5.97396 12.0763
v 0.546732 1.8259 -0.000352027
vt -6.10236 12.2047
vt -5.97396 0.128401
f 35/85/34 65/86/35 38/87/30

vt -0.128401 12.0763
f 36/88/33 65/86/35 35/85/34

v -0.366218 1.8259 -0.000352027
vt 0 12.2047
f 36/88/33 66/89/35 65/86/35

v -0.366218 0 -0.000352027
vt 0 0
f 66/89/35 36/88/33 67/90/35

vt -0.128401 0.128401
f 37/91/31 67/90/35 36/88/33

v 0.546732 0 -0.000352027
vt -6.10236 0
f 67/90/35 37/91/31 68/92/35

f 68/92/35 37/91/31 38/87/30

f 68/92/35 38/87/30 65/86/35

