# Alias OBJ Model File
# Exported from SketchUp, (c) 2000-2012 Trimble Navigation Limited
# File units = meters

mtllib platform-large.mtl

g Mesh1 Platform__Large1 Model

usemtl Color_003
v 0.779579 3 0.00686713
vt 68.8976 39.3701
vn 0 1 -0
v 0.0295785 3 -2.24313
vt 39.3701 127.953
v 0.0295785 3 -0.743133
vt 39.3701 68.8976
f 1/1/1 2/2/1 3/3/1

v 0.779579 3 -2.99313
vt 68.8976 157.48
f 2/2/1 1/1/1 4/4/1

v 2.27958 3 0.00686713
vt 127.953 39.3701
f 4/4/1 1/1/1 5/5/1

v 0.779579 2.9675 0.00686713
vt 68.8976 116.831
vn 0 0 1
vt 127.953 118.11
vt 68.8976 118.11
f 6/6/2 5/7/2 1/8/2

v 2.27958 2.9675 0.00686713
vt 127.953 116.831
f 5/7/2 6/6/2 7/9/2

usemtl Color_006
v 2.48669 2.9675 0.506867
vt 136.107 19.685
f 6/1/1 8/10/1 7/5/1

v 0.572472 2.9675 0.506867
vt 60.7438 19.685
f 6/1/1 9/11/1 8/10/1

v 0.0295785 2.9675 -0.743133
f 10/3/1 9/11/1 6/1/1

v -0.470421 2.9675 -0.536026
vt 19.685 60.7438
f 10/3/1 11/12/1 9/11/1

v -0.470421 2.9675 -2.45024
vt 19.685 136.107
f 11/12/1 10/3/1 12/13/1

v 0.0295785 2.9675 -2.24313
f 13/2/1 12/13/1 10/3/1

v 0.572472 2.9675 -3.49313
vt 60.7438 177.165
f 12/13/1 13/2/1 14/14/1

v 0.779579 2.9675 -2.99313
f 14/14/1 13/2/1 15/4/1

usemtl Color_003
vt -118.315 118.11
vn -0.707107 0 -0.707107
vt -160.073 116.831
vt -118.315 116.831
f 2/15/3 15/16/3 13/17/3

vt -160.073 118.11
f 15/16/3 2/15/3 4/18/3

usemtl Translucent_Glass_Tinted
v 0.572472 3 -3.49313
vt 2.53099 7.38189
vt 1.64042 5.33136
vt 2.87073 6.56168
f 16/19/1 2/20/1 4/21/1

v -0.470421 3 -2.45024
vt 0.82021 5.67111
f 17/22/1 2/20/1 16/19/1

vt 1.64042 2.87073
f 2/20/1 17/22/1 3/23/1

v -0.470421 3 -0.536026
vt 0.82021 2.53099
f 18/24/1 3/23/1 17/22/1

v 0.572472 3 0.506867
vt 2.53099 0.82021
f 3/23/1 18/24/1 19/25/1

usemtl Color_003
v -0.970421 3 1.00687
vt 0 0
f 18/12/1 20/26/1 19/11/1

v -0.970421 3 -3.99313
vt 0 196.85
f 20/26/1 18/12/1 21/27/1

f 17/13/1 21/27/1 18/12/1

f 16/14/1 21/27/1 17/13/1

v 4.02958 3 -3.99313
vt 196.85 196.85
f 21/27/1 16/14/1 22/28/1

v 2.48669 3 -3.49313
vt 136.107 177.165
f 22/28/1 16/14/1 23/29/1

vt 60.7438 116.831
vt 136.107 118.11
vt 60.7438 118.11
f 14/30/2 23/31/2 16/32/2

v 2.48669 2.9675 -3.49313
vt 136.107 116.831
f 23/31/2 14/30/2 24/33/2

usemtl Color_006
f 14/14/1 15/4/1 24/29/1

v 2.27958 2.9675 -2.99313
vt 127.953 157.48
f 24/29/1 15/4/1 25/34/1

usemtl Color_003
vt -68.8976 118.11
vn 0 0 -1
vt -127.953 116.831
vt -68.8976 116.831
f 4/35/4 25/36/4 15/37/4

v 2.27958 3 -2.99313
vt -127.953 118.11
f 25/36/4 4/35/4 26/38/4

f 4/4/1 5/5/1 26/34/1

v 3.02958 3 -2.24313
vt 157.48 127.953
f 26/34/1 5/5/1 27/39/1

v 3.02958 3 -0.743133
vt 157.48 68.8976
f 27/39/1 5/5/1 28/40/1

vt 118.315 116.831
vn 0.707107 0 0.707107
vt 160.073 118.11
vt 118.315 118.11
f 7/41/5 28/42/5 5/43/5

v 3.02958 2.9675 -0.743133
vt 160.073 116.831
f 28/42/5 7/41/5 29/44/5

usemtl Color_006
f 7/5/1 8/10/1 29/40/1

v 3.52958 2.9675 -0.536026
vt 177.165 60.7438
f 29/40/1 8/10/1 30/45/1

usemtl Color_003
v 2.48669 3 0.506867
vt -110.161 118.11
vt -168.227 116.831
vt -110.161 116.831
f 31/46/3 30/47/3 8/48/3

v 3.52958 3 -0.536026
vt -168.227 118.11
f 30/47/3 31/46/3 32/49/3

v 4.02958 3 1.00687
vt 196.85 0
f 31/10/1 33/50/1 32/45/1

f 19/11/1 33/50/1 31/10/1

f 19/11/1 20/26/1 33/50/1

usemtl Color_006
v -0.970421 2.8 1.00687
vt 0 110.236
vt 196.85 118.11
vt 0 118.11
f 34/51/2 33/52/2 20/53/2

v 4.02958 2.8 1.00687
vt 196.85 110.236
f 33/52/2 34/51/2 35/54/2

usemtl Color_003
v -0.970421 2.2 1.00687
vt 0 86.6142
f 36/55/2 35/54/2 34/51/2

v 4.02958 2.2 1.00687
vt 196.85 86.6142
f 35/54/2 36/55/2 37/56/2

usemtl Color_006
v -0.970421 2 1.00687
vt 0 78.7402
f 38/57/2 37/56/2 36/55/2

v 4.02958 2 1.00687
vt 196.85 78.7402
f 37/56/2 38/57/2 39/58/2

usemtl Color_003
vn 0 -1 -0
v 0.529579 2 0.00686713
vt -59.0551 39.3701
vt -196.85 0
f 38/26/6 40/59/6 39/60/6

v 0.0295785 2 -0.493133
vt -39.3701 59.0551
f 40/59/6 38/26/6 41/61/6

v 0.0295785 2 -2.49313
vt -39.3701 137.795
f 41/61/6 38/26/6 42/62/6

v -0.970421 2 -3.99313
f 43/27/6 42/62/6 38/26/6

v 0.529579 2 -2.99313
vt -59.0551 157.48
f 42/62/6 43/27/6 44/63/6

v 4.02958 2 -3.99313
vt -196.85 196.85
f 44/63/6 43/27/6 45/64/6

usemtl Color_006
v -0.970421 2.2 -3.99313
vt 2.27374e-13 86.6142
vn 1.15506e-15 0 -1
vt -196.85 78.7402
vt 2.27374e-13 78.7402
f 46/65/7 45/66/7 43/67/7

v 4.02958 2.2 -3.99313
vt -196.85 86.6142
f 45/66/7 46/65/7 47/68/7

usemtl Color_003
v -0.970421 2.8 -3.99313
vt 2.27374e-13 110.236
f 48/69/7 47/68/7 46/65/7

v 4.02958 2.8 -3.99313
vt -196.85 110.236
f 47/68/7 48/69/7 49/70/7

usemtl Color_006
vt 2.27374e-13 118.11
f 21/71/7 49/70/7 48/69/7

vt -196.85 118.11
f 49/70/7 21/71/7 22/72/7

vn 1 0 -0
f 33/53/8 49/54/8 22/52/8

f 49/54/8 33/53/8 35/51/8

usemtl Color_003
f 35/51/8 47/56/8 49/54/8

f 47/56/8 35/51/8 37/55/8

usemtl Color_006
f 37/55/8 45/58/8 47/56/8

f 45/58/8 37/55/8 39/57/8

usemtl Color_003
v 3.02958 2 -0.493133
vt -157.48 59.0551
f 39/60/6 50/73/6 45/64/6

v 2.99708 2 -0.493133
vt -156.201 59.0551
f 39/60/6 51/74/6 50/73/6

v 2.52958 2 0.00686713
vt -137.795 39.3701
f 39/60/6 52/75/6 51/74/6

f 39/60/6 40/59/6 52/75/6

v 2.52958 2 -0.0256329
vt -137.795 40.6496
f 40/59/6 53/76/6 52/75/6

v 0.529579 2 -0.0256329
vt -59.0551 40.6496
f 53/76/6 40/59/6 54/77/6

v 0.529579 2 -2.96063
vt -59.0551 156.201
f 40/59/6 55/78/6 54/77/6

f 40/59/6 44/63/6 55/78/6

v 0.0620785 2 -0.493133
vt -40.6496 59.0551
f 40/59/6 56/79/6 44/63/6

f 40/59/6 41/61/6 56/79/6

v 0.0620785 1.25 -0.493133
vt -40.6496 49.2126
vt -39.3701 78.7402
vt -40.6496 78.7402
f 57/80/4 41/81/4 56/82/4

v 0.0295785 1.25 -0.493133
vt -39.3701 49.2126
f 41/81/4 57/80/4 58/83/4

vt -40.6496 -17.7165
vn 0 0.8 -0.6
v 0.0295785 0.875 -0.993133
vt -39.3701 -42.3228
vt -39.3701 -17.7165
f 57/84/9 59/85/9 58/86/9

v 0.0620785 0.875 -0.993133
vt -40.6496 -42.3228
f 59/85/9 57/84/9 60/87/9

usemtl Color_006
vt -59.0551 49.2126
vn -1 0 -0
v 0.0620785 2 -2.49313
vt -137.795 78.7402
vt -78.7402 34.4488
f 57/88/10 61/89/10 60/90/10

vt -59.0551 78.7402
f 61/89/10 57/88/10 56/91/10

usemtl Color_003
vt -40.6496 137.795
f 61/92/6 44/63/6 56/79/6

f 42/62/6 44/63/6 61/92/6

v 0.0295785 1.25 -2.49313
vt 39.3701 49.2126
vt 40.6496 78.7402
vt 39.3701 78.7402
f 62/93/2 61/94/2 42/95/2

v 0.0620785 1.25 -2.49313
vt 40.6496 49.2126
f 61/94/2 62/93/2 63/96/2

vt 39.3701 139.764
vn 0 0.8 0.6
v 0.0620785 0.875 -1.99313
vt 40.6496 115.157
vt 40.6496 139.764
f 62/97/11 64/98/11 63/99/11

v 0.0295785 0.875 -1.99313
vt 39.3701 115.157
f 64/98/11 62/97/11 65/100/11

v 0.0295785 0.5 -2.49313
vt -137.795 19.685
vt -118.11 34.4488
vt -137.795 49.2126
f 66/101/10 65/102/10 62/103/10

f 66/101/10 59/90/10 65/102/10

v 0.0295785 0.5 -0.493133
vt -59.0551 19.685
f 67/104/10 59/90/10 66/101/10

f 67/104/10 58/88/10 59/90/10

f 67/104/10 41/91/10 58/88/10

v 0.0295785 0.5 0.00686713
vt -39.3701 19.685
f 68/105/10 41/91/10 67/104/10

v 0.0295785 2 0.00686713
f 41/91/10 68/105/10 69/81/10

vt 39.3701 19.685
v 0.529579 1.25 0.00686713
vt 59.0551 49.2126
f 68/106/2 70/107/2 69/95/2

v 1.02958 0.875 0.00686713
vt 78.7402 34.4488
f 70/107/2 68/106/2 71/108/2

v 2.02958 0.875 0.00686713
vt 118.11 34.4488
f 71/108/2 68/106/2 72/109/2

v 0.529579 0.5 0.00686713
vt 59.0551 19.685
f 73/110/2 72/109/2 68/106/2

v 2.52958 0.5 0.00686713
vt 137.795 19.685
f 74/111/2 72/109/2 73/110/2

v 2.52958 1.25 0.00686713
vt 137.795 49.2126
f 74/111/2 75/112/2 72/109/2

v 3.02958 2 0.00686713
vt 157.48 78.7402
f 74/111/2 76/113/2 75/112/2

v 3.02958 0.5 0.00686713
vt 157.48 19.685
f 76/113/2 74/111/2 77/114/2

usemtl Color_006
v 2.52958 0 0.00686713
vt 137.795 0
f 78/115/2 77/114/2 74/111/2

v 3.02958 0 0.00686713
vt 157.48 0
f 77/114/2 78/115/2 79/116/2

v 3.02958 0 -0.493133
vt -157.48 39.3701
f 78/75/6 80/73/6 79/117/6

v 2.52958 0 -0.493133
vt -137.795 59.0551
f 80/73/6 78/75/6 81/118/6

vt -39.3701 0
v 2.52958 0.5 -0.493133
vt -59.0551 0
f 78/119/10 82/104/10 81/120/10

f 82/104/10 78/119/10 74/105/10

usemtl Color_001
v 3.02958 0.5 -0.493133
f 83/73/6 74/75/6 82/118/6

f 74/75/6 83/73/6 77/117/6

usemtl Color_003
vn 1 9.81912e-32 4.60134e-33
f 83/110/12 76/95/12 77/106/12

vt 59.0551 78.7402
f 76/95/12 83/110/12 50/121/12

v 3.02958 1.25 -0.493133
f 50/121/12 83/110/12 84/107/12

v 3.02958 0.875 -0.993133
f 83/110/12 85/108/12 84/107/12

v 3.02958 0.5 -2.49313
f 85/108/12 83/110/12 86/111/12

vt -157.48 137.795
f 82/118/6 86/122/6 83/73/6

v 2.52958 0.5 -2.49313
vt -137.795 137.795
f 86/122/6 82/118/6 87/123/6

f 74/75/6 87/123/6 82/118/6

v 2.52958 0.5 -2.99313
vt -137.795 157.48
f 74/75/6 88/124/6 87/123/6

f 73/59/6 88/124/6 74/75/6

v 0.529579 0.5 -0.493133
vt -59.0551 59.0551
f 89/125/6 88/124/6 73/59/6

v 0.529579 0.5 -2.49313
vt -59.0551 137.795
f 90/126/6 88/124/6 89/125/6

v 0.529579 0.5 -2.99313
f 88/124/6 90/126/6 91/63/6

usemtl Color_001
f 66/62/6 91/63/6 90/126/6

v 0.0295785 0.5 -2.99313
vt -39.3701 157.48
f 91/63/6 66/62/6 92/127/6

usemtl Color_003
v 0.0295785 2 -2.99313
vt -157.48 78.7402
vt -157.48 19.685
f 66/101/10 93/128/10 92/129/10

f 62/103/10 93/128/10 66/101/10

f 93/128/10 62/103/10 42/89/10

usemtl Translucent_Glass_Tinted
vt -4.92126 1.43537
vt -5.74147 3.28084
vt -5.74147 2.05052
f 65/130/10 42/131/10 62/132/10

vt -3.28084 1.43537
f 59/133/10 42/131/10 65/130/10

vt -2.46063 2.05052
f 58/134/10 42/131/10 59/133/10

vt -2.46063 3.28084
f 42/131/10 58/134/10 41/135/10

usemtl Color_003
f 61/92/6 41/61/6 42/62/6

f 41/61/6 61/92/6 56/79/6

vt 39.3701 118.11
f 60/94/1 65/136/1 59/95/1

vt 40.6496 118.11
f 65/136/1 60/94/1 64/137/1

usemtl Color_006
f 60/90/10 61/89/10 64/102/10

f 64/102/10 61/89/10 63/103/10

usemtl Color_003
f 93/81/4 91/104/4 92/105/4

v 0.529579 1.25 -2.99313
f 91/104/4 93/81/4 94/88/4

f 94/88/4 93/81/4 44/91/4

vt 156.201 78.7402
vt 157.48 49.2126
f 55/138/8 94/139/8 44/113/8

v 0.529579 1.25 -2.96063
vt 156.201 49.2126
f 94/139/8 55/138/8 95/140/8

usemtl Color_006
v 2.52958 1.25 -2.96063
f 96/103/4 95/88/4 55/91/4

v 2.02958 0.875 -2.96063
f 97/102/4 95/88/4 96/103/4

v 1.02958 0.875 -2.96063
f 95/88/4 97/102/4 98/90/4

usemtl Color_003
vt 118.11 156.201
v 1.02958 0.875 -2.99313
vt 78.7402 157.48
vt 78.7402 156.201
f 97/141/1 99/142/1 98/143/1

v 2.02958 0.875 -2.99313
vt 118.11 157.48
f 99/142/1 97/141/1 100/144/1

vt -156.201 139.764
vn -0.6 0.8 -0
vt -157.48 115.157
vt -156.201 115.157
f 96/145/13 100/146/13 97/147/13

v 2.52958 1.25 -2.99313
vt -157.48 139.764
f 100/146/13 96/145/13 101/148/13

vt -156.201 49.2126
v 2.52958 2 -2.99313
vt -157.48 49.2126
f 96/149/10 102/128/10 101/150/10

v 2.52958 2 -2.96063
vt -156.201 78.7402
f 102/128/10 96/149/10 103/151/10

usemtl Color_006
f 96/103/4 55/91/4 103/89/4

usemtl Color_003
vt -137.795 156.201
f 103/152/6 54/77/6 55/78/6

f 54/77/6 103/152/6 53/76/6

v 2.99708 2 -2.49313
vt -156.201 137.795
f 103/152/6 104/153/6 53/76/6

f 103/152/6 45/64/6 104/153/6

f 102/124/6 45/64/6 103/152/6

f 44/63/6 45/64/6 102/124/6

f 102/124/6 55/78/6 44/63/6

f 55/78/6 102/124/6 103/152/6

usemtl Translucent_Glass_Tinted
f 101/132/4 44/135/4 102/131/4

f 101/132/4 94/134/4 44/135/4

f 100/130/4 94/134/4 101/132/4

f 94/134/4 100/130/4 99/133/4

usemtl Color_003
v 3.02958 0.5 -2.99313
f 100/102/4 105/129/4 99/90/4

f 101/103/4 105/129/4 100/102/4

v 3.02958 2 -2.99313
f 105/129/4 101/103/4 106/128/4

f 106/128/4 101/103/4 102/89/4

v 3.02958 2 -2.52273
vt 138.961 78.7402
f 107/154/12 105/114/12 106/113/12

v 3.02958 2 -2.49313
vt 137.795 78.7402
f 108/155/12 105/114/12 107/154/12

v 3.02958 1.25 -2.49313
f 109/112/12 105/114/12 108/155/12

f 109/112/12 86/111/12 105/114/12

v 3.02958 0.875 -1.99313
f 110/109/12 86/111/12 109/112/12

f 85/108/12 86/111/12 110/109/12

v 2.99708 0.875 -1.99313
vt 156.201 118.11
vt 157.48 118.11
f 111/156/1 85/113/1 110/157/1

v 2.99708 0.875 -0.993133
f 85/113/1 111/156/1 112/138/1

usemtl Color_006
f 104/155/8 112/108/8 111/109/8

f 51/121/8 112/108/8 104/155/8

v 2.99708 1.25 -0.493133
f 112/108/8 51/121/8 113/107/8

usemtl Color_003
f 51/151/4 84/150/4 113/149/4

f 84/150/4 51/151/4 50/128/4

f 51/74/6 108/122/6 50/73/6

f 108/122/6 51/74/6 104/153/6

f 51/74/6 52/75/6 104/153/6

f 53/76/6 104/153/6 52/75/6

f 53/82/10 75/83/10 52/81/10

v 2.52958 1.25 -0.0256329
f 75/83/10 53/82/10 114/80/10

usemtl Color_006
v 0.529579 1.25 -0.0256329
f 115/107/2 114/112/2 53/155/2

v 1.02958 0.875 -0.0256329
f 116/108/2 114/112/2 115/107/2

v 2.02958 0.875 -0.0256329
f 114/112/2 116/108/2 117/109/2

usemtl Color_003
vt 78.7402 40.6496
vt 118.11 39.3701
vt 118.11 40.6496
f 116/158/1 72/159/1 117/160/1

vt 78.7402 39.3701
f 72/159/1 116/158/1 71/161/1

vt 40.6496 -17.7165
vn 0.6 0.8 -0
vt 39.3701 -42.3228
vt 40.6496 -42.3228
f 115/162/14 71/163/14 116/164/14

vt 39.3701 -17.7165
f 71/163/14 115/162/14 70/165/14

f 115/96/8 40/95/8 70/93/8

f 40/95/8 115/96/8 54/94/8

usemtl Color_006
f 115/107/2 53/155/2 54/121/2

usemtl Color_003
f 69/95/2 70/107/2 40/121/2

usemtl Translucent_Glass_Tinted
vt 2.46063 2.05052
vt 5.74147 3.28084
vt 2.46063 3.28084
f 70/166/2 52/167/2 40/168/2

vt 5.74147 2.05052
f 70/166/2 75/169/2 52/167/2

vt 3.28084 1.43537
f 71/170/2 75/169/2 70/166/2

vt 4.92126 1.43537
f 75/169/2 71/170/2 72/171/2

usemtl Color_003
vt -39.3701 139.764
vt -40.6496 115.157
vt -39.3701 115.157
f 75/172/13 117/173/13 72/174/13

vt -40.6496 139.764
f 117/173/13 75/172/13 114/175/13

f 75/112/2 76/113/2 52/155/2

f 104/153/6 45/64/6 108/122/6

f 108/122/6 45/64/6 50/73/6

usemtl Translucent_Glass_Tinted
f 50/168/8 85/170/8 108/167/8

f 85/170/8 50/168/8 84/166/8

usemtl Color_003
vt -156.201 -42.3228
vt -157.48 -17.7165
vt -157.48 -42.3228
f 112/176/9 84/177/9 85/178/9

vt -156.201 -17.7165
f 84/177/9 112/176/9 113/179/9

usemtl Translucent_Glass_Tinted
f 108/167/8 85/170/8 110/171/8

f 108/167/8 110/171/8 109/169/8

usemtl Color_003
v 2.99708 1.25 -2.49313
vt 156.201 139.764
vt 157.48 115.157
vt 157.48 139.764
f 118/180/11 110/181/11 109/182/11

vt 156.201 115.157
f 110/181/11 118/180/11 111/183/11

usemtl Color_006
f 104/155/8 111/109/8 118/112/8

usemtl Color_003
f 118/140/2 108/113/2 104/138/2

f 108/113/2 118/140/2 109/139/2

usemtl Color_006
v 3.02958 0 -2.99313
f 86/111/8 119/116/8 105/114/8

v 3.02958 0 -2.49313
f 119/116/8 86/111/8 120/115/8

v 2.52958 0 -2.49313
f 86/114/2 121/115/2 120/116/2

f 121/115/2 86/114/2 87/111/2

usemtl Color_001
vt -157.48 157.48
f 87/123/6 105/184/6 86/122/6

f 105/184/6 87/123/6 88/124/6

usemtl Color_006
vt -137.795 0
f 88/129/10 121/185/10 87/101/10

v 2.52958 0 -2.99313
vt -157.48 0
f 121/185/10 88/129/10 122/186/10

f 88/101/4 119/186/4 122/185/4

f 119/186/4 88/101/4 105/129/4

usemtl Color_003
f 88/101/4 99/90/4 105/129/4

f 91/104/4 99/90/4 88/101/4

f 91/104/4 94/88/4 99/90/4

vt 157.48 -17.7165
vt 156.201 -42.3228
vt 157.48 -42.3228
f 94/187/14 98/188/14 99/189/14

vt 156.201 -17.7165
f 98/188/14 94/187/14 95/190/14

usemtl Color_006
f 119/184/6 121/123/6 122/124/6

f 121/123/6 119/184/6 120/122/6

v 0.529579 0 -2.99313
f 123/120/4 92/105/4 91/104/4

v 0.0295785 0 -2.99313
f 92/105/4 123/120/4 124/119/4

v 0.0295785 0 -2.49313
f 123/63/6 125/62/6 124/127/6

v 0.529579 0 -2.49313
f 125/62/6 123/63/6 126/126/6

f 123/116/8 90/111/8 126/115/8

f 90/111/8 123/116/8 91/114/8

vt 39.3701 0
vt 59.0551 0
f 90/110/2 125/191/2 126/192/2

f 125/191/2 90/110/2 66/106/2

usemtl Color_003
f 90/126/6 67/61/6 66/62/6

f 67/61/6 90/126/6 89/125/6

usemtl Color_006
v 0.529579 0 -0.493133
f 127/120/4 67/105/4 89/104/4

v 0.0295785 0 -0.493133
f 67/105/4 127/120/4 128/119/4

v 0.0295785 0 0.00686713
vt -39.3701 39.3701
f 127/125/6 129/193/6 128/61/6

v 0.529579 0 0.00686713
f 129/193/6 127/125/6 130/59/6

f 127/192/8 73/106/8 130/191/8

f 73/106/8 127/192/8 89/110/8

usemtl Color_001
f 68/193/6 89/125/6 73/59/6

f 89/125/6 68/193/6 67/61/6

usemtl Color_006
f 67/104/10 129/119/10 68/105/10

f 129/119/10 67/104/10 128/120/10

f 129/191/2 73/110/2 68/106/2

f 73/110/2 129/191/2 130/192/2

f 92/129/10 125/185/10 66/101/10

f 125/185/10 92/129/10 124/186/10

f 80/186/4 82/101/4 83/129/4

f 82/101/4 80/186/4 81/185/4

f 77/106/8 80/192/8 83/110/8

f 80/192/8 77/106/8 79/191/8

usemtl Color_003
v 3.52958 3 -2.45024
vt 177.165 136.107
f 22/28/1 131/194/1 33/50/1

f 22/28/1 23/29/1 131/194/1

vt -29.0329 118.11
vn -0.707107 0 0.707107
v 3.52958 2.9675 -2.45024
vt 29.0329 116.831
vt 29.0329 118.11
f 23/195/15 132/196/15 131/197/15

vt -29.0329 116.831
f 132/196/15 23/195/15 24/198/15

usemtl Color_006
v 3.02958 2.9675 -2.24313
f 24/29/1 133/39/1 132/194/1

f 24/29/1 25/34/1 133/39/1

usemtl Color_003
vt 20.8791 116.831
vn 0.707107 0 -0.707107
vt -20.8791 118.11
vt -20.8791 116.831
f 25/199/16 27/200/16 133/201/16

vt 20.8791 118.11
f 27/200/16 25/199/16 26/202/16

usemtl Translucent_Glass_Tinted
vt 5.67111 7.38189
vt 5.33136 6.56168
vt 6.56168 5.33136
f 23/203/1 26/204/1 27/205/1

f 23/203/1 4/21/1 26/204/1

f 16/19/1 4/21/1 23/203/1

vt 7.38189 5.67111
f 23/203/1 27/205/1 131/206/1

vt 7.38189 2.53099
f 131/206/1 27/205/1 32/207/1

vt 6.56168 2.87073
f 28/208/1 32/207/1 27/205/1

vt 5.67111 0.82021
f 28/208/1 31/209/1 32/207/1

vt 5.33136 1.64042
f 5/210/1 31/209/1 28/208/1

vt 2.87073 1.64042
f 1/211/1 31/209/1 5/210/1

f 1/211/1 19/25/1 31/209/1

f 3/23/1 19/25/1 1/211/1

usemtl Color_003
f 3/200/15 6/199/15 1/202/15

f 6/199/15 3/200/15 10/201/15

f 2/38/10 10/37/10 3/35/10

f 10/37/10 2/38/10 13/36/10

vt -136.107 116.831
vt -60.7438 118.11
vt -136.107 118.11
f 8/212/4 19/213/4 31/214/4

vt -60.7438 116.831
f 19/213/4 8/212/4 9/215/4

f 11/196/16 19/195/16 9/198/16

f 19/195/16 11/196/16 18/197/16

f 12/33/8 18/32/8 11/30/8

f 18/32/8 12/33/8 17/31/8

vt 110.161 116.831
vt 168.227 118.11
vt 110.161 118.11
f 12/216/5 16/217/5 17/218/5

vt 168.227 116.831
f 16/217/5 12/216/5 14/219/5

f 28/8/8 133/9/8 27/7/8

f 133/9/8 28/8/8 29/6/8

usemtl Color_006
f 29/40/1 30/45/1 133/39/1

f 132/194/1 133/39/1 30/45/1

usemtl Color_003
f 30/215/10 131/214/10 132/212/10

f 131/214/10 30/215/10 32/213/10

f 32/45/1 33/50/1 131/194/1

usemtl Color_006
f 34/51/10 21/72/10 48/70/10

f 21/72/10 34/51/10 20/53/10

usemtl Color_003
f 48/70/10 36/55/10 34/51/10

f 36/55/10 48/70/10 46/68/10

usemtl Color_006
f 46/68/10 38/57/10 36/55/10

f 38/57/10 46/68/10 43/66/10

