# Alias OBJ Model File
# Exported from SketchUp, (c) 2000-2012 Trimble Navigation Limited
# File units = meters

mtllib platform-y.mtl

g Mesh1 Platform__Y1 Model

usemtl Color_003
v 1.8747 1.5 -2.88765e-15
vt 79.6823 59.0551
vn -9.62549e-16 -6.41777e-16 1
v 1.1247 0.1875 -5.77529e-15
vt 50.1548 7.38189
v 1.8747 0.1875 -5.77529e-15
vt 79.6823 7.38189
f 1/1/1 2/2/1 3/3/1

v 1.1247 1.5 -8.66294e-15
vt 50.1548 59.0551
f 2/2/1 1/1/1 4/4/1

v 1.4997 1.875 -2.88765e-15
vt 64.9186 73.8189
f 4/4/1 1/1/1 5/5/1

usemtl _1
vn -1.07105e-15 -2.85437e-15 1
v 2.81185 1.625 -2.88765e-15
vt 116.578 63.9764
f 1/1/2 6/6/2 5/5/2

v 2.6247 1.4378 -2.88765e-15
vt 109.21 56.6064
f 1/1/2 7/7/2 6/6/2

v 2.6247 0.1875 -5.77529e-15
vt 109.21 7.38189
f 1/1/2 8/8/2 7/7/2

f 8/8/2 1/1/2 3/3/2

usemtl Color_003
v 0 4.00741e-31 -5.77529e-15
vt 5.87533 -1.01603e-14
f 9/9/1 8/8/1 3/3/1

v 3 4.00741e-31 -5.77529e-15
vt 123.986 -1.01603e-14
f 10/10/1 8/8/1 9/9/1

v 3 2 -2.88765e-15
vt 123.986 78.7402
f 8/8/1 10/10/1 11/11/1

vt -2.46063 3.46287e-13
vn 1 -2.88765e-15 -1.38607e-13
v 3 2 -0.0625
vt -1.68442e-11 78.7402
vt -2.46063 78.7402
f 10/12/3 12/13/3 11/14/3

v 3 0 -0.0625
vt -1.69579e-11 3.46287e-13
f 12/13/3 10/12/3 13/15/3

vt -123.986 -2.46063
vn -1.70127e-17 -1 -2.58593e-15
vt -5.87533 -2.46063
vt -123.986 2.27374e-13
f 10/16/4 9/17/4 13/18/4

v 3 4.6785e-16 -0.1875
vt -123.986 4.92126
f 9/17/4 14/19/4 13/18/4

v 0 4.6785e-16 -0.1875
vt -5.87533 4.92126
f 14/19/4 9/17/4 15/20/4

v 0 2 -8.66294e-15
vt 2.46063 78.7402
vn -1 0 -0
vt -4.92126 6.67982e-15
vt 2.46063 -1.17394e-14
f 16/21/5 15/22/5 9/23/5

v 0 2 -0.1875
vt -4.92126 78.7402
f 15/22/5 16/21/5 17/24/5

v 1.5 3.49725 -2.88765e-15
vt 2.46063 143.225
vn -0.706457 0.707756 4.87221e-15
vt -4.92126 59.7848
vt 2.46063 59.7848
f 18/25/6 17/26/6 16/27/6

v 1.5 3.49725 -0.1875
vt -4.92126 143.225
f 17/26/6 18/25/6 19/28/6

vt -2.46063 -32.125
vn 0.706457 0.707756 8.20305e-15
vt 4.92126 51.3149
vt -2.46063 51.3149
f 11/29/7 19/30/7 18/31/7

vt 1.78072e-12 -32.125
f 19/30/7 11/29/7 12/32/7

v 3 2 -0.1875
vt 4.92126 -32.125
f 20/33/7 19/30/7 12/32/7

vt -123.986 78.7402
vn 1.9251e-15 2.24693e-15 -1
v 1.87569 2.93475 -0.1875
vt -79.7214 115.541
vt -64.9304 137.687
f 20/34/8 21/35/8 19/36/8

v 2.81216 2 -0.1875
vt -116.59 78.7402
f 20/34/8 22/37/8 21/35/8

v 2.8122 1.625 -0.1875
vt -116.592 63.9764
f 20/34/8 23/38/8 22/37/8

v 2.625 0.1875 -0.1875
vt -109.222 7.38189
f 20/34/8 24/39/8 23/38/8

vt -123.986 -4.37789e-15
f 14/40/8 24/39/8 20/34/8

v 1.875 0.1875 -0.1875
vt -79.6942 7.38189
f 24/39/8 14/40/8 25/41/8

v 1.125 0.1875 -0.1875
vt -50.1667 7.38189
f 25/41/8 14/40/8 26/42/8

v 0.375 0.1875 -0.1875
vt -20.6391 7.38189
f 14/40/8 27/43/8 26/42/8

vt -5.87533 -4.37789e-15
f 15/44/8 27/43/8 14/40/8

vt -5.87533 78.7402
f 27/43/8 15/44/8 17/45/8

v 0.187845 1.625 -0.1875
vt -13.2708 63.9764
f 27/43/8 17/45/8 28/46/8

v 0.187845 2 -0.1875
vt -13.2708 78.7402
f 28/46/8 17/45/8 29/47/8

f 29/47/8 17/45/8 19/36/8

v 1.12431 2.93475 -0.1875
vt -50.1395 115.541
f 29/47/8 19/36/8 30/48/8

f 19/36/8 21/35/8 30/48/8

usemtl _1
vn 7.61878e-16 2.26321e-15 -1
f 21/35/9 29/47/9 30/48/9

f 22/37/9 29/47/9 21/35/9

v 1.5 1.875 -0.1875
vt -64.9304 73.8189
f 31/49/9 29/47/9 22/37/9

f 31/49/9 28/46/9 29/47/9

v 1.125 1.5 -0.1875
vt -50.1667 59.0551
f 32/50/9 28/46/9 31/49/9

v 0.375 1.4378 -0.1875
vt -20.6391 56.6064
f 32/50/9 33/51/9 28/46/9

f 32/50/9 27/43/9 33/51/9

f 27/43/9 32/50/9 26/42/9

usemtl Color_003
f 32/50/8 25/41/8 26/42/8

v 1.875 1.5 -0.1875
vt -79.6942 59.0551
f 25/41/8 32/50/8 34/52/8

f 34/52/8 32/50/8 31/49/8

usemtl _1
f 23/38/9 34/52/9 31/49/9

v 2.625 1.4378 -0.1875
vt -109.222 56.6064
f 35/53/9 34/52/9 23/38/9

f 24/39/9 34/52/9 35/53/9

f 34/52/9 24/39/9 25/41/9

usemtl Color_003
f 23/38/8 24/39/8 35/53/8

usemtl _1
f 23/38/9 31/49/9 22/37/9

usemtl Color_003
f 27/43/8 28/46/8 33/51/8

vt 8.93369e-12 78.7402
vn 1 -2.88765e-15 6.93035e-14
vt 4.92126 3.64706e-13
vt 4.92126 78.7402
f 12/54/10 14/55/10 20/56/10

vt 8.82001e-12 3.46287e-13
f 14/55/10 12/54/10 13/57/10

v 2.81185 2 -2.88765e-15
vt 116.578 78.7402
vt 64.9304 137.687
f 36/58/1 11/11/1 18/59/1

f 6/6/1 11/11/1 36/58/1

f 8/8/1 11/11/1 6/6/1

f 8/8/1 6/6/1 7/7/1

usemtl _1
f 5/5/2 6/6/2 36/58/2

v 0.187543 2 -2.88765e-15
vt 13.2589 78.7402
f 5/5/2 36/58/2 37/60/2

v 1.12401 2.93475 -2.88765e-15
vt 50.1276 115.541
f 37/60/2 36/58/2 38/61/2

v 1.87539 2.93475 2.88765e-15
vt 79.7095 115.541
f 38/61/2 36/58/2 39/62/2

usemtl Color_003
f 36/58/1 18/59/1 39/62/1

f 18/59/1 38/61/1 39/62/1

vt 5.87533 78.7402
f 16/63/1 38/61/1 18/59/1

f 16/63/1 37/60/1 38/61/1

v 0.1875 1.625 -2.88765e-15
vt 13.2572 63.9764
f 16/63/1 40/64/1 37/60/1

v 0.374698 0.1875 -5.77529e-15
vt 20.6272 7.38189
f 16/63/1 41/65/1 40/64/1

f 9/9/1 41/65/1 16/63/1

v 0.375 0.1875 -1.73259e-14
vt 20.6391 7.38189
f 41/65/1 9/9/1 42/66/1

f 42/66/1 9/9/1 3/3/1

f 42/66/1 3/3/1 2/2/1

usemtl _1
f 4/4/2 42/66/2 2/2/2

f 42/66/2 4/4/2 41/65/2

v 0.374698 1.4378 -2.88765e-15
vt 20.6272 56.6064
f 41/65/2 4/4/2 43/67/2

f 43/67/2 4/4/2 40/64/2

f 40/64/2 4/4/2 5/5/2

f 40/64/2 5/5/2 37/60/2

usemtl Color_003
f 40/64/1 41/65/1 43/67/1

