# Alias OBJ Model File
# Exported from SketchUp, (c) 2000-2012 Trimble Navigation Limited
# File units = meters

mtllib security-wall.mtl

g Mesh1 NM_security_zone_wall__medium1 Model

usemtl _1
v 3.30607 0 -0.407109
vt 2.05279 0.328816
vn 1 0 -0
v 3.30607 5.4 -0.088357
vt 2.01427 0.981457
v 3.30607 0 -0.088357
vt 2.01427 0.328816
f 1/1/1 2/2/1 3/3/1

v 3.30607 5.4 -0.407109
vt 2.05279 0.981457
f 2/2/1 1/1/1 4/4/1

vt 2.05279 0.329562
vn 0.514377 4.18616e-18 0.857564
v 3.40373 0.810795 -0.46569
vt 2.06656 0.427555
vt 2.0528 0.982204
f 1/5/2 5/6/2 4/7/2

v 3.55096 0.54053 -0.553997
vt 2.08731 0.394891
f 1/5/2 6/8/2 5/6/2

v 3.69818 0.54053 -0.642305
vt 2.10806 0.39489
f 1/5/2 7/9/2 6/8/2

v 3.69818 0 -0.642305
vt 2.10806 0.329562
f 7/9/2 1/5/2 8/10/2

usemtl _2
v 3.69818 0 -4.57711
vt 1.00012 0.247493
vt 1.03729 0.518046
vt 1.00012 0.518046
f 9/11/1 7/12/1 8/13/1

v 3.69818 0.54053 -1.71711
vt 1.03729 0.444144
f 7/12/1 9/11/1 10/14/1

v 3.69818 2.36053 -1.71711
vt 1.16243 0.444144
f 10/14/1 9/11/1 11/15/1

v 3.69818 2.36053 -4.57711
vt 1.16243 0.247493
f 11/15/1 9/11/1 12/16/1

v 3.69818 0.54053 -7.43711
f 9/11/1 13/14/1 12/16/1

v 3.69818 0 -8.51191
f 13/14/1 9/11/1 14/13/1

v 3.69818 0.54053 -8.51191
f 13/14/1 14/13/1 15/12/1

usemtl _1
vn 0.514377 3.38722e-17 -0.857564
v 3.55096 0.54053 -8.60022
f 15/9/3 14/10/3 16/8/3

v 3.40373 0.810795 -8.68853
f 14/10/3 17/6/3 16/8/3

v 3.30607 0 -8.74711
f 18/5/3 17/6/3 14/10/3

v 3.30607 5.4 -8.74711
f 17/6/3 18/5/3 19/7/3

v 3.30607 0 -9.06586
f 20/3/1 19/4/1 18/1/1

v 3.30607 5.4 -9.06586
f 19/4/1 20/3/1 21/2/1

vn 0.707107 0 -0.707107
v 3.22482 5.4 -9.14711
vt 2.00038 0.981458
f 20/3/4 22/17/4 21/2/4

v 3.22482 0 -9.14711
vt 2.00038 0.328816
f 22/17/4 20/3/4 23/18/4

vn 0 0 -1
v 2.00367 0.88 -9.14711
vt 1.8528 0.435172
f 23/18/5 24/19/5 22/17/5

v 1.52143 0.305595 -9.14711
vt 1.79451 0.36575
f 23/18/5 25/20/5 24/19/5

v 1.52143 0 -9.14711
vt 1.79451 0.328816
f 25/20/5 23/18/5 26/21/5

v 1.52143 0 -9.04711
vt 1.84071 0.307594
vn -1 0 -0
vt 1.8528 0.344528
vt 1.8528 0.307594
f 27/22/6 25/23/6 26/24/6

v 1.52143 0.305595 -9.04711
vt 1.84071 0.344528
f 25/23/6 27/22/6 28/25/6

vt -2.4511 0.821932
v 0.0982393 3.0973 -9.04711
vt -2.51749 0.767148
vt -2.45765 0.821932
f 27/26/5 29/27/5 28/28/5

v 0.0982393 0 -9.04711
vt -2.4511 0.767148
f 29/27/5 27/26/5 30/29/5

v 0.0982393 0 -10.7484
vt -0.144455 1.89657
vt 0.000264089 2.16005
vt 0.000264071 1.89657
f 31/30/1 29/31/1 30/32/1

v 0.0982393 3.0973 -10.7484
vt -0.144455 2.16005
f 29/31/1 31/30/1 32/33/1

v -0.521818 1.63 -10.7484
vt -0.23284 1.86785
vt -0.285586 1.99267
vt -0.285586 1.7292
f 33/34/5 32/35/5 31/36/5

v -0.521818 4.03 -10.7484
vt -0.23284 2.07201
f 32/35/5 33/34/5 34/37/5

usemtl _2
v -0.521818 1.63 -13.9384
vt -1.86121 0.823954
vn 1 -2.02745e-17 -1.55584e-16
vt -1.6624 0.559705
vt -1.86121 0.559705
f 35/38/7 34/39/7 33/40/7

v -0.521818 7.24 -10.7484
vt -1.3965 0.559705
f 34/39/7 35/38/7 36/41/7

v -0.521818 7.95 -10.7484
vt -1.33768 0.559705
f 36/41/7 35/38/7 37/42/7

v -0.521818 7.95 -13.9384
vt -1.33768 0.823954
f 37/42/7 35/38/7 38/43/7

v -0.521818 4.03 -13.9384
vt -1.6624 0.823954
f 38/43/7 35/38/7 39/44/7

v -0.521818 1.63 -17.1284
vn 1 -1.18049e-17 -1.13152e-16
f 40/38/8 39/39/8 35/40/8

v -0.521818 7.24 -13.9384
f 39/39/8 40/38/8 41/41/8

f 41/41/8 40/38/8 38/42/8

v -0.521818 4.03 -17.1284
f 38/42/8 40/38/8 42/44/8

v -0.521818 7.24 -17.1284
f 40/40/1 43/41/1 42/39/1

v -0.521818 7.95 -17.1284
f 43/41/1 40/40/1 44/42/1

v -0.521818 1.63 -20.3184
f 44/42/1 40/40/1 45/38/1

vn 0.934658 0.355547 -1.01051e-16
v 0.0982393 -2.05818e-19 -20.3184
vt -2.00568 0.823954
f 40/40/9 46/45/9 45/38/9

v 0.0982393 -2.05818e-19 -17.1284
vt -2.00568 0.559705
f 46/45/9 40/40/9 47/46/9

vn 0.934658 0.355547 -0
f 35/40/10 47/45/10 40/38/10

v 0.0982393 -2.05818e-19 -13.9384
f 47/45/10 35/40/10 48/46/10

vn 0.934658 0.355547 -1.07788e-16
f 33/40/11 48/45/11 35/38/11

f 48/45/11 33/40/11 31/46/11

usemtl _1
vt 0.229328 1.17717
vn 0 0 1
v 1.55824 4.22 -20.3184
vt 0.286525 1.27211
vt 0.205037 1.21384
f 46/47/12 49/48/12 45/49/12

v 1.55824 -2.05818e-19 -20.3184
vt 0.286525 1.17717
f 49/48/12 46/47/12 50/50/12

v 1.55824 -2.05818e-19 -20.6684
vt -7.51587 0.795304
vt -7.46759 1.37737
vt -7.46759 0.795304
f 51/51/1 49/52/1 50/53/1

v 1.55824 4.22 -20.6684
vt -7.51587 1.37737
f 49/52/1 51/51/1 52/54/1

v -0.521818 1.63 -20.6684
f 51/50/5 53/49/5 52/48/5

v 0.0982393 -2.05818e-19 -20.6684
f 53/49/5 51/50/5 54/47/5

usemtl _2
v 0.0982393 -2.05818e-19 -23.8584
f 55/45/11 53/40/11 54/46/11

v -0.521818 1.63 -23.8584
f 53/40/11 55/45/11 56/38/11

v -0.521818 4.03 -20.6684
f 56/38/1 57/39/1 53/40/1

v -0.521818 7.24 -20.6684
f 57/39/1 56/38/1 58/41/1

v -0.521818 7.95 -20.6684
f 58/41/1 56/38/1 59/42/1

v -0.521818 7.95 -23.8584
f 59/42/1 56/38/1 60/43/1

usemtl _1
vt 0.205037 1.34005
vt 0.205037 1.35603
f 52/48/5 58/55/5 59/56/5

vt 0.205037 1.26783
f 52/48/5 57/57/5 58/55/5

f 52/48/5 53/49/5 57/57/5

v -0.521818 7.95 -20.3184
vt -7.46759 1.96645
vn 0.873377 0.487044 -0
vt -7.51587 1.96645
f 61/58/13 52/54/13 59/59/13

f 52/54/13 61/58/13 49/52/13

f 45/49/12 49/48/12 61/56/12

usemtl _2
f 44/42/1 45/38/1 61/43/1

vt -1.3965 0.823954
f 38/42/8 43/60/8 44/43/8

f 43/60/8 38/42/8 42/44/8

f 38/43/7 39/44/7 41/60/7

usemtl _1
vt -0.23306 2.68398
v -0.0871685 7.56 -10.7484
vt -0.266236 2.64701
vt -0.293457 2.68398
f 37/61/5 62/62/5 36/63/5

v 1.60783 7.56 -10.7484
vt -0.266236 2.50282
f 62/62/5 37/61/5 63/64/5

v 1.88283 7.835 -10.7484
vt -0.242842 2.47943
f 63/64/5 37/61/5 64/65/5

v 1.88283 7.95 -10.7484
vt -0.23306 2.47943
f 64/65/5 37/61/5 65/66/5

vt -0.158314 2.57278
v 1.88283 7.675 -10.4684
vt -0.134496 2.54939
vt -0.158314 2.563
f 65/67/1 66/68/1 64/69/1

v 1.88283 7.95 -8.90836
vt -0.00179196 2.57278
f 67/70/1 66/68/1 65/67/1

v 1.88283 7.675 -8.90836
vt -0.00179196 2.54939
f 66/68/1 67/70/1 68/71/1

v 2.33367 7.95 -8.90836
vt -2.65024 0.853237
vt -2.63966 0.835882
vt -2.65024 0.835882
f 69/72/5 68/73/5 67/74/5

v 1.60783 7.4 -8.90836
vt -2.62907 0.825296
f 69/72/5 70/75/5 68/73/5

v 2.33367 6.22 -8.90836
vt -2.58365 0.853237
f 71/76/5 70/75/5 69/72/5

v -0.521818 7.08 -8.90836
vt -2.61675 0.743318
f 71/76/5 72/77/5 70/75/5

v 2.00367 6.22 -8.90836
vt -2.58365 0.840534
f 73/78/5 72/77/5 71/76/5

v -0.521818 6.22 -8.90836
vt -2.58365 0.743318
f 72/77/5 73/78/5 74/79/5

v 2.00367 5.4 -9.04711
vt -2.55163 0.840534
vn 0 0.166838 -0.985984
f 75/80/14 74/79/14 73/78/14

v -0.521818 5.4 -9.04711
vt -2.55163 0.743318
f 74/79/14 75/80/14 76/81/14

vt -2.56685 0.840496
v -0.521818 4.03 -9.04711
vt -2.53749 0.74328
vt -2.56685 0.74328
f 75/82/5 77/83/5 76/84/5

f 75/82/5 29/27/5 77/83/5

v 2.00367 0.88 -9.04711
vt -2.46996 0.840496
f 78/85/5 29/27/5 75/82/5

f 28/28/5 29/27/5 78/85/5

vn -0.765874 0.642991 -0
vt 1.84071 0.435172
f 24/19/15 28/25/15 78/86/15

f 28/25/15 24/19/15 25/23/15

v 2.00367 5.4 -9.14711
vt 1.8528 0.981458
f 78/86/6 79/87/6 24/19/6

vt 1.84071 0.981458
f 79/87/6 78/86/6 75/88/6

vt 1.84088 0.983474
v 2.00367 6.22 -9.00836
vt 1.8528 1.08197
f 75/89/6 80/90/6 79/87/6

vt 1.84088 1.08399
f 80/90/6 75/89/6 73/91/6

vt 1.89268 1.09406
vn 0 1 -0
vt 1.8528 1.09406
f 71/92/16 80/90/16 73/93/16

v 3.22482 6.22 -9.00836
vt 2.00038 1.08197
f 80/90/16 71/92/16 81/94/16

v 2.49492 6.22 -8.74711
vt 1.91217 1.11355
f 81/94/16 71/92/16 82/95/16

vn 0.707107 2.16611e-18 -0.707107
vt -2.58365 0.862015
f 69/72/17 82/96/17 71/76/17

v 2.49492 7.95 -8.74711
vt -2.65024 0.862015
f 82/96/17 69/72/17 83/97/17

v 3.30607 6.22 -8.74711
vt -2.58365 0.893239
f 83/97/5 84/98/5 82/96/5

v 3.73607 7.03 -8.74711
vt -2.61483 0.909792
f 84/98/5 83/97/5 85/99/5

v 3.73607 7.95 -8.74711
vt -2.65024 0.909792
f 85/99/5 83/97/5 86/100/5

vn 0.514377 0 -0.857564
v 3.83373 7.03 -8.68853
vt -2.61483 0.914176
f 86/100/18 87/101/18 85/99/18

v 3.83373 7.95 -8.68853
vt -2.65024 0.914176
f 87/101/18 86/100/18 88/102/18

v 3.83373 7.95 -8.72853
vt -2.65024 0.913384
vt -2.61483 0.911844
vt -2.65024 0.911844
f 89/103/6 87/104/6 88/105/6

v 3.83373 7.03 -8.72853
vt -2.61483 0.913383
f 87/104/6 89/103/6 90/106/6

vn 0.514377 -3.5908e-30 -0.857564
v 3.98096 7.03 -8.64022
vt -2.61483 0.919992
f 89/103/19 91/107/19 90/106/19

v 3.98096 7.95 -8.64022
vt -2.65024 0.919992
f 91/107/19 89/103/19 92/108/19

vn 0.491696 0 -0.870767
v 4.20818 7.03 -8.51191
vt -2.61483 0.930037
f 92/108/20 93/109/20 91/107/20

v 4.20818 7.95 -8.51191
vt -2.65024 0.930037
f 93/109/20 92/108/20 94/110/20

v 4.20818 7.03 -6.48711
vt -2.61483 1.00798
f 94/110/1 95/111/1 93/109/1

v 4.20818 7.03 -2.66711
vt -2.61483 1.15503
f 94/110/1 96/112/1 95/111/1

v 4.20818 7.95 -0.642305
vt -2.65024 1.23297
f 97/113/1 96/112/1 94/110/1

v 4.20818 7.03 -0.642305
vt -2.61483 1.23297
f 96/112/1 97/113/1 98/114/1

vn 0.491696 0 0.870767
v 3.98096 7.03 -0.513997
f 97/110/21 99/107/21 98/109/21

v 3.98096 7.95 -0.513997
f 99/107/21 97/110/21 100/108/21

vn 0.514377 0 0.857564
v 3.83373 7.03 -0.42569
f 100/108/22 101/106/22 99/107/22

v 3.83373 7.95 -0.42569
f 101/106/22 100/108/22 102/103/22

v 3.83373 7.95 -0.46569
f 103/105/6 101/106/6 102/103/6

v 3.83373 7.03 -0.46569
f 101/106/6 103/105/6 104/104/6

vn 0.514377 6.60038e-32 0.857564
v 3.73607 7.03 -0.407109
f 103/102/23 105/99/23 104/101/23

v 3.73607 7.95 -0.407109
f 105/99/23 103/102/23 106/100/23

v 2.49492 7.95 -0.407109
vn -1.65567e-17 -1.09852e-17 1
f 107/97/24 105/99/24 106/100/24

v 2.49492 6.22 -0.407109
f 108/96/24 105/99/24 107/97/24

v 3.30607 6.22 -0.407109
f 105/99/24 108/96/24 109/98/24

v 3.22482 6.22 -0.145861
vt 2.0102 1.11355
f 108/95/16 110/94/16 109/115/16

v 2.33367 6.22 -0.245861
f 111/92/16 110/94/16 108/95/16

v 2.00367 6.22 -0.245861
f 112/93/16 110/94/16 111/92/16

v 2.00367 6.22 -0.145861
f 110/94/16 112/93/16 113/90/16

v 2.00367 5.4 -0.107109
f 114/89/6 113/90/6 112/91/6

v 2.00367 5.4 -0.00710925
f 113/90/6 114/89/6 115/87/6

v 2.00367 0.88 -0.00710925
f 114/88/6 116/19/6 115/87/6

v 2.00367 0.88 -0.107109
f 116/19/6 114/88/6 117/86/6

v 0.0982393 3.0973 -0.107109
vn -5.35669e-17 -1.31546e-17 1
f 118/27/25 117/85/25 114/82/25

v 1.52143 0.305595 -0.107109
f 118/27/25 119/28/25 117/85/25

v 0.0982393 0 -0.107109
f 120/29/25 119/28/25 118/27/25

v 1.52143 0 -0.107109
f 119/28/25 120/29/25 121/26/25

v 1.52143 0 -0.00710925
f 122/24/6 119/25/6 121/22/6

v 1.52143 0.305595 -0.00710925
f 119/25/6 122/24/6 123/23/6

f 122/21/12 116/19/12 123/20/12

v 3.22482 0 -0.00710925
f 124/18/12 116/19/12 122/21/12

v 3.22482 5.4 -0.00710925
f 116/19/12 124/18/12 125/17/12

vn 0.707107 0 0.707107
f 3/3/26 125/17/26 124/18/26

f 125/17/26 3/3/26 2/2/26

vt 2.01417 0.983096
vn 0.702099 0.118802 0.702099
f 2/116/27 110/94/27 125/17/27

v 3.30607 6.22 -0.227109
vt 2.01417 1.08361
f 110/94/27 2/116/27 126/117/27

vt 2.03104 1.08131
vt 2.01427 0.982204
f 4/7/1 126/118/1 2/119/1

vt 2.0528 1.08131
f 126/118/1 4/7/1 109/120/1

v 3.40373 6.22 -0.46569
vt 2.06656 1.08131
f 4/7/2 127/121/2 109/120/2

v 3.40373 1.08106 -0.46569
vt 2.06656 0.460219
f 4/7/2 128/122/2 127/121/2

f 4/7/2 5/6/2 128/122/2

usemtl _4
v 3.40373 6.22 -0.42569
vt 16.4795 244.882
vt 18.0543 31.9211
vt 18.0543 42.5614
f 129/123/1 5/124/1 128/125/1

v 3.40373 0.810795 -0.42569
vt 16.4795 31.9211
f 5/124/1 129/123/1 130/126/1

v 3.55096 6.22 -0.513997
vt -147.772 244.882
vn -0.514377 2.10061e-18 -0.857564
vt -141.013 31.9211
vt -141.013 244.882
f 131/127/28 130/128/28 129/129/28

v 3.55096 0.54053 -0.513997
vt -147.772 21.2807
f 130/128/28 131/127/28 132/130/28

vt -149.436 244.882
vn -0.491696 0 -0.870767
v 3.77818 0.54053 -0.642305
vt -159.709 21.2807
vt -149.436 21.2807
f 131/131/29 133/132/29 132/133/29

v 3.77818 6.22 -0.642305
vt -159.709 244.882
f 133/132/29 131/131/29 134/134/29

usemtl _1
vt 4.11691 2.12861
vn 0.475756 -0.252562 0.842537
vt 4.13155 1.99894
vt 4.11691 1.99894
f 98/135/30 131/136/30 134/137/30

vt 4.13155 2.12861
f 131/136/30 98/135/30 99/138/30

vn 0.49621 -0.26342 0.827276
vt 4.14162 1.99894
f 99/138/31 129/139/31 131/136/31

vt 4.14162 2.12861
f 129/139/31 99/138/31 101/140/31

vt -2.6145 0.914163
vn -0.883257 0.468889 -0
vt -2.5826 0.898971
vt -2.61378 0.915523
f 104/141/32 129/142/32 101/143/32

vt -2.58332 0.897611
f 129/142/32 104/141/32 127/144/32

f 105/99/31 127/144/31 104/141/31

f 127/144/31 105/99/31 109/98/31

usemtl _4
vt 18.0543 244.882
f 127/145/1 129/123/1 128/125/1

usemtl _1
v 3.77818 6.22 -1.71711
vt 3.9943 1.99894
vn 0.883257 -0.468889 1.24133e-17
f 135/146/33 98/135/33 134/137/33

vt 3.88593 2.12861
f 98/135/33 135/146/33 96/147/33

usemtl _1_1_
v 3.37818 6.22 -1.71711
vt 1 0
vn 0 -0.76095 -0.64881
vt 0 1
vt 0.518072 -8.88178e-16
f 136/148/34 96/149/34 135/150/34

v 3.37818 7.03 -2.66711
vt 1 1
f 96/149/34 136/148/34 137/151/34

usemtl _3
vt 1 6.72862
v 3.37818 3.74808 -4.57711
vt 2 5
vt 1.33217 7.29505
f 136/152/1 138/153/1 137/154/1

v 3.37818 3.74808 -1.71711
vt 1 5
f 138/153/1 136/152/1 139/155/1

usemtl _4
vt 153.543 147.562
vn -8.89807e-16 8.4867e-18 1
vt 169.291 244.882
vt 153.543 244.882
f 139/156/35 135/157/35 136/158/35

v 3.59597 3.74808 -1.71711
vt 162.118 147.562
f 140/159/35 135/157/35 139/156/35

v 3.59597 2.68625 -1.71711
vt 162.118 105.758
f 141/160/35 135/157/35 140/159/35

vt 166.142 92.9343
f 11/161/35 135/157/35 141/160/35

vt 166.142 21.2807
f 10/162/35 135/157/35 11/161/35

v 3.77818 0.54053 -1.71711
vt 169.291 21.2807
f 135/157/35 10/162/35 142/163/35

vt 166.142 67.3228
vt 169.291 25.0077
vt 169.291 67.3228
f 10/164/16 133/165/16 142/166/16

vt 166.142 25.0077
f 7/167/16 133/165/16 10/164/16

vt 160.345 21.531
f 6/168/16 133/165/16 7/167/16

vt 160.345 19.9562
f 133/165/16 6/168/16 132/169/16

vt 18.0543 -45.9004
vn 0.878157 0.478373 -1.42225e-15
vt 19.9562 -58.0171
vt 21.531 -58.0171
f 5/170/36 132/171/36 6/172/36

vt 16.4795 -45.9004
f 132/171/36 5/170/36 130/173/36

vt -25.0077 21.2807
vt -67.3228 244.882
vt -67.3228 21.2807
f 133/174/6 135/175/6 142/176/6

vt -25.0077 244.882
f 135/175/6 133/174/6 134/177/6

usemtl _2
vn 0.954124 0.299411 -5.90638e-19
vt 1.1859 0.444144
f 12/16/37 141/178/37 11/15/37

v 3.59597 2.68625 -4.57711
vt 1.1859 0.247493
f 141/178/37 12/16/37 143/179/37

v 3.59597 2.68625 -7.43711
f 12/16/37 144/178/37 143/179/37

v 3.69818 2.36053 -7.43711
f 144/178/37 12/16/37 145/15/37

f 145/15/1 12/16/1 13/14/1

usemtl _4
vt -166.142 92.9343
v 3.77818 0.54053 -7.43711
vt -169.291 21.2807
vt -166.142 21.2807
f 145/180/5 146/181/5 13/182/5

v 3.77818 6.22 -7.43711
vt -169.291 244.882
f 146/181/5 145/180/5 147/183/5

vt -162.118 105.758
f 147/183/5 145/180/5 144/184/5

v 3.59597 3.74808 -7.43711
vt -162.118 147.562
f 147/183/5 144/184/5 148/185/5

vt -179.921 105.758
vt -292.52 147.562
vt -292.52 105.758
f 143/186/6 148/187/6 144/188/6

vt -67.3228 105.758
f 141/189/6 148/187/6 143/186/6

vt -67.3228 147.562
f 148/187/6 141/189/6 140/190/6

vt -153.543 67.3228
vn 0 -1 -0
vt -162.118 292.52
vt -162.118 67.3228
f 139/191/38 148/192/38 140/193/38

vt -153.543 179.921
f 138/194/38 148/192/38 139/191/38

v 3.37818 3.74808 -7.43711
vt -153.543 292.52
f 148/192/38 138/194/38 149/195/38

usemtl _3
v 3.37818 7.03 -4.57711
vt 2 7.29505
f 149/155/1 150/196/1 138/153/1

v 3.37818 7.03 -6.48711
f 150/196/1 149/155/1 151/154/1

v 3.37818 6.22 -7.43711
f 151/154/1 149/155/1 152/152/1

usemtl _4
vt -153.543 244.882
vt -153.543 147.562
f 152/197/5 148/185/5 149/198/5

f 147/183/5 148/185/5 152/197/5

usemtl _1_2_
vt 0.481928 2.22045e-16
vn -9.62559e-17 -0.76095 0.64881
vt 8.88178e-16 1
vt 0 2.22045e-16
f 147/199/39 151/200/39 152/201/39

f 151/200/39 147/199/39 95/151/39

usemtl _1
vn 0.883257 -0.468889 -0
f 147/146/40 93/135/40 95/147/40

v 3.77818 6.22 -8.51191
f 93/135/40 147/146/40 153/137/40

usemtl _4
vt -334.835 244.882
vt -292.52 21.2807
vt -292.52 244.882
f 153/202/6 146/203/6 147/204/6

v 3.77818 0.54053 -8.51191
vt -334.835 21.2807
f 146/203/6 153/202/6 154/205/6

vt -17.2238 244.882
vn -0.491696 0 0.870767
v 3.55096 0.54053 -8.64022
vt -27.4974 21.2807
vt -17.2238 21.2807
f 153/206/41 155/207/41 154/208/41

v 3.55096 6.22 -8.64022
vt -27.4974 244.882
f 155/207/41 153/206/41 156/209/41

usemtl _1
vn 0.475756 -0.252562 -0.842537
f 91/138/42 153/137/42 156/136/42

f 153/137/42 91/138/42 93/135/42

vn 0.49621 -0.26342 -0.827276
f 156/136/43 90/140/43 91/138/43

v 3.40373 6.22 -8.72853
f 90/140/43 156/136/43 157/139/43

usemtl _4
v 3.40373 0.810795 -8.72853
vt -44.0822 31.9211
vn -0.514377 1.82603e-19 0.857564
vt -37.3231 244.882
vt -44.0822 244.882
f 158/210/44 156/211/44 157/212/44

vt -37.3231 21.2807
f 156/211/44 158/210/44 155/213/44

vt 341.788 -45.9004
vn 0.878157 0.478373 1.42225e-15
vt 339.886 -58.0171
vt 343.363 -45.9004
f 17/214/45 155/215/45 158/216/45

vt 338.311 -58.0171
f 155/215/45 17/214/45 16/217/45

vt 166.142 334.835
vt 160.345 339.886
vt 160.345 338.311
f 15/218/16 155/219/16 16/220/16

vt 169.291 334.835
f 155/219/16 15/218/16 154/221/16

vt 169.291 292.52
f 154/221/16 15/218/16 146/222/16

vt 166.142 292.52
f 146/222/16 15/218/16 13/223/16

vt 343.363 31.9211
v 3.40373 1.08106 -8.68853
vt 341.788 42.5614
vt 341.788 31.9211
f 158/224/1 159/225/1 17/226/1

v 3.40373 6.22 -8.68853
vt 341.788 244.882
f 159/225/1 158/224/1 160/227/1

vt 343.363 244.882
f 160/227/1 158/224/1 157/228/1

usemtl _1
f 160/144/32 90/143/32 157/142/32

f 90/143/32 160/144/32 87/141/32

f 160/144/43 85/99/43 87/141/43

f 85/99/43 160/144/43 84/98/43

f 160/121/3 19/7/3 84/120/3

f 159/122/3 19/7/3 160/121/3

f 17/6/3 19/7/3 159/122/3

f 21/119/1 84/120/1 19/7/1

v 3.30607 6.22 -8.92711
f 84/120/1 21/119/1 161/118/1

vn 0.702099 0.118802 -0.702099
f 21/116/46 81/94/46 161/117/46

f 81/94/46 21/116/46 22/17/46

f 22/17/14 80/90/14 81/94/14

f 80/90/14 22/17/14 79/87/14

f 22/17/5 24/19/5 79/87/5

vt 2.0102 1.09179
f 81/94/16 84/115/16 161/229/16

f 81/94/16 82/95/16 84/115/16

vt -2.53537 1.19082
vt -2.53537 1.00798
f 95/111/38 150/230/38 151/231/38

vt -2.53537 1.37366
f 150/230/38 95/111/38 137/232/38

vt -2.61483 1.37366
f 137/232/38 95/111/38 96/233/38

usemtl _3
f 137/154/1 138/153/1 150/196/1

usemtl _1
f 109/115/16 110/94/16 126/229/16

vn -6.06211e-18 0.166838 0.985984
f 110/94/47 115/87/47 125/17/47

f 115/87/47 110/94/47 113/90/47

f 116/19/12 125/17/12 115/87/12

f 117/86/15 123/23/15 116/19/15

f 123/23/15 117/86/15 119/25/15

v 0.0982393 3.0973 1.59414
f 162/33/1 120/32/1 118/31/1

v 0.0982393 0 1.59414
f 120/32/1 162/33/1 163/30/1

vn 8.7233e-17 -2.8212e-17 1
v -0.521818 1.63 1.59414
vt -0.197201 2.03523
f 162/33/48 164/234/48 163/30/48

v -0.521818 4.03 1.59414
vt -0.197201 2.23939
f 164/234/48 162/33/48 165/235/48

vn 0.832768 0.553622 -6.95582e-18
v -0.521818 4.03 -0.107109
vt 0.000264095 2.25532
vt -0.144455 2.25532
f 162/33/49 166/236/49 165/237/49

f 166/236/49 162/33/49 118/31/49

f 118/27/25 114/82/25 166/83/25

v -0.521818 5.4 -0.107109
f 166/83/25 114/82/25 167/84/25

vn 0 0.166838 0.985984
f 112/78/50 167/81/50 114/80/50

v -0.521818 6.22 -0.245861
f 167/81/50 112/78/50 168/79/50

v 1.60783 7.4 -0.245861
f 112/78/12 169/75/12 168/79/12

v 2.33367 7.95 -0.245861
f 112/78/12 170/72/12 169/75/12

f 170/72/12 112/78/12 111/76/12

vn 0.707107 -1.08305e-17 0.707107
f 108/96/51 170/72/51 111/76/51

f 170/72/51 108/96/51 107/97/51

v 1.88283 7.675 -0.245861
f 169/75/12 170/72/12 171/73/12

v 1.88283 7.95 -0.245861
f 171/73/12 170/72/12 172/74/12

v 1.88283 7.675 1.31414
f 172/70/1 173/68/1 171/71/1

v 1.88283 7.95 1.59414
f 174/67/1 173/68/1 172/70/1

v 1.88283 7.835 1.59414
f 173/68/1 174/67/1 175/69/1

v -0.521818 7.95 1.59414
f 176/61/12 175/65/12 174/66/12

v -0.0871685 7.56 1.59414
f 176/61/12 177/62/12 175/65/12

v -0.521818 7.24 1.59414
f 177/62/12 176/61/12 178/63/12

usemtl _2
vn 1 -3.68904e-18 7.07202e-18
f 176/42/52 165/39/52 178/41/52

v -0.521818 7.95 4.78414
f 165/39/52 176/42/52 179/43/52

f 179/43/52 164/40/52 165/39/52

v -0.521818 7.24 4.78414
f 180/60/52 164/40/52 179/43/52

v -0.521818 4.03 4.78414
f 181/44/52 164/40/52 180/60/52

v -0.521818 1.63 4.78414
f 164/40/52 181/44/52 182/38/52

vn 1 -2.95124e-18 2.82881e-17
f 179/42/53 182/40/53 181/39/53

v -0.521818 7.95 7.97414
f 183/43/53 182/40/53 179/42/53

v -0.521818 7.24 7.97414
f 184/60/53 182/40/53 183/43/53

v -0.521818 4.03 7.97414
f 185/44/53 182/40/53 184/60/53

v -0.521818 1.63 7.97414
f 182/40/53 185/44/53 186/38/53

f 183/42/53 186/40/53 185/39/53

v -0.521818 7.24 11.1641
f 183/42/53 187/60/53 186/40/53

v -0.521818 7.95 11.1641
f 187/60/53 183/42/53 188/43/53

vn 1 -1.66458e-18 4.22116e-17
v -0.521818 4.03 11.1641
f 188/42/54 189/39/54 187/41/54

v -0.521818 1.63 11.1641
f 188/42/54 190/40/54 189/39/54

v -0.521818 7.95 14.3541
f 191/43/54 190/40/54 188/42/54

v -0.521818 1.63 14.3541
f 190/40/54 191/43/54 192/38/54

usemtl _1
v 1.55824 4.22 14.3541
f 193/48/5 192/49/5 191/56/5

v 1.55824 0 14.3541
f 194/50/5 192/49/5 193/48/5

v 0.0982393 0 14.3541
f 192/49/5 194/50/5 195/47/5

usemtl _2
v 0.0982393 0 11.1641
vn 0.934658 0.355547 2.69469e-17
f 196/46/55 192/38/55 195/45/55

f 192/38/55 196/46/55 190/40/55

v 0.0982393 0 7.97414
f 197/46/55 190/38/55 196/45/55

f 190/38/55 197/46/55 186/40/55

v 0.0982393 0 4.78414
f 198/46/55 186/38/55 197/45/55

f 186/38/55 198/46/55 182/40/55

vn 0.934658 0.355547 5.98342e-33
f 163/46/56 182/38/56 198/45/56

f 182/38/56 163/46/56 164/40/56

f 186/40/53 189/44/53 190/38/53

f 189/44/53 186/40/53 187/60/53

usemtl _1
v 1.55824 4.22 14.7041
f 199/54/1 194/53/1 193/52/1

v 1.55824 0 14.7041
f 194/53/1 199/54/1 200/51/1

v 0.0982393 0 14.7041
f 199/48/12 201/47/12 200/50/12

v -0.521818 1.63 14.7041
f 201/47/12 199/48/12 202/49/12

v -0.521818 4.03 14.7041
f 202/49/12 199/48/12 203/57/12

v -0.521818 7.24 14.7041
f 203/57/12 199/48/12 204/55/12

v -0.521818 7.95 14.7041
f 204/55/12 199/48/12 205/56/12

f 193/52/13 205/59/13 199/54/13

f 205/59/13 193/52/13 191/58/13

usemtl _2
f 205/42/54 203/39/54 204/41/54

f 205/42/54 202/40/54 203/39/54

v -0.521818 7.95 17.8941
f 206/43/54 202/40/54 205/42/54

v -0.521818 1.63 17.8941
f 202/40/54 206/43/54 207/38/54

f 207/38/55 201/46/55 202/40/55

v 0.0982393 0 17.8941
f 201/46/55 207/38/55 208/45/55

f 183/42/53 185/39/53 184/41/53

f 179/42/53 181/39/53 180/41/53

vt -0.851328 2.14657
vn 1 9.08461e-19 -1.50547e-17
vt -0.278295 2.56391
vt -0.851327 2.56391
f 166/238/57 178/239/57 165/240/57

v -0.521818 7.08 1.31414
vt -0.306857 2.49522
f 178/239/57 166/238/57 209/241/57

vt -0.606762 2.14657
f 209/241/57 166/238/57 167/242/57

v -0.521818 7.08 -0.245861
vt -0.306858 2.11253
f 209/241/57 167/242/57 210/243/57

vt -0.46038 2.11253
f 210/243/57 167/242/57 168/244/57

usemtl _1
f 168/79/12 169/75/12 210/77/12

v -0.0871685 7.4 -0.245861
vt -2.62907 0.760049
f 211/245/12 210/77/12 169/75/12

vt -0.000602418 2.37233
vn 0.592877 -0.805293 -0
vt -0.133306 2.32641
vt -0.000602421 2.32641
f 211/246/58 209/247/58 210/248/58

v -0.0871685 7.4 1.31414
vt -0.133306 2.37233
f 209/247/58 211/246/58 212/249/58

vt -0.000602406 2.51651
f 169/250/38 212/249/38 211/246/38

v 1.60783 7.4 1.31414
vt -0.133306 2.51651
f 212/249/38 169/250/38 213/251/38

vt -0.000602403 2.5496
vn 0.707107 -0.707107 -0
f 171/252/59 213/251/59 169/250/59

vt -0.133306 2.5496
f 213/251/59 171/252/59 173/253/59

vt -0.159452 2.55957
vn 0.65561 -0.65561 0.374634
vt -0.133762 2.51687
vt -0.133762 2.54995
f 175/254/60 213/255/60 173/256/60

v 1.60783 7.56 1.59414
vt -0.159452 2.52649
f 213/255/60 175/254/60 214/257/60

f 175/65/12 177/62/12 214/64/12

vt -0.160739 2.37233
vn -3.56233e-18 -0.868243 0.496139
vt -0.160739 2.51651
f 177/258/61 213/251/61 214/259/61

f 213/251/61 177/258/61 212/249/61

vt -0.160035 2.33481
vn 0.538589 -0.731554 0.418031
vt -0.133816 2.37266
vt -0.160035 2.38073
f 178/260/62 212/261/62 177/262/62

vt -0.133816 2.32674
f 212/261/62 178/260/62 209/263/62

vn 0.832768 0.553622 1.0552e-17
f 32/33/63 77/236/63 29/31/63

f 77/236/63 32/33/63 34/237/63

usemtl _2
vn 1 8.87924e-18 2.38257e-17
f 34/240/64 76/242/64 77/238/64

v -0.521818 7.08 -10.4684
f 76/242/64 34/240/64 215/241/64

f 215/241/64 34/240/64 36/239/64

usemtl _1
vn 0.538589 -0.731554 -0.418031
v -0.0871685 7.4 -10.4684
f 36/260/65 216/261/65 215/263/65

f 216/261/65 36/260/65 62/262/65

vn -1.57496e-31 -0.868243 -0.496139
v 1.60783 7.4 -10.4684
f 62/258/66 217/251/66 216/249/66

f 217/251/66 62/258/66 63/259/66

vn 0.65561 -0.65561 -0.374634
f 64/254/67 217/255/67 63/257/67

f 217/255/67 64/254/67 66/256/67

f 66/253/59 70/250/59 217/251/59

f 70/250/59 66/253/59 68/252/59

v -0.0871685 7.4 -8.90836
f 218/246/38 217/251/38 70/250/38

f 217/251/38 218/246/38 216/249/38

f 72/248/58 216/249/58 218/246/58

f 216/249/58 72/248/58 215/247/58

usemtl _2
f 72/243/64 76/242/64 215/241/64

f 76/242/64 72/243/64 74/244/64

usemtl _1
f 70/75/5 72/77/5 218/245/5

