# Alias OBJ Model File
# Exported from SketchUp, (c) 2000-2012 Trimble Navigation Limited
# File units = meters

mtllib zelda-house.mtl

g Mesh1 Group1 Model

usemtl M_00010150_32x32_rgba16
v -1.96041 9.57968 -5.28733
vt 3.44645 1.47015
vn -1.42054e-17 0.713063 -0.7011
v -9.57088 5.68316 -9.25032
vt 10.4077 -3.61348
v -9.57088 9.57968 -5.28733
vt 10.4077 1.47015
f 1/1/1 2/2/1 3/3/1

v -1.96041 5.68316 -9.25032
vt 3.44645 -3.61348
f 2/2/1 1/1/1 4/4/1

usemtl BackColor
vt -3.01091e-15 1.59092
vn 1.42054e-17 -0.713063 0.7011
vt -6.17219e-15 -217.217
vt -299.625 1.59092
f 3/5/2 2/6/2 1/7/2

usemtl M_0001BB98_16x16_rgba16___Copy
vt -1.00629 1.00427
vn -1 0 -0
v -9.57088 5.68316 -1.51285
vt -0.00629198 1.00427
vt -0.49411 2.01145
f 2/8/3 5/9/3 3/10/3

usemtl BackColor
vt -148.601 153.406
vn 1 -0 0
vt 0 0
vt -304.625 0
f 3/11/4 5/12/4 2/13/4

usemtl M_00010150_32x32_rgba16
vt -10.4077 3.44197
vn 1.2521e-32 0.695769 0.718265
vt -3.44645 8.40412
vt -10.4077 8.40412
f 5/14/5 1/15/5 3/16/5

v -1.96041 5.68316 -1.51285
vt -3.44645 3.44197
f 1/15/5 5/14/5 6/17/5

usemtl BackColor
vt 299.625 -3.63411e-30
vn -1.2521e-32 -0.695769 -0.718265
vt 299.625 213.579
f 6/18/6 5/12/6 1/19/6

vt 2.59047e-30 213.579
f 3/20/6 1/19/6 5/12/6

usemtl M_0001BB98_16x16_rgba16___Copy
vt 1.00409 0.986099
vn 1 0 -0
vt 0.491903 1.99328
vt 0.00408524 0.986099
f 4/21/7 1/22/7 6/23/7

usemtl BackColor
vt -299.625 -217.217
f 4/24/2 1/7/2 2/6/2

vn -1 -0 0
vt 148.601 153.406
vt 304.625 0
f 6/12/8 1/25/8 4/26/8

g Mesh2 Group1 Model

l 6 1

l 6 4

l 6 5

l 5 2

l 5 3

l 3 2

l 1 3

l 4 1

l 2 4

g Mesh3 Group3 Group2 Model

usemtl FrontColor
v -4.85075 1.90968 -2.35264
vt -75.6875 23.3252
vn 0 -1 -0
v -6.77322 1.90968 -1.76018
v -6.77322 1.90968 -2.35264
vt 0 23.3252
f 7/27/9 8/12/9 9/28/9

v -4.85075 1.90968 -1.76018
vt -75.6875 0
f 8/12/9 7/27/9 10/29/9

usemtl BackColor
vn -0 1 0
f 9/28/10 8/12/10 7/27/10

usemtl FrontColor
v -6.77322 1.96524 -2.35264
vt -23.3252 2.1875
vt -23.3252 0
f 8/12/3 11/30/3 9/31/3

v -6.77322 1.96524 -1.76018
vt 0 2.1875
f 11/30/3 8/12/3 12/32/3

usemtl BackColor
f 12/32/4 8/12/4 11/30/4

usemtl FrontColor
vn 0 0 1
v -4.85075 1.96524 -1.76018
vt 75.6875 2.1875
f 8/12/11 13/33/11 12/32/11

vt 75.6875 0
f 13/33/11 8/12/11 10/34/11

usemtl BackColor
vn -0 -0 -1
f 10/34/12 8/12/12 13/33/12

f 10/29/10 7/27/10 8/12/10

usemtl FrontColor
vt 23.3252 0
f 7/35/7 13/32/7 10/12/7

v -4.85075 1.96524 -2.35264
vt 23.3252 2.1875
f 13/32/7 7/35/7 14/36/7

usemtl BackColor
f 10/12/8 13/32/8 7/35/8

f 14/36/8 7/35/8 13/32/8

usemtl FrontColor
vn 0 0 -1
vt -75.6875 2.1875
f 7/29/13 11/32/13 14/37/13

f 11/32/13 7/29/13 9/12/13

usemtl BackColor
vn -0 -0 1
f 9/12/14 7/29/14 11/32/14

f 14/37/14 11/32/14 7/29/14

usemtl FrontColor
vn 0 1 -0
vt 75.6875 23.3252
f 11/28/15 13/34/15 14/38/15

f 13/34/15 11/28/15 12/12/15

usemtl BackColor
vn -0 -1 0
f 12/12/16 11/28/16 13/34/16

f 14/38/16 13/34/16 11/28/16

f 12/32/12 13/33/12 8/12/12

f 9/31/4 11/30/4 8/12/4

g Mesh4 Group3 Group2 Model

l 10 7

l 8 10

l 9 8

l 7 9

l 7 14

l 13 14

l 12 13

l 11 12

l 14 11

l 9 11

l 8 12

l 10 13

g Mesh5 Group2 Model

usemtl black1
v -5.05193 3.97229 -2.35264
vt -3.67109 1.10389
vn 0 -1.75e-16 1
v -6.32669 1.90968 -2.35264
vt -4.35333 -1.41691e-16
v -5.05193 1.90968 -2.35264
vt -3.67109 -1.41691e-16
f 15/39/17 16/40/17 17/41/17

v -6.32669 3.97229 -2.35264
vt -4.35333 1.10389
f 16/40/17 15/39/17 18/42/17

usemtl M_00017B50_32x64_ci8___Copy
vt -1.81778 -7.016e-17
vn -0 1.75e-16 -1
vt -2.1556 -7.016e-17
vt -1.81778 0.546606
f 17/43/18 16/44/18 15/45/18

vt 2.1556 0.623464
vn 3.89436e-19 -1 4.28238e-18
v -1.96041 1.90968 -9.25032
vt 0.998508 2.4514
vt 1.81778 0.623464
f 16/46/19 19/47/19 17/48/19

v -9.57088 1.90968 -1.51285
vt 3.01534 0.400915
f 20/49/19 19/47/19 16/46/19

v -9.57088 1.90968 -9.25032
vt 3.01534 2.4514
f 19/47/19 20/49/19 21/50/19

vn -3.89436e-19 1 -4.28238e-18
f 21/50/20 20/49/20 19/47/20

vt 0.00679617 -0.0459213
vt -2.04369 0.954079
vt -2.04369 -0.0459213
f 20/51/3 2/52/3 21/53/3

vt 0.00679617 0.954079
f 2/52/3 20/51/3 5/54/3

vt -0.400915 1
vt -0.400915 0
vt -2.4514 1
f 5/55/4 20/56/4 2/57/4

vt -3.01534 -7.65887e-17
vn 3.45196e-18 -1.91035e-16 1
v -6.32669 3.97229 -1.51285
vt -2.1556 0.546606
vt -3.01534 1
f 20/58/21 22/59/21 5/60/21

v -6.32669 1.90968 -1.51285
vt -2.1556 -7.65887e-17
f 22/59/21 20/58/21 23/61/21

vn -3.45196e-18 1.91035e-16 -1
f 23/61/22 20/58/22 22/59/22

vt 2.1556 0.400915
f 23/62/19 20/49/19 16/46/19

f 16/46/20 20/49/20 23/62/20

f 16/46/20 19/47/20 20/49/20

f 17/48/20 19/47/20 16/46/20

v -5.05193 1.90968 -1.51285
vt 1.81778 0.400915
f 17/48/19 19/47/19 24/63/19

f 24/63/20 19/47/20 17/48/20

v -1.96041 1.90968 -1.51285
vt 0.998508 0.400915
f 24/63/19 19/47/19 25/64/19

f 25/64/20 19/47/20 24/63/20

vt 2.04506 0.986056
vn 1 -1.91311e-16 -6.02429e-34
vt -0.00542 -0.013944
vt 2.04506 -0.013944
f 4/65/23 25/66/23 19/67/23

vt -0.00542 0.986056
f 25/66/23 4/65/23 6/68/23

vt 0.400915 1
vn -1 1.91311e-16 6.02429e-34
vt 2.4514 1
vt 0.400915 -1.91026e-16
f 6/69/24 4/70/24 25/71/24

vt -0.998508 2.4514
v -5.05193 5.68316 -1.51285
vt -1.81778 0.400915
vt -0.998508 0.400915
f 4/72/15 26/73/15 6/74/15

v -6.32669 5.68316 -1.51285
vt -2.1556 0.400915
f 4/72/15 27/75/15 26/73/15

vt -3.01534 2.4514
f 2/76/15 27/75/15 4/72/15

vt -3.01534 0.400915
f 27/75/15 2/76/15 5/77/15

f 5/77/16 2/76/16 27/75/16

f 4/72/16 27/75/16 2/76/16

f 26/73/16 27/75/16 4/72/16

vn 7.07888e-17 -1.58233e-16 1
vt -1.81778 1
vt -2.1556 1
f 22/59/25 26/78/25 27/79/25

v -5.05193 3.97229 -1.51285
f 26/78/25 22/59/25 28/45/25

vn -7.07888e-17 1.58233e-16 -1
f 28/45/26 22/59/26 26/78/26

vn -5.48419e-17 -1 -6.01816e-17
f 22/62/27 15/48/27 28/63/27

f 15/48/27 22/62/27 18/46/27

vn 5.48419e-17 1 6.01816e-17
f 18/46/28 22/62/28 15/48/28

usemtl M_00012950_16x32_ci8
vt 1.46693 0
vt 2.28122 1
vt 1.46693 1
f 23/80/7 18/81/7 22/82/7

vt 2.28122 7.12508e-17
f 18/81/7 23/80/7 16/83/7

usemtl M_00017B50_32x64_ci8___Copy
vt 0.400915 0.546606
vt 0.623464 0.546606
vt 0.400915 0
f 22/84/8 18/85/8 23/86/8

vt 0.623464 3.89461e-17
f 16/87/8 23/86/8 18/85/8

f 18/59/18 15/45/18 16/44/18

f 28/63/28 15/48/28 22/62/28

usemtl M_00012950_16x32_ci8
vt -1.98291 0.984648
vt -1.16861 -0.0153524
vt -1.16861 0.984648
f 15/88/3 24/89/3 28/90/3

vt -1.98291 -0.0153524
f 24/89/3 15/88/3 17/91/3

usemtl M_00017B50_32x64_ci8___Copy
vt -0.400915 0.546606
vt -0.623464 0.546606
f 28/92/4 24/56/4 15/93/4

vt -1.81778 -6.73126e-17
vn -2.26431e-17 -1.67897e-16 1
vt -0.998508 1
f 24/94/29 6/95/29 28/45/29

vt -0.998508 -6.73126e-17
f 6/95/29 24/94/29 25/96/29

vn 2.26431e-17 1.67897e-16 -1
f 25/96/30 24/94/30 6/95/30

f 28/45/30 6/95/30 24/94/30

f 28/45/29 6/95/29 26/78/29

f 26/78/30 6/95/30 28/45/30

f 6/74/16 26/73/16 4/72/16

vt -0.623464 3.89461e-17
f 17/97/4 15/93/4 24/56/4

f 27/79/26 26/78/26 22/59/26

f 5/60/21 22/59/21 27/79/21

f 5/60/22 22/59/22 20/58/22

f 27/79/22 22/59/22 5/60/22

vt 0.998508 0
vt 3.01534 1
vt 0.998508 1
f 19/98/13 2/99/13 4/100/13

vt 3.01534 0
f 2/99/13 19/98/13 21/101/13

f 21/101/14 19/98/14 2/99/14

f 4/100/14 2/99/14 19/98/14

vt 2.4514 -1.91026e-16
f 19/102/24 25/71/24 4/70/24

vt -2.4514 0
f 21/103/4 2/57/4 20/56/4

g Mesh6 Group2 Model

l 16 17

l 18 16

l 15 18

l 17 15

l 24 17

l 24 28

l 24 25

l 25 19

l 6 25

l 6 4

l 6 26

l 26 27

l 28 26

l 28 15

l 28 22

l 22 23

l 22 27

l 22 18

l 27 5

l 20 5

l 20 23

l 21 20

l 19 21

l 19 4

l 2 4

l 5 2

l 21 2

l 23 16

